{"glyphs":{"0":{"ha":-126,"x_min":0,"x_max":0,"o":"m 799 531 b 406 944 779 754 601 944 b 276 893 353 944 317 933 b 269 879 274 890 271 885 b 53 404 151 793 60 593 b 411 -97 42 158 192 -94 b 507 -71 454 -97 486 -87 b 572 -54 526 -71 549 -65 b 799 531 736 25 824 247 z m 451 99 b 449 97 450 99 450 97 b 419 110 439 103 429 107 b 256 410 308 143 253 242 b 404 761 258 568 350 717 b 606 456 518 725 600 603 b 451 99 613 278 551 129 z "},"1":{"ha":-331,"x_min":0,"x_max":0,"o":"m 599 47 b 494 122 568 94 543 122 l 424 122 b 438 383 444 204 436 299 b 439 628 438 471 439 540 b 438 775 439 676 438 726 b 433 815 438 790 436 803 b 442 853 442 826 446 839 b 389 929 433 882 406 914 b 303 929 364 951 342 950 b 60 815 265 910 110 838 b 47 764 40 807 35 788 b 99 686 63 735 78 708 b 218 693 131 653 176 676 b 236 701 222 694 229 697 b 240 558 236 656 242 603 b 240 197 239 503 240 244 b 243 118 240 174 239 144 b 93 107 189 117 135 117 b 40 39 61 100 40 74 b 76 -56 40 6 63 -35 b 119 -76 89 -74 100 -78 b 335 -67 208 -69 244 -64 l 508 -74 b 618 -35 567 -75 601 -64 b 599 47 626 -21 615 21 z "},"2":{"ha":-204,"x_min":0,"x_max":0,"o":"m 632 129 b 328 124 544 124 411 121 b 546 346 386 196 458 267 b 694 669 653 444 699 547 b 407 946 689 838 581 946 b 186 885 324 946 249 925 b 104 824 151 863 125 843 b 90 732 74 796 54 779 b 211 665 150 654 176 635 b 381 764 263 711 311 763 b 492 653 446 765 492 717 b 372 436 492 581 451 510 b 78 103 260 332 169 225 b 35 21 46 88 33 63 b 93 -68 36 -29 63 -69 b 590 -64 126 -67 499 -74 b 724 71 679 -54 704 24 b 747 150 738 106 746 131 b 632 129 733 144 701 133 z "},"3":{"ha":-212,"x_min":0,"x_max":0,"o":"m 704 315 b 557 504 686 411 624 469 b 658 739 628 551 672 647 b 388 944 642 853 521 949 b 111 826 285 942 219 921 b 107 704 58 781 57 749 b 225 688 154 663 178 646 b 378 772 265 722 322 771 b 468 694 433 774 467 743 b 365 547 469 642 436 592 b 263 525 336 546 308 538 b 224 438 200 507 211 478 b 322 383 242 375 256 383 b 513 247 426 383 508 325 b 338 94 517 161 444 96 b 94 174 235 93 151 151 b 28 185 76 181 50 185 b 76 57 49 160 60 114 b 151 -32 86 22 113 -11 b 517 -54 258 -89 403 -115 b 704 315 675 31 735 154 z "},"4":{"ha":-133,"x_min":0,"x_max":0,"o":"m 765 311 b 647 339 731 338 710 340 b 649 722 647 450 646 614 b 663 829 650 772 656 815 b 556 950 683 871 617 958 b 446 864 521 954 510 924 b 67 381 349 772 174 526 b 33 304 47 354 36 328 b 29 210 13 282 11 243 b 144 143 63 150 96 132 b 399 157 206 157 301 157 l 443 157 b 458 -31 433 72 418 -8 b 585 -107 489 -47 547 -78 b 642 150 626 -24 636 61 b 717 143 674 147 699 146 b 829 194 774 135 807 163 b 765 311 847 219 825 263 z m 226 335 b 454 638 288 418 378 540 b 453 335 457 544 456 432 l 417 335 b 226 335 342 336 289 336 z "},"5":{"ha":-221,"x_min":0,"x_max":0,"o":"m 713 271 b 422 565 708 426 586 550 b 318 564 394 568 356 567 b 350 747 328 621 340 697 b 622 758 440 744 597 753 b 681 797 658 767 672 776 b 632 900 688 814 667 863 b 521 926 600 935 586 933 b 374 922 479 922 446 922 b 257 929 319 922 288 922 b 176 921 210 940 193 939 b 144 846 158 901 149 875 b 163 783 139 814 144 793 b 124 518 147 681 129 586 b 106 407 106 493 97 453 b 161 365 108 390 132 360 b 351 392 221 378 303 393 b 514 250 453 389 514 335 b 363 96 514 161 453 96 b 126 175 253 96 193 126 b 22 211 97 196 54 207 b 82 43 44 153 65 81 b 165 -36 99 6 132 -18 b 372 -90 236 -74 303 -90 b 713 271 572 -90 718 67 z "},"6":{"ha":-235,"x_min":0,"x_max":0,"o":"m 697 279 b 404 551 686 440 582 539 b 279 538 369 554 317 546 b 344 661 296 586 318 629 b 540 772 399 728 464 763 b 621 813 599 779 618 789 b 608 922 625 853 624 889 b 519 950 596 949 576 957 b 236 810 394 936 319 900 b 54 383 147 714 69 567 b 110 31 40 213 57 104 b 371 -90 165 -47 286 -96 b 508 -47 440 -86 488 -72 b 583 -14 535 -43 560 -31 b 697 279 654 38 706 167 z m 244 190 b 244 361 238 236 236 288 b 354 385 278 378 319 388 b 501 244 447 376 501 328 b 415 96 501 196 478 126 b 400 94 410 96 406 94 b 244 190 318 86 254 125 z "},"7":{"ha":-286,"x_min":0,"x_max":0,"o":"m 653 918 b 579 932 642 939 639 936 b 204 919 479 925 282 919 b 119 926 174 919 146 922 b 61 915 100 929 82 926 b 17 807 36 901 18 860 b 119 731 15 735 32 721 b 317 740 167 736 242 740 l 394 740 b 221 296 314 600 268 464 b 201 157 210 257 204 206 b 233 -6 197 72 207 19 b 333 -108 264 -35 306 -68 b 390 -29 356 -92 376 -64 b 403 44 397 -11 403 14 b 410 218 403 103 399 158 b 628 749 439 375 536 631 b 672 793 656 756 668 769 b 653 918 675 808 669 888 z "},"8":{"ha":-199,"x_min":0,"x_max":0,"o":"m 396 -97 b 732 183 560 -100 726 14 b 526 465 736 326 653 397 b 689 667 622 511 683 581 b 539 901 696 763 629 869 b 415 943 514 932 471 942 b 90 671 236 947 93 824 b 229 454 89 588 133 508 b 51 164 107 382 43 279 b 218 -43 58 78 135 -1 l 221 -44 b 396 -97 238 -67 306 -96 z m 503 653 b 382 543 497 611 460 576 b 278 669 306 576 278 610 b 382 778 278 726 324 778 b 468 756 411 778 439 771 b 503 653 494 729 508 697 z m 396 86 b 318 97 374 85 346 89 b 247 217 283 119 247 156 b 371 371 247 275 289 326 b 535 206 485 314 536 263 b 396 86 533 143 478 92 z "},"9":{"ha":-226,"x_min":0,"x_max":0,"o":"m 686 639 b 375 943 642 838 539 943 b 285 919 335 943 304 935 b 250 914 274 921 263 919 b 50 603 121 854 51 747 b 340 299 47 421 167 296 b 508 343 406 300 464 318 l 500 275 b 346 92 485 181 458 100 b 176 147 288 88 224 113 b 44 188 147 168 83 185 b 93 67 64 156 83 100 b 342 -93 125 -42 236 -92 b 688 249 531 -96 649 21 b 686 639 707 357 711 528 z m 249 610 b 317 761 249 683 268 735 b 335 775 324 765 331 769 b 371 769 346 772 358 769 b 493 632 443 768 471 704 b 511 517 503 601 508 561 b 369 469 472 488 421 469 b 249 610 296 469 249 525 z "},"\u0000":{"ha":-607,"x_min":0,"x_max":0,"o":""},"!":{"ha":0,"x_min":0,"x_max":0,"o":""},"\"":{"ha":0,"x_min":0,"x_max":0,"o":""},"#":{"ha":0,"x_min":0,"x_max":0,"o":""},"$":{"ha":0,"x_min":0,"x_max":0,"o":""},"%":{"ha":504,"x_min":0,"x_max":0,"o":"b -444 44 250 261 -549 11 b -414 25 -390 163 -387 78 b NaN NaN -457 10 -474 14 l NaN NaN b NaN NaN NaN NaN NaN NaN "},"&":{"ha":0,"x_min":0,"x_max":0,"o":"b 86 985 3 869 31 943 b 31 1124 44 1014 26 1079 b NaN NaN 76 1151 125 1153 b NaN NaN NaN NaN NaN NaN b NaN NaN NaN NaN NaN NaN "},"'":{"ha":-656,"x_min":0,"x_max":0,"o":""},"(":{"ha":0,"x_min":0,"x_max":0,"o":""},")":{"ha":0,"x_min":0,"x_max":0,"o":""},"*":{"ha":0,"x_min":0,"x_max":0,"o":""},"+":{"ha":0,"x_min":0,"x_max":0,"o":""},",":{"ha":0,"x_min":0,"x_max":0,"o":""},"-":{"ha":-368,"x_min":0,"x_max":0,"o":"m 47 399 b 143 353 39 351 106 353 b 314 354 206 353 268 353 b 475 353 376 356 421 354 b 565 449 521 351 536 403 b 546 503 569 457 572 478 b 468 526 514 533 506 529 b 375 522 433 524 413 522 b 200 519 325 522 250 519 b 131 522 183 519 161 518 b 88 525 118 524 101 526 b 67 500 74 524 68 513 b 47 399 64 460 51 422 z "},".":{"ha":-660,"x_min":0,"x_max":0,"o":""},"/":{"ha":-167,"x_min":0,"x_max":0,"o":"m 760 915 "},":":{"ha":-539,"x_min":0,"x_max":0,"o":"m 0 -431 z "},";":{"ha":0,"x_min":0,"x_max":0,"o":""},"<":{"ha":-289,"x_min":0,"x_max":0,"o":"m 588 64 b 546 197 583 110 576 161 b 306 436 474 285 386 371 l 443 556 b 583 718 486 596 564 660 b 575 806 603 774 586 792 b 494 861 561 819 524 860 b 425 801 464 863 458 836 b 225 621 392 767 310 693 b 132 529 182 585 151 551 b 107 522 124 529 115 526 b 44 428 82 508 56 463 b 67 371 33 403 46 388 b 265 196 154 304 188 269 b 389 78 299 165 346 114 b 513 -17 421 51 478 3 b 594 -49 546 -36 560 -40 b 588 64 585 -4 592 18 z "},"=":{"ha":0,"x_min":0,"x_max":0,"o":""},">":{"ha":0,"x_min":0,"x_max":0,"o":"b -450 NaN -306 618 -378 692 "},"?":{"ha":0,"x_min":0,"x_max":0,"o":"b -247 300 -272 228 -262 322 b -276 160 -290 243 -279 176 b NaN NaN -267 143 -250 131 "},"@":{"ha":294,"x_min":0,"x_max":0,"o":"m 667 975 b 243 789 514 972 326 904 b 214 744 228 768 218 756 b 65 328 139 683 58 524 b 367 -114 72 126 204 -44 b 688 -167 556 -194 646 -193 b 835 -83 731 -140 772 -108 b 917 -64 857 -75 889 -64 b 568 -11 726 8 696 -40 b 225 347 364 35 235 150 b 392 710 217 496 285 586 b 400 735 397 717 400 725 b 669 822 464 786 558 824 b 1060 461 885 818 1056 674 b 974 206 1063 351 1028 261 b 879 318 917 221 875 250 b 908 600 885 408 896 492 b 850 661 911 624 913 654 b 786 658 838 663 807 664 b 751 628 771 654 760 643 b 653 658 725 643 686 657 b 379 425 521 663 403 575 b 588 119 356 271 428 122 b 744 157 643 118 703 133 b 939 61 781 111 844 78 b 989 71 960 57 976 61 b 1046 72 1010 63 1031 61 b 1211 467 1160 158 1211 314 b 667 975 1211 744 958 981 z m 628 265 b 549 413 549 276 542 357 b 661 517 556 471 604 518 b 729 501 683 515 707 510 b 707 297 721 439 714 365 b 629 289 681 289 654 286 z "},"A":{"ha":-143,"x_min":0,"x_max":0,"o":"m 807 113 b 503 838 782 200 574 724 b 454 871 489 860 471 869 b 440 832 449 885 444 847 b 179 108 397 674 236 276 b 206 -58 157 43 192 8 b 381 100 307 -6 353 32 b 410 175 389 119 399 144 b 601 176 468 179 553 182 b 693 194 643 172 672 171 b 726 238 706 208 717 222 b 767 136 746 189 760 151 b 871 114 785 93 811 42 b NaN NaN 897 164 869 263 z m NaN NaN b NaN NaN NaN NaN NaN NaN b NaN NaN NaN NaN NaN NaN l NaN NaN b NaN NaN NaN NaN NaN NaN z "},"B":{"ha":-140,"x_min":0,"x_max":0,"o":"m 663 479 b 683 550 718 532 703 549 b 915 NaN 779 497 861 413 z m 789 NaN b 758 NaN 801 NaN 789 NaN b 660 NaN 726 NaN 694 NaN b 551 NaN 626 NaN 588 NaN b 568 NaN 550 NaN 558 NaN b 568 NaN 597 NaN 594 NaN b NaN NaN 476 NaN NaN NaN b NaN NaN NaN NaN NaN NaN z "},"C":{"ha":0,"x_min":0,"x_max":0,"o":""},"D":{"ha":0,"x_min":0,"x_max":0,"o":"b -146 397 -125 422 -146 400 b -149 -92 -146 296 -150 11 b -122 346 -149 163 -156 331 b NaN NaN -93 354 -58 353 b NaN NaN NaN NaN NaN NaN b NaN NaN NaN NaN NaN NaN "},"E":{"ha":0,"x_min":0,"x_max":0,"o":"b -265 464 -254 596 -262 458 b -296 NaN -279 468 -289 475 b -301 NaN -300 NaN -301 NaN b -297 NaN -301 NaN -301 NaN l -310 NaN l -318 NaN l -319 NaN l 100 NaN "},"F":{"ha":0,"x_min":0,"x_max":0,"o":"b -257 325 -276 376 -278 350 b NaN NaN -233 306 NaN NaN "},"G":{"ha":0,"x_min":0,"x_max":0,"o":""},"H":{"ha":0,"x_min":0,"x_max":0,"o":"b 767 -99 0 -97 706 -99 b 763 NaN 700 -99 763 NaN b 614 NaN 721 NaN 674 NaN b 589 NaN 590 NaN 578 NaN b 617 NaN 599 NaN 615 NaN b 625 NaN 622 NaN 615 NaN b 685 NaN 629 NaN 657 NaN b 790 NaN 713 NaN 751 NaN b 831 NaN 826 NaN 831 NaN l 831 NaN b 1121 NaN 911 NaN 1021 NaN b 1119 NaN 1119 NaN 1118 NaN b 1138 NaN 1121 NaN 1126 NaN b 1165 NaN 1150 NaN 1161 NaN b 1329 NaN 1286 NaN 1326 NaN b 1332 NaN 1332 NaN 1329 NaN b 1235 NaN 1333 NaN 1314 NaN "},"I":{"ha":-396,"x_min":0,"x_max":0,"o":"m 428 114 b 390 115 415 114 403 114 b 390 333 393 183 392 243 b 458 336 418 335 442 335 b 528 425 501 339 514 383 b 343 401 419 415 397 404 b NaN NaN 308 NaN NaN NaN b NaN NaN NaN NaN NaN NaN b NaN NaN NaN NaN NaN NaN z "},"J":{"ha":0,"x_min":0,"x_max":0,"o":"b -164 849 -219 722 -222 806 b NaN NaN -65 NaN NaN NaN b NaN NaN NaN NaN NaN NaN b NaN NaN NaN NaN NaN NaN b NaN NaN NaN NaN NaN NaN b NaN NaN NaN NaN NaN NaN b NaN NaN NaN NaN NaN NaN "},"K":{"ha":0,"x_min":0,"x_max":0,"o":"b -99 847 -167 711 -110 781 b -136 924 -93 883 -108 908 b -242 944 -154 933 -211 946 b -281 893 -265 943 -272 915 b -346 782 -292 863 -319 817 b -567 536 -387 729 -482 624 "},"L":{"ha":-276,"x_min":0,"x_max":0,"o":"m 574 135 "},"M":{"ha":0,"x_min":0,"x_max":0,"o":"l 0 110 l 1001 110 l 1001 33 l 1122 33 l 1122 0 l 981 0 b 1056 -231 981 -112 1032 -154 b 1192 -19 1139 -164 1190 -122 b 1189 210 1193 54 1188 149 b 1189 375 1190 263 1189 296 b 1190 372 1189 374 1190 374 b 1346 117 1265 239 1332 133 b 1382 47 1339 88 1346 68 b 1538 97 1460 4 1500 22 b 1635 285 1560 142 1613 239 l 1689 389 b 1692 111 1689 308 1692 210 b 1693 3 1692 69 1689 47 b 1769 -225 1700 -72 1715 -168 b 1854 -118 1785 -196 1833 -144 b 1897 -7 1875 -92 1896 -40 b 1900 114 1900 43 1900 64 b 1893 507 1900 236 1897 368 b 1893 619 1892 554 1893 571 "},"N":{"ha":0,"x_min":0,"x_max":0,"o":"b 821 -399 0 -76 825 -249 l 522 78 b 490 113 513 92 501 104 b 508 101 490 101 508 83 b 615 NaN 508 201 615 NaN "},"O":{"ha":-83,"x_min":0,"x_max":0,"o":"m 850 496 b 411 944 824 736 610 951 b 493 986 463 965 485 985 b NaN NaN 500 989 508 992 b NaN NaN NaN NaN NaN NaN z m NaN NaN b NaN NaN NaN NaN NaN NaN l NaN NaN b NaN NaN NaN NaN NaN NaN b NaN NaN NaN NaN NaN NaN b NaN NaN NaN NaN NaN NaN b NaN NaN NaN NaN NaN NaN z "},"P":{"ha":-193,"x_min":0,"x_max":0,"o":"m 433 939 b 267 882 365 938 310 913 b 211 936 251 904 231 924 b 125 932 186 953 153 944 b 82 903 110 925 94 914 b 61 838 63 886 50 863 b 88 714 81 793 86 779 b 90 322 89 647 90 428 b 100 25 90 125 90 49 b 188 -106 118 -19 168 -61 b 242 -46 203 -93 231 -61 b 303 110 278 4 300 64 b 307 244 306 149 306 196 "},"Q":{"ha":0,"x_min":0,"x_max":0,"o":"b 122 336 -69 850 129 651 b 265 343 411 333 382 433 b NaN NaN 397 363 624 NaN "},"R":{"ha":0,"x_min":0,"x_max":0,"o":"b 407 -174 0 -162 728 -174 b 267 NaN 403 -174 267 NaN b 289 NaN 265 NaN 272 NaN b 343 NaN 307 NaN 336 NaN b 489 NaN 436 NaN 482 NaN b 576 NaN 489 NaN 508 NaN b 753 NaN 661 NaN 753 NaN b NaN NaN 753 NaN 818 NaN "},"S":{"ha":0,"x_min":0,"x_max":0,"o":""},"T":{"ha":0,"x_min":0,"x_max":0,"o":"b -408 894 -147 807 -411 849 b -515 932 -407 939 -406 938 b NaN NaN -785 929 -876 NaN b NaN NaN NaN NaN NaN NaN b NaN NaN NaN NaN NaN NaN b NaN NaN NaN NaN NaN NaN "},"U":{"ha":0,"x_min":0,"x_max":0,"o":""},"V":{"ha":0,"x_min":0,"x_max":0,"o":""},"W":{"ha":311,"x_min":0,"x_max":0,"o":"m 1282 879 b 1222 922 1274 901 1243 915 b 1146 939 1204 928 1164 938 b 1044 857 1082 944 1064 907 b 1022 783 1038 839 1026 800 b 903 333 1007 721 953 521 b 792 775 856 510 804 729 b 729 903 771 854 751 878 b 642 940 706 929 675 947 b 569 900 611 933 593 921 b 554 856 554 886 547 876 l 557 847 b 532 769 544 829 542 804 b 421 365 517 717 444 457 l 407 313 b 401 332 404 318 403 325 b 253 888 356 515 301 754 b 164 947 240 922 204 953 b 43 911 132 943 71 929 b 7 860 24 899 7 890 b 25 815 7 835 11 824 b 65 750 46 803 47 796 b 143 492 104 650 115 601 b 260 65 182 336 224 192 b 308 -25 271 29 283 -4 b 357 -65 311 -44 325 -56 b 496 -15 460 -99 474 -64 b 619 365 518 33 589 253 b 656 507 629 400 642 450 b 790 49 689 385 757 139 b 813 -3 799 26 806 10 b 906 -78 808 -39 832 -68 b 1019 -3 967 -86 996 -61 b 1169 525 1043 56 1139 419 b 1228 729 1189 593 1204 658 b 1260 807 1236 754 1249 783 b 1282 879 1271 831 1292 854 z "},"X":{"ha":-94,"x_min":0,"x_max":0,"o":"m 797 150 b 599 425 768 190 689 301 b 735 631 651 504 700 575 b 836 788 767 682 808 746 b 808 910 863 828 856 883 b 675 936 757 939 696 949 b 597 804 649 921 621 849 b 471 601 568 749 524 676 b 265 890 375 736 289 856 b -142 NaN 233 938 175 1164 l NaN NaN b NaN NaN NaN NaN NaN NaN b NaN NaN NaN NaN NaN NaN b NaN NaN NaN NaN NaN NaN b NaN NaN NaN NaN NaN NaN b NaN NaN NaN NaN NaN NaN b NaN NaN NaN NaN NaN NaN b NaN NaN NaN NaN NaN NaN b NaN NaN NaN NaN NaN NaN z "},"Y":{"ha":-112,"x_min":0,"x_max":0,"o":"m 826 913 b 729 935 804 922 756 932 b 635 851 679 940 667 918 b 443 518 596 771 510 625 l 338 713 b 472 639 338 669 415 639 b 481 649 449 639 481 613 b 493 542 481 596 486 542 b 454 514 449 542 454 525 b 385 478 454 490 408 478 b 344 488 376 478 344 506 b 319 515 344 517 325 515 b 306 489 339 515 306 550 b 151 572 306 536 208 572 b 131 531 186 572 131 643 b NaN 678 131 608 129 678 "},"Z":{"ha":-176,"x_min":0,"x_max":0,"o":"m 669 135 b 342 136 557 138 440 136 b 703 706 483 322 650 582 b 715 749 710 722 714 736 l 740 771 b 751 840 767 797 765 813 b 703 914 739 865 725 892 b 663 931 696 921 683 932 b 211 922 615 928 275 922 b 154 929 197 922 171 925 b 110 892 138 933 119 910 b 83 804 94 864 85 835 b 108 756 82 782 88 764 b 242 731 157 736 194 729 b 493 732 290 732 399 733 b 175 256 411 596 221 313 b 57 114 110 174 81 142 b 49 -36 24 75 6 3 b 176 -53 85 -69 133 -82 b 611 -67 269 -57 525 -72 b 774 53 711 -60 758 18 b 803 151 789 86 801 129 b 669 135 785 142 738 133 z "},"[":{"ha":0,"x_min":0,"x_max":0,"o":""},"\\":{"ha":0,"x_min":0,"x_max":0,"o":"b -558 986 -314 435 -456 764 b -735 1367 -690 1310 -711 1361 b -876 1293 -775 1356 -819 1343 b -861 1201 -878 1258 -879 1225 b -614 622 -839 1150 -703 838 b NaN NaN -481 308 NaN NaN "},"]":{"ha":0,"x_min":0,"x_max":0,"o":""},"^":{"ha":0,"x_min":0,"x_max":0,"o":"b -439 658 -360 604 -379 625 b -569 556 -481 610 -521 561 b -436 519 -540 532 -489 519 b -286 597 -368 519 -312 556 l -242 665 b -231 650 -237 661 -235 656 b -100 531 -190 592 -162 553 b 15 546 -29 506 1 525 b 21 597 24 558 29 574 "},"_":{"ha":-243,"x_min":0,"x_max":0,"o":"m 64 -19 b 101 -93 76 -51 82 -67 b 139 -119 108 -103 126 -118 b 185 -111 151 -121 168 -112 b 233 -111 197 -110 218 -111 "},"`":{"ha":0,"x_min":0,"x_max":0,"o":""},"a":{"ha":0,"x_min":0,"x_max":0,"o":""},"b":{"ha":0,"x_min":0,"x_max":0,"o":"b -218 928 -217 725 -218 835 b -242 1065 -219 958 -222 1022 b NaN NaN -276 NaN NaN NaN b NaN NaN NaN NaN NaN NaN b NaN NaN NaN NaN NaN NaN b NaN NaN NaN NaN NaN NaN b NaN NaN NaN NaN NaN NaN m NaN NaN b NaN NaN NaN NaN NaN NaN l NaN NaN b NaN NaN NaN NaN NaN NaN b NaN NaN NaN NaN NaN NaN b NaN NaN NaN NaN NaN NaN b NaN NaN NaN NaN NaN NaN z "},"c":{"ha":0,"x_min":0,"x_max":0,"o":"b -304 471 -278 381 -289 426 b -347 547 -324 510 -336 535 b NaN NaN -364 556 NaN NaN b NaN NaN NaN NaN NaN NaN b NaN NaN NaN NaN NaN NaN b NaN NaN NaN NaN NaN NaN "},"d":{"ha":0,"x_min":0,"x_max":0,"o":""},"e":{"ha":0,"x_min":0,"x_max":0,"o":""},"f":{"ha":-361,"x_min":0,"x_max":0,"o":"m 593 508 b 524 578 572 535 550 564 b 456 589 507 586 482 589 l 374 586 b 375 790 372 656 372 729 b 467 721 413 767 438 744 b 538 722 492 700 513 690 b 579 818 556 746 572 779 b 561 867 585 849 579 854 b 407 974 510 903 461 943 b 293 990 369 994 342 1006 b 188 903 257 979 188 950 b 179 769 190 872 181 813 l 179 768 l 139 768 l 139 767 l 72 767 l 72 694 l -8 694 l -8 471 b 14 354 -8 432 -1 389 "},"g":{"ha":0,"x_min":0,"x_max":0,"o":"b 494 -35 -211 0 494 -82 b NaN NaN 494 72 483 NaN b NaN NaN NaN NaN NaN NaN b NaN NaN NaN NaN NaN NaN b NaN NaN NaN NaN NaN NaN b NaN NaN NaN NaN NaN NaN b NaN NaN NaN NaN NaN NaN "},"h":{"ha":0,"x_min":0,"x_max":0,"o":"b 756 -224 0 -203 719 -224 b 749 -281 711 -224 749 -219 b 199 -28 749 -282 201 -161 b 325 22 243 4 281 25 b 428 -94 392 19 426 -28 b 428 -321 429 -150 432 -247 b 453 -471 425 -379 428 -429 b 497 -562 474 -506 489 -537 b 633 -297 590 -506 633 -443 b 631 -6 633 -192 635 -89 "},"i":{"ha":-600,"x_min":0,"x_max":0,"o":"m 135 782 z m 182 -112 b 271 4 219 -78 254 -42 b 293 246 296 75 296 144 b 46 328 183 254 117 263 b NaN NaN -15 344 -46 NaN z "},"j":{"ha":0,"x_min":0,"x_max":0,"o":"b 143 -601 0 -586 121 -601 b 36 -751 114 -601 115 -743 b -42 -836 32 -797 14 -832 b -107 -758 -64 -839 -85 -832 b -119 -581 -121 -696 -132 -635 b 0 -485 -83 -537 -54 -500 b NaN NaN 69 NaN NaN NaN b NaN NaN NaN NaN NaN NaN b NaN NaN NaN NaN NaN NaN b NaN NaN NaN NaN NaN NaN "},"k":{"ha":-222,"x_min":0,"x_max":0,"o":"m 667 89 b 458 336 619 132 531 242 b 654 525 538 401 621 481 b 638 651 696 581 689 614 b 539 663 590 686 565 676 b 440 569 501 643 485 608 b 297 453 410 543 353 496 b 300 881 300 611 300 771 b 253 996 300 922 285 967 b 133 1000 217 1028 174 1017 b 74 919 101 988 57 961 b 92 835 88 888 92 861 b 85 199 92 744 85 290 b 79 NaN -4 201 -58 217 l NaN NaN b NaN NaN NaN NaN NaN NaN b NaN NaN NaN NaN NaN NaN b NaN NaN NaN NaN NaN NaN b NaN NaN NaN NaN NaN NaN z "},"l":{"ha":-608,"x_min":0,"x_max":0,"o":"m 172 -112 b 217 -64 183 -94 201 -78 b 290 92 267 -18 290 21 b 289 715 290 257 288 596 b 292 864 289 765 290 814 b 232 994 293 915 268 956 b 169 1018 211 1017 192 1024 b 69 963 142 1011 85 979 b 65 900 49 940 51 925 b 82 818 82 869 82 849 l 82 654 "},"m":{"ha":0,"x_min":0,"x_max":0,"o":"b 79 985 86 1010 96 968 b -44 NaN 35 992 8 990 b -49 NaN -47 NaN -51 NaN b 10 NaN -44 NaN -33 NaN b 75 NaN 26 NaN 54 NaN b 154 NaN 146 NaN 151 NaN b 157 NaN 156 NaN 157 NaN l 157 NaN b -129 NaN 171 NaN -18 NaN b NaN NaN -132 NaN NaN NaN "},"n":{"ha":-190,"x_min":0,"x_max":0,"o":"m 724 426 b 847 446 724 407 847 353 b 871 256 847 321 871 238 b 838 -85 871 167 838 -21 b 867 -237 838 -133 840 -194 b 914 -328 885 -267 900 -296 b 1043 -157 963 -303 1036 -224 b 974 178 1053 -60 1047 57 b NaN NaN 958 267 NaN NaN z "},"o":{"ha":-217,"x_min":0,"x_max":0,"o":"m 403 678 b 346 669 382 678 364 675 z m 275 504 l 242 504 l 242 513 l 213 513 l 213 508 l 156 508 l 156 478 l 71 478 l 71 433 l -24 433 l -24 300 l -31 300 l -31 176 l -40 176 l -40 6 l 14 6 l 14 -175 l 225 -175 l 225 -247 l 226 -247 l 226 -258 b 131 -68 168 -218 133 -146 b 219 150 128 24 156 96 z "},"p":{"ha":0,"x_min":0,"x_max":0,"o":""},"q":{"ha":0,"x_min":0,"x_max":0,"o":"b 615 -225 0 -231 682 -225 b 613 -294 610 -225 613 -449 b 683 -399 613 -392 768 -399 b 600 NaN 682 -399 600 NaN b 521 NaN 574 NaN 546 NaN "},"r":{"ha":0,"x_min":0,"x_max":0,"o":""},"s":{"ha":0,"x_min":0,"x_max":0,"o":"b 413 -229 360 -281 326 -229 b NaN NaN 383 -229 472 NaN "},"t":{"ha":-356,"x_min":0,"x_max":0,"o":"m 479 150 b 382 119 453 138 415 129 b 379 267 379 160 379 236 l 383 431 b 500 424 428 429 469 428 b 588 494 533 419 561 454 b 585 543 596 507 596 526 b 490 606 556 586 536 600 b 389 613 464 608 428 611 b 389 732 390 656 392 696 b 325 850 386 781 365 817 b 264 865 308 864 283 871 l 260 797 b 125 779 206 793 157 788 b 86 710 97 772 83 731 b NaN NaN 106 711 128 713 b NaN NaN NaN NaN NaN NaN b NaN NaN NaN NaN NaN NaN b NaN NaN NaN NaN NaN NaN b NaN NaN NaN NaN NaN NaN b NaN NaN NaN NaN NaN NaN b NaN NaN NaN NaN NaN NaN b NaN NaN NaN NaN NaN NaN z "},"u":{"ha":0,"x_min":0,"x_max":0,"o":"b 542 19 -186 0 542 -31 b NaN NaN 542 100 538 NaN "},"v":{"ha":0,"x_min":0,"x_max":0,"o":"b 540 878 -215 706 432 760 b 1049 925 883 928 1013 942 b NaN NaN 1093 892 1113 NaN "},"w":{"ha":0,"x_min":0,"x_max":0,"o":""},"x":{"ha":-224,"x_min":0,"x_max":0,"o":"m 739 68 b 668 138 715 89 693 111 b 514 310 621 188 567 247 b 669 519 586 410 650 496 b 557 369 646 492 604 436 b 514 421 517 419 481 468 b NaN NaN 575 343 642 257 b NaN NaN NaN NaN NaN NaN b NaN NaN NaN NaN NaN NaN l NaN NaN b NaN NaN NaN NaN NaN NaN l NaN NaN b NaN NaN NaN NaN NaN NaN b NaN NaN NaN NaN NaN NaN b NaN NaN NaN NaN NaN NaN b NaN NaN NaN NaN NaN NaN z "},"y":{"ha":0,"x_min":0,"x_max":0,"o":"b -174 732 -167 761 -161 699 b -293 832 -201 753 -233 782 b -853 960 -394 946 -699 997 l -900 NaN b -1075 NaN -956 NaN -1015 NaN b -1200 NaN -1125 NaN -1171 NaN b -1071 NaN -1149 NaN -1094 NaN b -960 NaN -1039 NaN -1022 NaN b -703 NaN -846 NaN -764 NaN b -579 NaN -644 NaN -625 NaN b -389 NaN -487 NaN -399 NaN b -417 NaN -382 NaN -392 NaN "},"z":{"ha":0,"x_min":0,"x_max":0,"o":""},"{":{"ha":0,"x_min":0,"x_max":0,"o":""},"|":{"ha":0,"x_min":0,"x_max":0,"o":""},"}":{"ha":0,"x_min":0,"x_max":0,"o":"b -392 657 -410 579 -394 604 "},"~":{"ha":-142,"x_min":0,"x_max":0,"o":"m 744 593 b 668 588 719 606 674 613 b 568 476 654 538 619 482 b 468 511 532 471 500 489 b 299 610 415 572 356 604 b 60 468 203 622 108 569 b 68 344 33 415 38 382 b 171 318 89 319 158 286 b 279 428 194 372 222 428 b 383 382 315 428 354 407 b 406 357 390 372 397 364 b 579 292 454 319 507 288 b 799 521 685 297 769 361 b 744 593 804 550 771 582 z "},"₩":{"ha":435,"x_min":0,"x_max":0,"o":"m 1372 553 b 1278 596 1338 592 1333 594 b 1244 597 1265 596 1254 597 b 1261 667 1250 624 1256 649 b 1353 872 1283 750 1303 800 b 1199 938 1389 925 1274 958 b 1169 918 1189 935 1178 928 b 1113 813 1149 893 1128 857 b 1053 610 1090 750 1069 675 b 886 617 1006 613 949 615 l 879 643 b 839 858 861 713 854 800 b 806 917 833 879 821 904 b 713 932 778 940 740 933 b 657 913 692 931 667 921 b 647 876 647 904 646 892 b 632 863 642 872 636 868 b 610 818 622 850 615 835 b 558 613 588 751 572 682 b 396 607 504 610 449 608 l 392 629 b 293 878 372 721 344 800 b 229 935 276 903 257 925 b 153 922 199 946 182 936 l 142 917 b 100 892 128 913 110 904 b 94 818 85 871 85 842 b 133 774 104 794 121 807 b 178 639 147 738 167 676 b 189 599 182 625 186 613 b 144 596 169 597 154 597 b 93 593 129 594 110 593 b 35 579 69 593 53 601 b 31 506 18 558 22 529 b 86 431 42 475 57 463 b 163 407 118 396 138 397 b 238 417 182 415 214 415 l 294 176 b 347 13 308 119 328 68 b 394 -68 357 -15 369 -50 b 467 -74 419 -86 444 -85 l 468 -74 b 572 -61 504 -74 547 -79 b 611 24 597 -43 606 -3 b 675 310 632 121 656 214 l 699 431 b 736 432 711 431 724 431 b 836 39 772 271 814 110 b 897 -33 856 -24 867 -31 b 982 -83 901 -50 922 -65 b 1125 83 1049 -104 1097 -6 b 1196 367 1167 217 1168 244 b 1206 413 1199 379 1203 396 l 1267 408 b 1386 494 1319 404 1360 446 b 1372 553 1399 518 1394 528 z m 968 236 b 928 431 954 299 946 354 l 1013 426 z m 488 210 b 458 346 479 258 469 308 l 438 424 b 525 425 465 424 496 425 z "},"‐":{"ha":-462,"x_min":0,"x_max":0,"o":"m 417 353 b NaN NaN 413 400 400 436 b NaN NaN NaN NaN NaN NaN b NaN NaN NaN NaN NaN NaN "},"©":{"ha":296,"x_min":0,"x_max":0,"o":"m 781 -179 b 1213 401 1056 -101 1213 110 b 642 975 1213 731 972 982 b 539 974 611 983 586 982 b 33 383 269 928 33 675 b 596 -189 33 75 282 -196 b 781 -179 646 -204 711 -197 z m 594 -86 b 164 389 371 -74 154 150 b 574 853 172 607 342 811 b 644 874 604 858 629 868 b 1082 410 896 875 1075 661 b 760 -62 1088 193 968 -11 b 594 -86 697 -78 643 -85 z m 644 74 b 775 94 696 74 743 83 b 856 164 836 117 843 118 b 903 304 868 215 882 264 b 689 225 844 264 771 225 b 536 411 593 225 531 303 b 681 583 539 497 603 574 b 824 551 722 588 783 576 b 846 547 850 535 849 531 b 806 654 838 586 821 624 b 775 693 797 675 788 685 b 668 715 751 704 717 715 b 363 403 488 715 363 588 b 644 74 363 194 465 74 z "},"　":{"ha":0,"x_min":0,"x_max":0,"o":""},"、":{"ha":25,"x_min":0,"x_max":0,"o":"m 354 -199 l 413 -143 b 417 -79 431 -125 433 -99 b 175 153 344 7 279 71 b 114 150 156 168 131 167 l 67 104 b 69 29 44 82 44 50 b 279 -192 150 -39 211 -103 b 354 -199 299 -218 332 -221 z "},"。":{"ha":160,"x_min":0,"x_max":0,"o":"m 60 -67 b 203 -217 58 -157 125 -208 b 267 -204 231 -219 257 -212 b 381 -74 328 -201 378 -144 b 221 89 385 19 325 89 b 60 -67 113 89 61 7 z m 153 -57 b 219 13 153 -21 181 14 b 289 -56 264 11 289 -21 b 229 -131 289 -100 267 -119 b 153 -57 179 -133 153 -97 z "},"·":{"ha":-511,"x_min":0,"x_max":0,"o":""},"‥":{"ha":-233,"x_min":0,"x_max":0,"o":"m 350 0 z "},"…":{"ha":0,"x_min":0,"x_max":0,"o":""},"¨":{"ha":-268,"x_min":0,"x_max":0,"o":"m 179 803 b 296 904 247 803 296 861 b 185 1006 296 961 243 1006 b 89 919 126 1006 89 978 b 179 803 89 849 121 803 z m 507 803 b 625 904 575 803 625 861 b 514 1006 625 961 571 1006 b 418 919 456 1006 418 978 b 507 803 418 849 450 803 z "},"〃":{"ha":0,"x_min":0,"x_max":0,"o":"m 389 589 l 269 192 l 450 192 l 624 589 z m 744 589 l 625 192 l 806 192 l 979 589 z "},"­":{"ha":0,"x_min":0,"x_max":0,"o":""},"—":{"ha":0,"x_min":0,"x_max":0,"o":""},"‖":{"ha":296,"x_min":0,"x_max":0,"o":"m 421 -182 z m 718 -182 "},"＼":{"ha":0,"x_min":0,"x_max":0,"o":"b 51 1292 296 740 153 1069 b -125 1672 -81 1615 -101 1667 b -267 1599 -165 1661 -210 1649 b -251 1507 -268 1564 -269 1531 b -6 928 -229 1456 -94 1143 b NaN NaN 129 614 NaN NaN "},"∼":{"ha":296,"x_min":0,"x_max":0,"o":"m 963 593 b 886 588 936 604 892 613 b 786 476 875 538 838 482 b 686 511 750 472 718 489 b 517 610 633 572 574 604 b 278 468 421 619 326 569 b 286 344 253 415 256 382 b 389 318 307 319 376 286 b 497 428 411 374 440 428 b 601 383 533 428 572 407 b 624 357 608 372 615 364 b 797 292 671 318 725 288 b 1017 521 903 297 986 361 b 963 593 1022 550 989 582 z "},"‘":{"ha":-575,"x_min":0,"x_max":0,"o":"m 193 890 "},"’":{"ha":-575,"x_min":0,"x_max":0,"o":"m 214 818 z "},"“":{"ha":-337,"x_min":0,"x_max":0,"o":"m 179 890 z m 457 890 "},"”":{"ha":-337,"x_min":0,"x_max":0,"o":"m 188 818 z m 465 818 b 322 718 460 788 408 721 b 379 644 326 690 339 636 b 583 922 503 669 588 796 b 451 1036 581 1004 519 1043 b 349 911 389 1029 343 974 b 465 818 353 858 404 807 z "},"〔":{"ha":-454,"x_min":0,"x_max":0,"o":"m 447 -15 b 279 69 403 6 339 44 b 281 810 282 299 283 576 l 432 872 b 493 932 494 899 497 914 b 453 1035 483 974 467 1000 b 406 1050 446 1053 429 1063 b 121 918 343 1017 188 949 b 63 869 76 897 65 890 b 71 778 58 838 61 814 b 88 760 72 771 79 764 b 86 64 89 535 86 278 b 89 -7 86 43 86 13 b 151 -65 93 -40 107 -50 b 403 -181 229 -92 328 -144 b 456 -169 429 -193 447 -189 b 515 -69 472 -132 490 -110 b 447 -15 524 -56 492 -36 z "},"〕":{"ha":-454,"x_min":0,"x_max":0,"o":"m 479 838 b 396 922 489 857 435 903 b 122 1046 328 956 186 1019 b 75 1031 99 1056 86 1049 b 29 925 57 1001 42 965 b 96 867 24 907 33 889 b 249 806 144 850 192 829 b 250 63 246 571 247 290 b 64 -42 190 22 107 -19 b 58 -140 3 -74 -6 -68 b 167 -175 79 -164 106 -199 b 376 -69 243 -146 300 -110 b 442 68 440 -36 442 -21 b 442 782 442 289 439 553 b 479 838 457 797 469 818 z "},"〈":{"ha":-361,"x_min":0,"x_max":0,"o":"m 569 -57 b 236 438 517 19 322 319 b 547 901 336 581 501 835 b 579 976 583 954 592 964 b 478 1046 556 1000 504 1029 b 432 1038 463 1056 447 1060 b 54 476 360 932 131 582 b 28 403 25 436 22 422 b 85 342 36 372 61 343 l 90 342 l 110 315 b 432 -169 189 211 360 -64 b 478 -178 447 -192 461 -186 b 568 -126 504 -164 544 -143 b 569 -57 585 -115 606 -110 z "},"〉":{"ha":-368,"x_min":0,"x_max":0,"o":"m 567 476 b 189 1038 493 585 263 931 b 143 1046 174 1060 158 1056 b 39 975 117 1029 63 999 b 71 900 26 963 32 953 b 386 435 119 833 289 581 b 57 -53 315 311 121 24 b 58 -122 15 -101 42 -111 b 143 -179 82 -139 117 -165 b 189 -171 160 -187 172 -192 b 511 315 274 -65 446 211 l 525 336 b 589 403 549 342 586 372 b 567 476 590 422 593 439 z "},"《":{"ha":-185,"x_min":0,"x_max":0,"o":"m 192 432 b 469 954 275 582 435 883 b 463 1008 489 993 476 1000 b 385 1043 444 1019 407 1035 b 347 1022 371 1049 358 1044 b 56 476 294 915 115 581 b 67 347 24 421 29 364 b 79 344 69 346 75 344 b 349 -161 144 231 297 -58 b 386 -182 360 -183 372 -187 b 464 -146 408 -174 446 -157 b 471 -92 478 -137 490 -131 b 192 432 433 -17 265 301 z m 735 -92 b 456 432 697 -17 529 301 b 733 954 539 582 699 883 b 726 1008 753 993 740 1000 b 649 1043 708 1019 671 1035 b 611 1022 635 1049 622 1044 b 319 476 558 915 379 581 b 331 347 288 421 293 364 b 343 344 333 346 339 344 b 613 -161 408 231 561 -58 b 650 -182 624 -183 636 -187 b 728 -146 672 -174 710 -157 b 735 -92 742 -137 754 -131 z "},"》":{"ha":-185,"x_min":0,"x_max":0,"o":"m 467 347 b 478 476 504 364 510 421 b 186 1022 418 581 239 915 b 149 1043 175 1044 163 1049 b 71 1008 126 1035 89 1019 b 64 954 57 1000 44 993 b 342 432 99 883 258 582 b 63 -92 268 301 100 -17 z m 338 38 b 344 -17 318 -1 331 -8 b 53 529 285 88 106 422 b 15 550 42 551 29 556 b -62 515 -7 542 -44 526 b -69 461 -76 507 -89 500 b 208 -61 -35 390 125 89 b -71 -585 135 -192 -33 -510 b -64 -639 -90 -624 -78 -631 b -53 -510 -26 -622 -21 -565 z "},"「":{"ha":-426,"x_min":0,"x_max":0,"o":"m 529 857 l 529 1040 l 56 1040 l 56 399 l 251 399 l 251 857 z "},"」":{"ha":-428,"x_min":0,"x_max":0,"o":"m 499 -176 l 499 465 l 304 465 l 304 8 l 26 8 l 26 -176 z "},"『":{"ha":-343,"x_min":0,"x_max":0,"o":"m 614 749 l 614 1042 l 56 1042 l 56 296 l 340 296 l 340 749 z m 504 856 l 229 856 l 229 401 l 164 401 l 164 933 l 504 933 z "},"』":{"ha":-342,"x_min":0,"x_max":0,"o":"m 585 -176 l 585 549 l 299 549 l 299 118 l 25 118 l 25 -176 z m 475 -65 l 135 -65 l 135 11 l 410 11 l 410 443 l 475 443 z "},"【":{"ha":-460,"x_min":0,"x_max":0,"o":"m 69 -179 l 486 -179 b 179 428 301 -58 179 165 b 489 1043 179 692 301 924 l 69 1043 z "},"】":{"ha":-460,"x_min":0,"x_max":0,"o":"m 453 -179 l 453 1043 l 33 1043 b 343 433 219 919 343 696 b 33 -179 343 169 219 -58 z "},"±":{"ha":-246,"x_min":0,"x_max":0,"o":"m 160 490 b 285 492 197 492 239 492 l 282 350 b 313 257 281 300 292 267 b 424 286 338 246 382 257 b 451 354 451 306 450 322 l 456 490 l 521 490 l 522 490 l 522 533 l 399 533 b 400 699 400 597 400 657 b 354 768 400 739 386 768 b 269 756 332 768 303 765 b 224 676 232 744 222 725 l 226 533 z m 649 232 b 342 176 196 75 199 176 b NaN NaN 339 176 456 NaN z "},"×":{"ha":-293,"x_min":0,"x_max":0,"o":"m 588 315 b 468 439 560 343 515 389 b 601 581 526 501 578 557 b 619 650 624 603 635 632 b 536 713 603 671 575 696 b 468 681 503 726 490 703 b 354 558 446 658 403 611 l 238 679 b 150 703 204 714 183 722 b 79 651 119 685 96 667 b 99 571 56 629 79 590 b 236 429 129 540 181 488 b 85 272 175 364 118 303 b 67 192 64 253 44 214 b 138 150 82 176 103 164 b 224 176 176 135 188 140 b 350 310 249 201 296 251 b 478 179 404 253 453 203 b 567 149 501 157 542 126 b 632 228 603 181 629 208 b 588 315 636 253 624 279 z "},"÷":{"ha":-237,"x_min":0,"x_max":0,"o":"m 381 600 b 486 700 450 600 485 657 b 374 800 488 758 429 803 b 274 707 313 797 274 764 b 381 600 274 636 325 600 z m 642 350 z m 381 271 b 68 164 -119 271 68 215 b 36 71 68 128 -3 71 b 64 NaN 3 71 64 68 b 176 NaN 119 NaN 178 NaN b 71 NaN 175 NaN 140 NaN z "},"≠":{"ha":-264,"x_min":0,"x_max":0,"o":"m 576 378 l 432 378 l 478 497 l 506 497 b NaN NaN 504 535 488 576 b NaN NaN NaN NaN NaN NaN l NaN NaN l NaN NaN b NaN NaN NaN NaN NaN NaN b NaN NaN NaN NaN NaN NaN b NaN NaN NaN NaN NaN NaN b NaN NaN NaN NaN NaN NaN l NaN NaN b NaN NaN NaN NaN NaN NaN b NaN NaN NaN NaN NaN NaN b NaN NaN NaN NaN NaN NaN b NaN NaN NaN NaN NaN NaN l NaN NaN b NaN NaN NaN NaN NaN NaN b NaN NaN NaN NaN NaN NaN b NaN NaN NaN NaN NaN NaN l NaN NaN b NaN NaN NaN NaN NaN NaN b NaN NaN NaN NaN NaN NaN b NaN NaN NaN NaN NaN NaN l NaN NaN b NaN NaN NaN NaN NaN NaN b NaN NaN NaN NaN NaN NaN b NaN NaN NaN NaN NaN NaN z "},"≤":{"ha":-187,"x_min":0,"x_max":0,"o":"m 63 496 b 132 450 69 469 83 465 b 558 322 228 419 444 356 l 651 294 b 715 308 685 283 708 286 b 722 417 724 335 726 372 b 661 458 719 446 692 450 l 274 564 b 661 668 413 600 594 650 b 722 710 692 676 719 681 b 715 819 726 754 724 793 b 651 833 708 842 685 844 l 558 804 l 132 678 b 63 632 83 664 69 658 b 61 564 54 604 57 583 b 63 496 57 543 54 524 z m 719 182 b 651 206 711 207 683 206 b 458 203 122 206 342 203 b NaN NaN 456 246 442 286 z "},"≥":{"ha":-187,"x_min":0,"x_max":0,"o":"m 732 632 b 663 678 725 658 711 664 l 236 804 l 143 833 b 79 819 110 844 86 842 b 72 710 71 793 68 754 b 133 668 75 681 103 676 b 521 564 200 650 382 600 l 133 458 b 72 417 103 450 75 446 b 79 308 68 372 71 335 b 143 294 86 286 110 283 l 236 322 b 663 450 350 356 567 419 b 732 496 711 465 725 469 b 733 564 740 524 738 543 b 732 632 738 583 740 604 z m 651 206 b 458 203 122 206 342 203 b 556 200 497 203 538 201 z "},"∞":{"ha":185,"x_min":0,"x_max":0,"o":"m 865 163 b 1143 429 1024 163 1143 269 b 883 699 1143 583 1038 699 b 604 550 753 699 679 625 b 335 699 532 625 449 699 b 64 429 171 699 64 572 b 324 163 64 276 167 163 b 604 308 454 163 528 233 b 865 163 672 229 760 163 z m 333 335 b 247 429 279 335 247 372 b 336 526 247 481 286 526 b 486 428 399 526 442 467 b 333 335 444 381 393 335 z m 871 335 b 719 432 825 335 772 375 b 874 526 746 461 817 526 b 957 429 922 526 957 483 b 871 335 957 371 929 335 z "},"∴":{"ha":296,"x_min":0,"x_max":0,"o":"m 635 558 l 638 558 b 760 669 713 558 760 604 b 640 782 760 740 713 782 b 521 669 569 782 521 740 b 635 558 521 604 569 558 z m 992 90 l 994 90 b 1117 203 1071 90 1117 138 b 999 315 1117 274 1071 315 b 878 203 926 315 878 274 b 992 90 878 138 926 90 z m 293 89 l 296 89 b 417 201 371 89 417 135 b 299 314 417 271 371 314 b 179 201 228 314 179 271 b 293 89 179 135 228 89 z "},"°":{"ha":-474,"x_min":0,"x_max":0,"o":"m 58 850 b 235 668 57 740 140 676 b 313 683 268 665 300 674 b 450 842 385 688 446 756 b 257 1038 456 954 378 1038 b 58 850 138 1038 60 939 z m 182 861 b 254 935 182 900 213 936 b 329 863 301 933 329 900 b 265 782 329 814 306 794 b 182 861 211 779 182 818 z "},"′":{"ha":-344,"x_min":0,"x_max":0,"o":"m 260 1013 l 163 1178 l 506 NaN b 478 NaN 515 NaN 501 NaN l 339 NaN b 317 NaN 329 NaN 319 NaN z "},"″":{"ha":-267,"x_min":0,"x_max":0,"o":"m 183 1013 l 86 1013 l 86 874 b 64 857 76 874 67 867 z m 308 857 l 213 857 l 213 717 b 190 700 201 717 193 710 z "},"℃":{"ha":219,"x_min":0,"x_max":0,"o":"m 29 822 b -158 643 -83 822 -157 728 z m -408 1047 b -82 626 -35 654 -82 651 b -44 NaN -82 664 -44 NaN z "},"Å":{"ha":-114,"x_min":0,"x_max":0,"o":"m 428 939 b 240 760 315 939 242 844 b 406 585 239 657 317 592 z m 425 836 b 353 908 378 833 353 871 b 414 974 353 943 379 975 z m 785 -114 b 490 524 750 -35 549 422 b 451 556 479 543 465 551 b 439 518 447 571 447 539 b 157 -122 385 383 218 26 b 183 -289 131 -186 169 -222 b 350 -131 285 -236 319 -197 l 376 -71 b 579 -68 436 -67 528 -65 b 669 -50 621 -71 647 -72 b 711 1 686 -33 701 -17 l 753 -94 b 840 -117 771 -136 786 -189 b NaN NaN 888 -56 847 36 z m NaN NaN b NaN NaN NaN NaN NaN NaN b NaN NaN NaN NaN NaN NaN b NaN NaN NaN NaN NaN NaN b NaN NaN NaN NaN NaN NaN z "},"¢":{"ha":-233,"x_min":0,"x_max":0,"o":"m 510 200 l 576 621 b 651 592 607 613 635 603 b 688 589 692 567 697 574 b 651 726 665 624 658 693 b 608 772 646 754 626 764 l 601 775 l 617 868 b 568 947 626 922 601 942 b 506 949 540 951 528 950 b 438 897 457 946 435 924 b 435 808 439 882 440 835 b 433 800 435 806 433 803 b 46 403 196 796 43 624 b 311 42 49 210 158 78 l 306 3 b 365 -165 297 -62 325 -103 b 454 -58 379 -140 424 -103 b 483 38 472 -32 478 1 b 563 56 514 42 540 49 b 664 140 638 82 650 86 b 731 300 682 208 700 250 b 510 200 668 256 594 213 z m 240 428 b 403 631 243 525 300 606 b 339 231 382 511 358 360 b 240 428 275 274 239 350 z "},"£":{"ha":-182,"x_min":0,"x_max":0,"o":"m 657 126 b 332 121 572 122 432 121 b 383 315 360 174 381 238 b 385 363 383 332 385 347 b 557 360 449 363 510 361 l 607 360 l 607 358 l 639 358 l 639 364 l 650 364 l 650 388 l 663 388 l 663 414 l 651 414 l 651 467 l 479 467 b 476 601 478 521 476 567 b 493 679 476 631 485 661 b 593 693 519 692 560 694 b 807 599 669 689 736 660 b 786 751 796 651 790 700 b 747 817 783 785 769 800 b 563 875 694 856 635 876 b 365 807 490 874 394 847 b 272 611 311 779 272 706 b 274 467 272 572 274 525 l 215 467 b 146 424 188 467 146 456 b 160 369 146 401 151 369 b 169 379 169 369 169 371 l 153 376 l 81 347 l 7 322 l -42 290 l -50 265 l -68 263 l -107 758 l -106 NaN "},"¥":{"ha":-103,"x_min":0,"x_max":0,"o":"m 817 913 b 725 933 794 922 751 932 b 622 851 675 936 667 910 b 444 622 572 785 510 707 b 250 881 374 721 294 826 b 119 929 222 914 174 922 b 35 878 75 935 58 924 b 42 804 22 854 15 825 b 96 750 65 786 72 778 b 296 492 163 671 221 597 l 182 492 b 81 481 154 492 113 481 b 65 460 58 481 64 460 b 189 460 100 460 143 460 l 186 401 l 35 401 b -67 390 7 401 -35 390 b -82 369 -89 390 -83 369 b 35 369 -49 369 -8 369 l 35 347 l 35 363 l 151 363 l 151 247 b 150 306 151 267 150 286 l 269 306 l 269 219 l 500 515 b 544 583 515 535 543 560 b 510 640 546 607 533 631 z "},"♂":{"ha":-81,"x_min":0,"x_max":0,"o":"m 540 543 l 540 765 l 596 708 b 685 656 619 685 657 654 b 758 711 717 657 742 689 b 767 764 771 728 781 746 b 563 931 753 782 636 869 b 460 986 525 961 482 983 b 428 972 444 989 435 982 b 340 931 406 969 376 960 l 211 824 b 114 740 167 788 132 761 b 238 674 115 726 181 690 b 313 713 265 665 289 689 l 372 774 l 372 768 b 372 531 374 724 374 635 b 104 238 246 506 104 378 b 414 -92 104 33 257 -89 b 518 -76 468 -93 488 -100 b 797 211 653 -71 789 29 b 540 543 806 379 683 508 z m 451 857 l 453 854 l 449 854 z m 450 75 b 281 240 353 75 281 143 b 458 392 281 325 353 375 b 622 250 539 374 621 329 b 450 75 624 136 539 75 z "},"♀":{"ha":-79,"x_min":0,"x_max":0,"o":"m 797 586 b 463 928 807 785 636 928 b 396 910 435 928 414 924 b 104 613 264 896 104 761 b 372 288 104 426 231 310 l 372 214 l 231 214 b 129 203 203 214 161 203 b 114 183 107 203 113 183 b 225 183 149 183 186 183 l 225 72 b 265 3 225 44 233 7 b 350 14 288 0 324 6 b 393 92 392 26 394 43 b 392 182 393 110 392 143 l 442 182 b 538 179 479 182 514 181 b 597 207 572 178 596 183 b 576 317 599 233 596 275 b 508 343 561 349 540 343 l 392 343 b 393 429 392 372 393 401 b 650 715 519 444 642 543 z m 133 738 b 311 889 133 822 206 872 b 475 747 392 871 474 826 b 303 572 476 633 392 572 b 133 738 206 572 133 640 z "},"∠":{"ha":307,"x_min":0,"x_max":0,"o":"m 1056 0 l 1056 189 l 492 189 l 975 743 l 825 869 l 194 138 l 194 0 z "},"⊥":{"ha":0,"x_min":0,"x_max":0,"o":"m 1068 0 l 1068 157 l 704 157 l 704 811 l 544 811 l 544 157 l 181 157 l 181 0 z "},"⌒":{"ha":296,"x_min":0,"x_max":0,"o":"m 844 781 l 1064 781 b 640 1054 979 942 846 1054 b 218 781 438 1054 300 942 l 429 781 b 644 893 474 869 564 893 b 844 781 724 893 799 867 z "},"∂":{"ha":-182,"x_min":0,"x_max":0,"o":"m 69 939 l 131 793 b 322 844 185 815 242 844 b 547 558 464 844 547 721 b 546 535 547 551 547 542 l 544 535 b 343 639 519 579 449 639 b 33 294 154 639 33 486 b 342 -15 33 154 132 -15 b 757 517 565 -15 757 168 b 343 1017 757 822 576 1017 b 69 939 208 1017 121 967 z m 365 156 b 249 293 301 156 249 206 b 392 474 249 396 306 474 b 528 372 467 474 514 419 b 365 156 514 264 451 156 z "},"∇":{"ha":296,"x_min":0,"x_max":0,"o":"m 1249 858 l 32 858 l 642 -89 z m 642 269 l 383 669 l 899 669 z "},"≡":{"ha":-224,"x_min":0,"x_max":0,"o":"m 638 576 z m 638 364 z m 638 151 z "},"≒":{"ha":-236,"x_min":0,"x_max":0,"o":"m 186 683 b 288 785 239 683 288 718 b 193 872 288 838 250 869 b 86 778 140 875 85 833 b 186 683 88 738 121 683 z m 629 476 b NaN NaN 628 507 611 549 b NaN NaN NaN NaN NaN NaN l NaN NaN z m NaN NaN b NaN NaN NaN NaN NaN NaN b NaN NaN NaN NaN NaN NaN b NaN NaN NaN NaN NaN NaN b NaN NaN NaN NaN NaN NaN l NaN NaN z m NaN NaN b NaN NaN NaN NaN NaN NaN b NaN NaN NaN NaN NaN NaN b NaN NaN NaN NaN NaN NaN b NaN NaN NaN NaN NaN NaN b NaN NaN NaN NaN NaN NaN b NaN NaN NaN NaN NaN NaN b NaN NaN NaN NaN NaN NaN z "},"§":{"ha":-239,"x_min":0,"x_max":0,"o":"m 336 -156 b 660 88 551 -156 660 -64 b 583 246 660 158 633 211 b 700 424 653 269 700 333 b 479 631 700 529 626 592 l 385 656 b 290 743 314 675 290 699 b 406 811 290 789 332 811 b 583 761 475 811 533 790 b 604 781 594 754 601 761 l 622 883 b 618 899 624 888 619 897 b 389 964 561 933 493 964 b 86 733 201 964 86 871 b 164 561 86 658 114 593 b 43 392 99 538 43 471 b 256 176 43 283 113 211 l 349 154 b 447 72 424 136 447 118 b 318 -1 447 21 399 -1 b 124 56 250 -1 185 21 b 100 32 113 61 106 56 l 79 -60 b 86 -76 78 -67 79 -74 b 336 -156 154 -124 251 -156 z m 324 507 l 390 488 b 500 388 485 460 500 433 b 411 300 500 343 467 308 l 338 319 b 236 419 251 342 236 367 b 324 507 236 461 271 501 z "},"※":{"ha":115,"x_min":0,"x_max":0,"o":"m 538 708 b 643 799 599 708 643 760 b 543 890 643 849 594 890 b 457 811 490 890 457 865 b 538 708 457 749 486 708 z m 914 119 b 650 396 863 168 758 279 b 883 650 746 501 836 600 b 913 738 924 693 933 708 b 850 782 900 756 878 771 b 778 769 821 793 803 796 b 542 514 740 729 646 628 b 308 769 438 626 344 729 b 238 783 283 797 265 794 b 174 739 210 772 188 756 b 203 651 151 713 163 694 b 436 399 249 601 340 504 b 174 119 328 282 224 169 b 167 44 147 93 129 71 b 233 13 186 31 215 18 b 339 56 282 -3 293 6 b 544 281 385 104 461 189 b 750 56 629 190 706 106 b 849 11 794 6 797 -8 b 913 46 867 18 894 33 b 914 119 949 71 942 93 z m 222 329 b 217 465 260 367 254 428 b 100 471 181 501 139 508 b 85 340 56 428 49 376 b 222 329 129 296 196 303 z m 1000 465 b 883 471 964 501 921 508 b 868 340 839 426 831 376 b 1006 329 913 299 979 303 b 1000 465 1043 367 1038 428 z m 543 81 b 457 3 490 81 457 57 b 538 -101 457 -60 486 -101 b 643 -11 599 -101 643 -49 b 543 81 643 40 594 81 z "},"☆":{"ha":296,"x_min":0,"x_max":0,"o":"m 104 561 b 131 518 107 546 119 528 b 358 326 190 465 315 369 b 285 81 340 257 296 114 b 271 36 281 68 274 53 b 274 7 269 26 269 21 b 275 -22 272 -4 271 -10 b 315 -74 279 -33 292 -53 b 503 -17 368 -119 467 -42 b 688 111 583 39 613 63 b 889 -14 757 75 826 29 b 968 -44 907 -26 944 -43 b 1036 -22 992 -46 1026 -42 l 1040 -14 b 1072 17 1053 -7 1065 3 b 1072 85 1082 36 1083 64 b 964 332 1028 168 997 246 l 978 354 b 1131 560 1028 435 1061 475 b 1163 615 1143 575 1157 593 b 1151 689 1164 621 1178 667 b 1071 701 1125 711 1103 704 b 944 689 1031 697 985 689 b 815 690 906 689 876 689 b 728 913 781 764 754 840 b 708 956 722 928 718 943 b 685 989 708 972 697 983 b 618 1007 669 996 632 1006 b 551 961 582 1011 561 996 b 463 664 526 872 496 757 b 236 674 383 667 319 668 b 158 664 215 675 176 676 b 125 618 139 651 128 639 b 104 561 111 601 100 582 z m 365 519 b 532 515 457 515 508 514 b 590 557 557 517 579 531 b 593 581 593 564 593 572 l 601 604 b 639 747 617 647 628 701 b 668 656 651 706 660 678 b 707 594 679 628 690 611 l 719 581 b 800 549 721 549 769 547 b 949 551 849 551 907 549 b 860 426 915 508 885 463 l 850 413 b 818 388 836 408 825 401 b 825 306 803 357 815 335 b 883 175 839 264 861 218 b 708 272 840 199 738 260 b 632 263 682 283 650 281 b 613 238 624 254 618 247 b 590 224 604 233 597 229 b 468 129 535 179 499 150 b 514 276 497 219 508 254 b 521 326 518 292 522 307 b 521 364 525 339 525 350 b 496 403 515 381 508 390 b 365 519 454 444 411 482 z "},"★":{"ha":296,"x_min":0,"x_max":0,"o":"m 114 560 b 140 517 117 544 129 526 b 364 329 199 465 322 371 b 292 88 346 261 304 121 b 278 44 288 76 281 61 b 281 15 276 35 276 29 b 282 -12 279 6 278 0 b 322 -62 286 -24 299 -43 b 506 -7 375 -107 469 -32 b 686 118 585 47 613 71 b 883 -4 754 82 822 38 b 961 -35 901 -17 939 -33 b 1028 -12 985 -36 1018 -32 l 1032 -4 b 1064 25 1044 3 1057 11 b 1064 92 1074 44 1075 72 b 957 335 1018 172 990 250 l 971 356 b 1121 558 1022 433 1049 478 b 1153 613 1133 572 1147 590 b 1142 685 1154 618 1167 663 b 1063 697 1117 707 1093 700 b 939 685 1022 693 978 685 b 811 686 900 685 872 685 b 726 904 778 758 747 833 b 707 946 722 918 717 933 b 683 979 707 963 696 974 b 618 996 669 985 632 994 b 553 951 583 1000 563 985 b 465 660 528 865 499 751 b 244 669 389 663 325 664 b 168 660 224 671 185 672 b 135 615 150 646 138 635 b 114 560 121 599 110 579 z "},"○":{"ha":0,"x_min":0,"x_max":0,"o":"m -115 -628 b -50 -208 -174 -485 -164 -312 b 69 -160 -15 -196 22 -175 b 503 -346 258 -97 444 -192 b 410 -757 561 -501 522 -701 b 304 -786 382 -761 347 -771 b -115 -628 157 -840 -36 -817 z "},"●":{"ha":296,"x_min":0,"x_max":0,"o":"m 536 918 b 399 856 476 907 428 889 b 147 299 188 744 96 533 b 738 -57 204 42 408 -97 b 863 -10 803 -49 842 -31 b 1135 536 1054 57 1183 300 b 536 918 1081 800 833 972 z "},"◎":{"ha":0,"x_min":0,"x_max":0,"o":"m -189 -637 b -92 -168 -246 -472 -224 -279 b 46 -119 -50 -158 -6 -135 b 525 -357 265 -61 469 -179 b 396 -814 582 -536 528 -760 b 275 -842 365 -818 325 -825 b -189 -637 106 -894 -111 -857 z m 207 -211 b 125 -215 175 -204 146 -204 b -110 -449 -3 -232 -90 -321 b 119 -743 -131 -590 -54 -700 b 192 -743 154 -751 178 -750 b 435 -519 301 -746 414 -649 b 207 -211 458 -376 368 -242 z m 17 -468 b 133 -328 28 -403 69 -343 b 189 -336 149 -332 168 -332 b 308 -500 274 -357 319 -433 b 181 -632 293 -572 236 -637 b 135 -618 169 -629 157 -622 b 17 -468 71 -607 4 -556 z "},"◇":{"ha":296,"x_min":0,"x_max":0,"o":"m 1176 424 z m 647 68 b 621 131 653 97 640 110 b 231 519 579 174 349 401 b 235 550 236 531 238 540 b 136 608 231 574 182 601 b 232 610 174 597 214 606 b 342 738 244 629 253 654 b 756 764 614 1013 667 924 b 1094 913 910 669 1003 756 b 1264 1274 1254 1010 1351 1101 b 928 1111 1096 1358 1011 1275 b NaN NaN 761 1013 667 NaN z "},"◆":{"ha":296,"x_min":0,"x_max":0,"o":"m 111 378 b 140 342 115 368 125 357 b 589 -99 215 271 525 -33 b 690 -126 614 -124 651 -135 b 729 -79 708 -122 721 -104 b 1135 329 815 3 1083 272 b 1171 407 1167 367 1171 381 b 1165 424 1171 410 1169 415 b 1140 485 1171 451 1158 464 l 757 865 b 761 896 763 876 764 886 b 665 953 757 919 710 946 b 596 929 631 958 611 944 b 125 460 536 869 194 524 b 111 378 96 429 90 400 z "},"□":{"ha":296,"x_min":0,"x_max":0,"o":"m 1121 90 b 1096 121 1115 108 1108 118 b 1269 553 1099 121 1269 124 b 1339 540 1269 550 1306 540 z m 563 574 b 568 1183 565 721 567 1024 l 1146 1179 b 1144 572 1147 1024 1146 718 b 563 574 976 571 701 572 z "},"■":{"ha":296,"x_min":0,"x_max":0,"o":"m 174 863 b 185 781 165 850 169 814 b 183 54 188 646 186 156 b 210 -36 182 6 190 -24 b 285 -28 222 -44 254 -40 l 289 -28 b 1056 -35 379 -32 942 -35 b 1124 7 1083 -35 1124 -25 b 1111 97 1124 29 1121 64 b 1088 126 1106 114 1099 124 b 1093 814 1090 294 1093 715 b 1050 882 1093 842 1082 882 l 1046 882 b 996 888 1033 888 1018 888 b 264 889 876 883 368 886 b 174 863 215 890 188 882 z "},"△":{"ha":296,"x_min":0,"x_max":0,"o":"m 1131 103 b 733 851 1040 271 863 611 l 721 874 b 686 942 724 907 713 929 b 594 961 650 960 624 964 b 553 907 571 958 556 939 b 536 825 550 876 549 850 b 133 107 446 644 253 303 b 143 -54 94 43 101 -39 b 231 -44 175 -67 203 -64 b 1031 -43 471 -33 783 -33 b 1126 -58 1058 -67 1089 -71 b 1131 103 1172 -43 1175 21 z m 350 126 b 642 674 435 276 557 500 b 925 126 736 499 850 275 b 350 126 740 131 533 131 z "},"▲":{"ha":296,"x_min":0,"x_max":0,"o":"m 143 114 b 153 -44 106 51 113 -29 b 240 -35 183 -57 211 -54 b 1021 -33 475 -24 781 -24 b 1117 -49 1050 -57 1081 -61 b 1121 110 1161 -33 1164 29 b 732 843 1032 275 858 608 l 721 861 b 685 932 725 897 711 919 b 596 951 650 950 624 954 b 554 899 572 949 557 929 b 538 818 551 868 550 842 b 143 114 450 640 260 306 z "},"▽":{"ha":296,"x_min":0,"x_max":0,"o":"m 1126 919 b 1031 904 1089 932 1058 928 b 231 906 783 894 472 894 b 143 917 203 926 176 929 b 133 756 101 901 94 819 b 536 36 253 560 446 217 b 553 -46 549 11 550 -15 b 594 -100 556 -78 571 -97 b 686 -81 624 -103 650 -99 b 719 -12 713 -68 722 -46 b 733 10 724 -7 729 1 b 1131 758 863 250 1040 590 b 1126 919 1175 840 1172 904 z m 642 186 b 350 733 557 360 435 583 b 924 733 532 729 740 729 b 642 186 849 585 736 361 z "},"▼":{"ha":296,"x_min":0,"x_max":0,"o":"m 143 749 b 538 43 260 557 450 221 b 554 -37 550 19 551 -7 b 596 -90 557 -68 572 -87 b 685 -71 624 -93 650 -89 b 719 -3 711 -58 722 -37 l 732 18 b 1121 751 858 253 1032 586 b 1117 910 1164 832 1161 894 b 1021 894 1081 922 1050 918 b 242 896 781 885 476 885 b 153 907 213 917 185 919 b 143 749 113 892 106 811 z "},"→":{"ha":254,"x_min":0,"x_max":0,"o":"m 1153 456 b 1151 493 1156 471 1154 486 b 1082 557 1142 518 1124 528 l 818 740 b 717 776 782 765 732 793 b 700 658 700 758 696 703 b 761 599 703 629 733 614 l 892 522 b 150 526 692 521 208 529 b 69 482 115 525 85 506 b 118 404 82 456 96 433 b 200 363 136 381 161 363 l 872 363 l 765 300 b 704 242 738 283 706 271 b 725 103 701 182 713 108 b 836 174 751 115 790 142 l 1082 347 b 1151 411 1121 375 1140 390 b 1153 456 1160 428 1158 443 z "},"←":{"ha":254,"x_min":0,"x_max":0,"o":"m 1118 485 b 1036 522 1100 508 1075 522 l 357 522 l 475 590 b 536 650 503 606 533 621 b 519 768 540 694 536 750 b 418 732 504 785 454 757 l 154 549 b 114 494 113 519 94 510 b NaN NaN 153 467 399 293 l NaN NaN b NaN NaN NaN NaN NaN NaN b NaN NaN NaN NaN NaN NaN b NaN NaN NaN NaN NaN NaN l NaN NaN b NaN NaN NaN NaN NaN NaN b NaN NaN NaN NaN NaN NaN b NaN NaN NaN NaN NaN NaN z "},"↑":{"ha":-172,"x_min":0,"x_max":0,"o":"m 710 639 l 526 903 b 456 972 497 944 481 963 b 418 974 449 975 433 976 b 374 972 406 979 390 981 b 303 903 353 961 331 942 l 129 657 b 65 546 97 611 75 572 b 204 525 71 533 144 522 b 263 586 233 526 246 558 l 332 704 b 328 -29 333 497 325 29 b 375 -112 329 -64 351 -97 b 461 -57 413 -97 432 -79 b 499 25 485 -39 499 -14 l 499 690 l 561 582 b 621 521 576 554 592 524 b 739 538 665 517 721 521 b 710 639 756 553 735 603 z "},"↓":{"ha":-172,"x_min":0,"x_max":0,"o":"m 606 340 b 547 279 576 339 564 307 l 478 161 b 482 894 476 368 485 836 b 435 978 481 929 458 963 b 349 922 397 963 378 944 b 311 840 325 904 311 879 l 311 175 l 249 283 b 189 344 233 311 218 342 b 71 328 144 349 89 344 b 100 226 54 313 75 263 l 283 -37 b 351 -78 313 -79 329 -97 b NaN NaN 379 -39 553 207 l NaN NaN b NaN NaN NaN NaN NaN NaN b NaN NaN NaN NaN NaN NaN z "},"↔":{"ha":347,"x_min":0,"x_max":0,"o":"m 1244 475 b 1175 542 1233 496 1213 513 l 957 713 b 846 783 914 747 872 771 b 825 644 833 778 822 704 b 886 586 826 615 858 604 l 985 522 l 340 522 l 447 590 b 508 656 475 608 506 626 b 492 775 513 700 508 757 b 390 732 476 792 425 758 l 154 551 b 115 493 114 521 94 510 b NaN NaN 153 464 371 293 l NaN NaN b NaN NaN NaN NaN NaN NaN b NaN NaN NaN NaN NaN NaN b NaN NaN NaN NaN NaN NaN l NaN NaN b NaN NaN NaN NaN NaN NaN l NaN NaN b NaN NaN NaN NaN NaN NaN b NaN NaN NaN NaN NaN NaN b NaN NaN NaN NaN NaN NaN l NaN NaN b NaN NaN NaN NaN NaN NaN b NaN NaN NaN NaN NaN NaN b NaN NaN NaN NaN NaN NaN z "},"〓":{"ha":296,"x_min":0,"x_max":0,"o":"m 1089 543 l 1089 596 l 161 596 l 161 543 z m 1089 271 l 1089 324 l 161 324 l 161 271 z "},"«":{"ha":296,"x_min":0,"x_max":0,"o":"m 858 26 l 260 419 l 851 831 l 794 908 l 140 453 l 140 389 l 807 -53 z m 1143 32 l 543 421 l 1142 829 l 1082 906 l 424 453 l 424 389 l 1093 -47 z "},"»":{"ha":296,"x_min":0,"x_max":0,"o":"m 1122 389 l 1122 453 l 467 908 l 410 831 b 1001 419 600 696 810 554 l 403 26 l 456 -53 z m 838 389 l 838 453 l 179 906 l 119 829 b 715 419 313 696 521 554 l 119 32 l 168 -47 z "},"√":{"ha":-158,"x_min":0,"x_max":0,"o":"m 536 -162 l 851 1111 l 707 1111 l 458 38 l 454 38 l 276 560 l 29 458 l 79 339 l 182 382 l 389 -162 z "},"∽":{"ha":296,"x_min":0,"x_max":0,"o":"m 1167 439 b 904 700 1167 575 1054 700 b 621 486 765 700 678 597 b 390 276 582 414 515 276 b 231 439 289 276 231 344 b 392 600 231 533 294 600 b 510 557 426 600 467 585 l 556 642 b 382 700 504 675 446 700 b 125 439 250 700 125 607 b 383 176 125 261 254 176 b 696 425 571 176 651 340 b 907 603 754 539 814 603 b 1061 439 1000 603 1061 525 b 906 272 1061 344 1000 272 b 781 321 868 272 824 290 l 736 238 b 906 175 792 197 847 175 b 1167 439 1054 175 1167 297 z "},"∝":{"ha":296,"x_min":0,"x_max":0,"o":"m 1068 558 l 1115 640 b 954 700 1064 678 1008 700 b 692 536 840 700 749 618 b 418 700 642 614 558 700 b 171 439 290 700 171 607 b 419 176 171 260 293 176 b 692 339 553 176 642 261 b 954 175 753 247 832 175 b 1108 225 1000 175 1057 197 l 1046 304 b 954 272 1008 285 979 272 b 747 438 865 272 799 343 b 954 603 803 535 869 603 b 1068 558 990 603 1031 585 z m 431 276 b 276 439 332 276 276 343 b 431 600 276 536 338 600 b 639 438 539 600 597 513 b 431 276 597 367 535 276 z "},"∵":{"ha":296,"x_min":0,"x_max":0,"o":"m 981 774 l 979 774 b 857 661 903 774 857 726 b 975 549 857 592 903 549 b 1094 661 1047 549 1094 592 b 981 774 1094 726 1047 774 z m 282 771 l 279 771 z m 636 304 l 561 304 l 561 303 z "},"∫":{"ha":-469,"x_min":0,"x_max":0,"o":"m 483 953 b 467 883 485 938 467 939 b 440 586 467 819 440 738 b 465 -26 440 361 465 211 b 428 -219 465 -137 447 -190 b 382 -224 408 -235 388 -244 b 417 -204 408 -226 407 -210 b NaN NaN 438 NaN NaN NaN z "},"∬":{"ha":-112,"x_min":0,"x_max":0,"o":"m 483 953 b 467 883 485 938 467 939 b 440 586 467 819 440 738 b 465 -26 440 361 465 211 b 428 -219 465 -137 447 -190 b 382 -224 408 -235 388 -244 b 417 -204 408 -226 407 -210 b NaN NaN 438 NaN NaN NaN z m NaN NaN b NaN NaN NaN NaN NaN NaN b NaN NaN NaN NaN NaN NaN b NaN NaN NaN NaN NaN NaN b NaN NaN NaN NaN NaN NaN b NaN NaN NaN NaN NaN NaN b NaN NaN NaN NaN NaN NaN b NaN NaN NaN NaN NaN NaN b NaN NaN NaN NaN NaN NaN b NaN NaN NaN NaN NaN NaN z "},"∈":{"ha":-76,"x_min":0,"x_max":0,"o":"m 653 358 b NaN NaN 654 396 646 433 b NaN NaN NaN NaN NaN NaN l NaN NaN b NaN NaN NaN NaN NaN NaN b NaN NaN NaN NaN NaN NaN b NaN NaN NaN NaN NaN NaN b NaN NaN NaN NaN NaN NaN b NaN NaN NaN NaN NaN NaN b NaN NaN NaN NaN NaN NaN b NaN NaN NaN NaN NaN NaN b NaN NaN NaN NaN NaN NaN l NaN NaN b NaN NaN NaN NaN NaN NaN b NaN NaN NaN NaN NaN NaN b NaN NaN NaN NaN NaN NaN b NaN NaN NaN NaN NaN NaN b NaN NaN NaN NaN NaN NaN b NaN NaN NaN NaN NaN NaN z "},"∋":{"ha":-76,"x_min":0,"x_max":0,"o":"m 465 779 b 182 781 385 779 263 778 b 107 753 147 782 113 781 b 100 651 99 713 99 678 b 167 621 101 628 129 618 b 461 625 215 625 390 626 b 651 507 554 622 625 583 l 168 507 b 100 488 136 507 106 513 b 94 386 92 450 93 413 b 156 356 96 363 121 353 b 253 358 174 357 214 358 b 651 360 346 358 531 360 b 449 232 624 272 544 232 b 165 239 349 232 222 235 b 103 211 131 242 108 236 b 96 119 94 171 94 146 b 172 78 97 85 121 78 l 472 79 b 832 433 672 79 832 194 b 465 779 832 661 671 779 z "},"⊆":{"ha":-174,"x_min":0,"x_max":0,"o":"m 51 558 b 347 293 51 374 188 293 l 660 292 b 733 332 708 292 732 299 b 726 431 735 358 736 392 b 665 458 721 454 700 464 b 603 453 647 456 621 453 l 361 453 b 232 565 281 453 229 492 b 367 663 235 629 290 663 l 560 661 b 664 658 601 661 644 660 b 729 688 701 656 728 665 b 722 799 731 714 732 760 b 650 821 717 822 683 821 l 354 821 b 51 558 182 821 51 729 z m 688 42 "},"⊇":{"ha":-179,"x_min":0,"x_max":0,"o":"m 746 558 b 443 821 746 729 615 821 l 147 821 b 75 799 114 821 81 822 b 68 688 65 760 67 714 b 133 658 69 665 96 656 b 238 661 153 660 196 661 l 431 663 b 565 565 507 663 563 629 b 436 453 568 492 517 453 l 194 453 b 132 458 176 453 150 456 b 71 431 97 464 76 454 b 64 332 61 392 63 358 b 138 292 65 299 89 292 l 450 293 b 746 558 610 293 746 374 z m 689 42 b NaN NaN 690 88 682 125 b NaN NaN NaN NaN NaN NaN "},"⊂":{"ha":-90,"x_min":0,"x_max":0,"o":"m 68 433 b 397 121 68 172 282 121 l 728 119 b 804 161 779 119 803 126 b 797 264 806 188 806 224 b 735 293 792 289 769 299 b 669 288 715 290 688 288 l 419 288 b 254 440 336 288 249 332 b 407 571 258 526 315 571 l 625 569 b 733 567 668 569 713 568 b 800 597 771 564 799 574 b 793 714 801 624 801 674 b 718 738 788 739 753 738 l 393 738 b 68 433 211 738 68 633 z "},"⊃":{"ha":-90,"x_min":0,"x_max":0,"o":"m 824 433 b 499 738 824 633 681 738 l 174 738 b 99 714 139 738 104 739 b 92 597 90 676 90 624 b 158 567 93 574 121 564 b 267 569 179 568 224 569 l 485 571 b 638 440 576 571 633 526 b 472 288 643 332 556 288 l 222 288 b 157 293 204 288 176 290 b 94 264 122 299 100 289 b 88 161 86 224 86 188 b 164 119 89 126 113 119 l 494 121 b 824 433 610 121 824 172 z "},"∪":{"ha":-181,"x_min":0,"x_max":0,"o":"m 393 39 b 711 363 611 39 711 178 l 713 754 b 671 831 713 806 706 829 b 558 824 644 832 599 832 b 529 761 533 818 526 796 b 532 357 535 696 532 496 b 389 204 532 271 492 203 b 265 357 303 206 265 268 b 271 760 265 425 268 701 b 240 826 272 797 264 825 b 113 819 214 828 153 828 b 89 744 88 814 89 779 l 89 360 b 393 39 89 178 193 39 z "},"∩":{"ha":-181,"x_min":0,"x_max":0,"o":"m 393 831 b 89 510 193 831 89 692 l 89 125 b 113 50 89 90 88 56 b 240 43 153 42 214 42 b 271 110 264 44 272 72 b 265 513 268 168 265 444 b 389 665 265 601 303 664 b 532 513 492 667 532 599 b 529 108 532 374 535 174 b 558 46 526 74 533 51 b 671 39 599 38 644 38 b 713 115 706 40 713 64 l 711 507 b 393 831 711 692 611 831 z "},"∧":{"ha":-181,"x_min":0,"x_max":0,"o":"m 744 96 b 701 206 732 121 711 179 b 522 753 667 300 556 643 b 472 811 508 799 496 808 b 413 808 451 813 433 813 b 407 811 411 810 408 811 b 329 811 392 815 353 815 b 272 747 296 806 288 792 b 53 113 226 618 114 272 b 68 49 42 82 46 51 b 185 39 104 44 143 33 b 238 103 207 42 224 61 b 397 618 260 169 344 443 b 558 103 451 449 533 178 b 613 42 575 56 586 44 b 726 49 656 38 692 42 b 744 96 749 53 757 72 z "},"∨":{"ha":-181,"x_min":0,"x_max":0,"o":"m 726 803 b 613 810 692 810 656 814 b 558 749 586 807 575 796 b 397 233 533 674 451 403 b 238 749 344 408 260 682 b 185 813 224 790 207 810 b 68 803 143 818 104 807 b 53 739 46 800 42 769 b 272 104 114 579 226 233 b 329 40 288 60 296 46 b 407 40 353 36 392 36 b 413 43 408 40 411 42 b 472 40 433 39 451 39 b 522 99 496 43 508 53 b 701 646 556 208 667 551 b 744 756 711 672 732 731 b 726 803 757 779 749 799 z "},"¬":{"ha":296,"x_min":0,"x_max":0,"o":"m 1217 -208 l 1217 235 l 32 235 l 32 133 l 1118 133 l 1118 -208 z "},"⇒":{"ha":318,"x_min":0,"x_max":0,"o":"m 903 810 l 832 739 l 829 739 l 974 596 l -1 596 l -1 493 l 1076 493 l 1157 413 l 1078 333 l -1 333 l -1 229 l 975 229 l 832 86 l 903 15 l 1297 414 z "},"⇔":{"ha":318,"x_min":0,"x_max":0,"o":"m 903 810 l 831 738 l 974 596 l 325 596 l 468 739 l 396 810 l 0 414 l 396 15 l 467 85 l 322 229 l 975 229 l 832 86 l 903 15 l 1297 414 z m 1157 413 l 1078 333 l 221 333 l 140 414 l 221 493 l 1076 493 z "},"∀":{"ha":-115,"x_min":0,"x_max":0,"o":"m 836 788 b 810 954 858 853 824 888 b 635 796 708 901 663 864 b 606 721 626 776 617 751 b 414 719 547 717 463 714 b 322 701 372 724 343 725 b 289 658 310 688 299 674 b 249 760 269 707 256 744 b 174 879 231 803 204 854 b 104 953 138 908 126 925 b 46 732 44 881 18 831 b 350 7 71 644 279 121 b 399 -26 364 -15 382 -25 b 425 -65 404 -40 413 -54 b 465 -96 436 -75 450 -86 b 546 -86 500 -118 519 -112 b 583 -42 561 -71 575 -56 b 583 -10 590 -31 592 -21 b 575 64 567 11 571 49 b 836 788 618 221 779 619 z m 447 249 l 336 535 b 376 529 350 532 364 531 b 538 526 422 524 483 524 b 447 249 506 433 474 333 z "},"∃":{"ha":-226,"x_min":0,"x_max":0,"o":"m 663 86 b 646 117 657 100 653 110 b 651 624 650 301 651 519 b 647 765 651 674 651 719 b 669 814 660 776 668 792 b 606 936 672 863 656 936 l 186 935 b 60 796 106 935 71 824 b 38 710 49 767 39 719 b 146 733 54 718 69 729 b 440 739 239 739 361 739 b 442 633 442 708 443 672 b 439 511 440 604 440 561 b 243 507 374 508 271 507 b 125 469 196 507 157 504 b 85 389 94 436 79 408 b 204 314 97 344 160 313 b 436 321 257 315 375 318 b 433 126 435 254 433 186 b 196 132 349 126 263 129 b 67 90 146 135 88 128 b 74 38 58 75 67 53 b 118 -42 82 18 100 -15 b 183 -68 138 -69 151 -71 b 493 -64 271 -60 408 -57 b 603 -69 526 -67 574 -69 b 683 -15 631 -69 683 -46 b 663 86 683 10 674 53 z "},"´":{"ha":-261,"x_min":0,"x_max":0,"o":"m 403 1017 l 290 832 b 306 801 281 817 289 803 b 408 801 340 799 374 794 b 429 813 415 803 424 806 l 571 999 b 553 1033 583 1014 572 1032 b 429 1033 511 1036 471 1038 b 403 1017 417 1032 410 1029 z "},"˜":{"ha":-261,"x_min":0,"x_max":0,"o":"m 139 831 b 221 821 164 825 194 822 b 242 842 232 821 238 829 b 282 878 250 868 263 879 b 336 857 293 878 314 869 b 435 825 364 843 397 825 b 583 981 501 824 564 872 b 572 1007 585 993 583 1003 b 493 1014 549 1018 519 1019 b 469 993 482 1011 472 1000 b 432 956 461 969 449 954 b 379 976 421 956 401 964 b 279 1010 351 990 318 1010 b 128 851 211 1011 144 967 b 139 831 126 840 129 832 z "},"ˇ":{"ha":-261,"x_min":0,"x_max":0,"o":"m 543 1028 b 463 1028 514 1032 492 1032 b 424 1000 446 1025 435 1017 l 364 911 l 300 1007 b 260 1035 288 1025 276 1032 b 169 1035 231 1040 199 1039 b 157 1000 150 1032 144 1018 l 265 844 b 329 801 288 813 300 806 b 358 803 335 801 346 801 b 393 801 371 801 386 800 b 457 844 422 806 435 813 l 561 993 b 543 1028 574 1011 563 1025 z "},"˘":{"ha":-261,"x_min":0,"x_max":0,"o":"m 364 810 b 565 992 471 810 557 892 b 532 1043 567 1010 563 1033 b 444 1021 474 1063 451 1054 b 365 932 433 968 415 932 b 281 1018 318 932 288 971 b 189 1046 278 1039 261 1064 b 157 983 157 1038 153 1010 b 364 810 175 874 253 810 z "},"˝":{"ha":-261,"x_min":0,"x_max":0,"o":"m 224 1033 l 149 801 l 292 801 l 400 1033 z m 457 1033 l 382 801 l 524 801 l 633 1033 z "},"˚":{"ha":-261,"x_min":0,"x_max":0,"o":"m 360 788 b 514 932 447 788 514 856 b 360 1079 514 1014 447 1079 b 207 932 275 1079 207 1014 b 360 788 207 856 275 788 z m 360 876 b 304 932 325 876 304 897 b 360 993 304 968 325 993 b 418 932 396 993 418 968 b 360 876 418 897 396 876 z "},"˙":{"ha":-261,"x_min":0,"x_max":0,"o":"m 278 1000 l 278 839 l 443 839 l 443 1000 z "},"¸":{"ha":-261,"x_min":0,"x_max":0,"o":"m 286 -176 l 286 -276 b 564 -121 490 -258 564 -214 b 424 -8 564 -56 514 -17 l 424 57 l 318 57 l 318 -99 b 431 -131 394 -99 431 -106 b 286 -176 431 -154 389 -168 z "},"˛":{"ha":-261,"x_min":0,"x_max":0,"o":"m 372 -276 b 465 -261 410 -276 440 -269 l 465 -153 b 408 -162 447 -158 426 -162 b 350 -125 376 -162 350 -157 b 472 29 350 -81 403 -24 l 333 29 b 204 -143 278 0 204 -60 b 372 -276 204 -225 267 -276 z "},"¡":{"ha":-539,"x_min":0,"x_max":0,"o":"m 322 857 b 332 968 347 897 356 925 b 178 981 304 1018 218 1001 b 110 854 129 956 94 910 b 272 808 126 793 183 750 b 322 857 289 819 311 839 z m 310 333 b 313 535 311 421 317 486 b 235 725 306 619 257 660 b 111 504 156 642 114 622 b 111 33 108 401 111 188 b 182 -125 111 -43 129 -72 b 307 -122 211 -154 242 -161 b 336 -54 344 -100 351 -85 b 313 69 322 -26 314 14 b 310 333 311 125 308 243 z "},"¿":{"ha":-272,"x_min":0,"x_max":0,"o":"m 447 939 b 360 960 424 957 392 968 b 260 893 328 951 276 910 b 268 781 222 856 231 818 b 393 747 300 749 347 726 b 476 893 444 769 488 826 b 447 939 474 910 464 926 z m 482 140 b 354 29 464 93 436 32 b 229 121 288 26 233 58 b 339 282 225 193 285 235 b 451 475 407 340 451 401 b 447 543 451 497 451 518 b 356 683 436 613 376 639 b 253 535 306 643 260 596 b 157 350 243 440 228 407 b 28 99 82 289 21 221 b 354 -153 36 -56 186 -160 b 653 33 494 -147 590 -76 b 658 136 674 69 690 106 b 575 192 638 156 601 181 b 500 194 554 200 524 211 b 482 140 482 182 490 163 z "},"ː":{"ha":296,"x_min":0,"x_max":0,"o":"m 767 699 l 510 699 l 638 564 z m 767 138 l 638 271 l 510 138 z "},"∮":{"ha":0,"x_min":0,"x_max":0,"o":"m 854 882 l 921 911 b 788 1000 892 971 847 1000 b 656 879 731 1000 686 951 b 594 617 628 811 607 721 b 410 415 501 597 419 529 b 568 213 400 297 475 228 b 464 -104 549 10 504 -104 b 392 -47 431 -104 408 -82 l 329 -83 b 460 -167 358 -140 403 -167 b 592 -46 515 -167 561 -118 b 651 211 619 22 639 108 b 851 415 751 225 842 296 b 679 621 861 539 779 610 b 783 938 701 822 743 938 b 854 882 817 938 839 917 z m 782 415 b 656 254 775 332 725 271 b 667 417 663 304 665 358 b 675 578 668 475 671 529 b 782 415 749 563 789 494 z m 589 572 b 581 417 585 522 582 472 b 572 256 579 358 576 304 b 479 415 508 274 472 333 b 589 572 486 493 529 550 z "},"∑":{"ha":-122,"x_min":0,"x_max":0,"o":"m 825 -267 l 825 -75 l 310 -75 l 582 317 b 329 718 500 447 410 579 l 801 718 l 801 910 l 60 910 l 60 768 b 356 301 157 614 257 456 b 35 -137 247 156 140 7 l 35 -267 z "},"∏":{"ha":-26,"x_min":0,"x_max":0,"o":"m 847 721 l 936 721 l 936 911 l 14 911 l 14 721 l 103 721 l 103 -268 l 318 -268 l 318 721 l 632 721 l 632 -268 l 847 -268 z "},"¤":{"ha":296,"x_min":0,"x_max":0,"o":"m 1068 424 b 1011 649 1068 507 1047 583 l 1178 796 l 1069 903 l 913 763 b 619 874 832 831 735 874 b 333 772 511 874 410 832 l 188 903 l 79 796 l 235 657 b 169 424 193 588 169 506 b 247 171 169 331 201 242 l 82 25 l 182 -87 b 351 60 199 -72 336 44 b 619 -28 428 3 519 -28 b 899 72 726 -28 824 10 l 1075 -87 l 1174 25 b 999 181 1163 33 1015 167 b 1068 424 1043 250 1068 338 z m 619 125 b 321 424 454 125 321 258 b 619 722 321 589 454 722 b 917 424 783 722 917 589 b 619 125 917 258 783 125 z m 182 -87 b 182 -87 179 -89 179 -89 z "},"℉":{"ha":407,"x_min":0,"x_max":0,"o":"m 217 1001 b 29 822 104 1001 31 907 z m 610 560 b 865 561 697 558 804 553 b 906 604 885 564 907 582 b 856 717 904 635 872 699 b 722 750 819 756 790 753 b 615 594 722 747 640 594 b 610 597 633 594 610 615 b 488 268 424 597 421 268 b 372 268 560 268 458 268 b 371 483 372 342 372 417 b 447 482 394 483 419 482 z m -125 504 b -197 576 -172 501 -197 539 z "},"‰":{"ha":631,"x_min":0,"x_max":0,"o":"m 201 18 b 182 -97 157 -50 150 -89 b 264 -87 207 -104 231 -101 b 371 4 303 -71 332 -54 l 951 871 b 936 944 978 911 965 926 b 861 967 906 964 888 969 b 788 900 836 964 815 942 z m 935 903 z m 1431 903 b 1517 -307 1188 160 1635 -307 b 1725 -429 1513 -307 1600 -429 b 1779 -417 1751 -429 1768 -426 b 1815 -411 1790 -417 1801 -415 b 1949 -156 1910 -383 1961 -274 b 1724 71 1936 -33 1836 71 b 1644 38 1694 71 1657 61 b 1517 -189 1569 -8 1519 -107 z m 1168 -186 z m 1664 -186 b 1724 -57 1667 -122 1699 -75 b 1803 -162 1771 -69 1800 -107 b 1744 -297 1807 -240 1783 -283 l 1729 -293 b 1664 -186 1694 -285 1660 -268 z "},"◁":{"ha":296,"x_min":0,"x_max":0,"o":"m 1110 835 b 1115 917 1124 860 1125 886 b 960 924 1097 975 1028 964 b 232 510 807 835 500 650 b 153 496 188 532 175 525 b 119 419 129 465 118 439 b 153 361 121 399 133 378 b 232 315 174 314 194 301 b 949 -90 497 171 660 63 b 1106 -79 1019 -128 1088 -124 b 1107 0 1117 -51 1117 -25 b 1110 835 1107 249 1110 583 z m 939 125 b 410 413 792 194 581 315 b 940 710 590 514 801 631 b 939 125 940 522 939 310 z "},"◀":{"ha":296,"x_min":0,"x_max":0,"o":"m 129 419 b 163 363 131 399 143 379 b 239 317 182 317 203 304 b 942 -81 500 176 658 69 b 1096 -69 1011 -117 1078 -112 b 1097 8 1107 -42 1107 -17 b 1100 826 1097 251 1100 581 b 1106 907 1114 851 1115 876 b 953 914 1088 964 1019 953 b 239 508 803 826 503 646 b 163 494 196 529 183 524 b 129 419 139 464 128 439 z "},"▷":{"ha":296,"x_min":0,"x_max":0,"o":"m 1158 422 b 1125 481 1157 443 1144 464 b 1046 526 1104 528 1083 540 b 329 932 781 671 618 779 b 172 921 258 969 190 965 b 171 842 161 893 161 867 b 168 7 171 593 168 258 b 163 -75 154 -18 153 -44 b 318 -82 181 -133 250 -122 b 1046 332 471 7 778 192 b 1125 346 1090 310 1103 317 b 1158 422 1149 376 1160 403 z m 339 717 b 868 429 486 647 697 526 b 338 132 688 328 476 211 b 339 717 338 319 339 532 z "},"▶":{"ha":296,"x_min":0,"x_max":0,"o":"m 1149 422 b 1115 479 1147 443 1135 463 b 1039 525 1096 525 1075 538 b 336 922 778 665 621 775 b 182 911 267 958 199 954 b 181 833 171 883 171 858 b 178 15 181 590 178 261 b 172 -65 164 -10 163 -35 b 325 -72 190 -122 258 -111 b 1039 333 475 15 775 196 b 1115 347 1082 313 1094 318 b 1149 422 1138 379 1150 403 z "},"♤":{"ha":296,"x_min":0,"x_max":0,"o":"m 106 381 b 408 63 93 192 211 63 b 446 71 418 63 433 65 b 397 -58 429 26 406 -33 b 451 -147 389 -83 400 -140 b 775 -157 483 -151 667 -154 b 835 -185 786 -178 810 -187 b 910 -122 886 -179 914 -147 b 854 72 906 -99 864 32 b 1175 374 1008 40 1179 200 b 733 913 1169 592 882 731 b 713 985 740 936 739 964 b 614 989 690 1003 643 1028 b 346 726 563 919 431 793 b 106 381 222 629 114 504 z m 268 381 b 439 624 275 450 340 542 b 639 800 485 663 572 736 b 1021 375 768 665 1011 525 b 857 190 1028 275 963 200 b 746 208 818 186 776 196 b 710 182 726 217 707 206 b 744 -26 717 135 729 54 l 581 -26 b 554 10 554 -26 551 -11 b 579 182 561 63 575 138 b 547 211 582 211 568 218 b 432 190 517 201 475 190 b 268 381 324 190 257 265 z "},"♠":{"ha":296,"x_min":0,"x_max":0,"o":"m 122 353 b 350 69 107 158 226 69 b 493 113 415 69 469 83 l 433 -49 b 486 -136 425 -74 436 -129 b 739 -146 518 -140 625 -143 b 797 -174 750 -167 772 -176 b 871 -111 847 -168 875 -136 b 804 113 867 -89 814 72 b 929 74 831 85 872 71 b 1157 333 1047 79 1160 178 b 739 906 1154 522 888 681 b 718 974 744 928 743 954 b 624 978 696 992 653 1015 b 360 700 572 911 443 768 b 122 353 242 603 132 475 z "},"♡":{"ha":296,"x_min":0,"x_max":0,"o":"m 146 583 b 335 210 163 433 231 311 b 542 14 408 138 474 78 b 633 -106 572 -15 603 -74 b 674 -118 650 -124 657 -143 b 696 -71 682 -106 692 -86 b 804 14 735 -42 769 -21 b 1038 281 890 96 979 182 b 1144 656 1107 399 1157 526 b 889 906 1131 794 1019 901 b 632 788 799 906 697 856 l 615 804 b 328 888 542 878 425 914 b 146 583 201 856 131 718 z m 303 647 b 364 726 308 681 332 713 b 513 686 410 747 478 724 b 601 589 547 650 569 622 b 664 565 624 567 643 550 b 710 606 679 576 694 589 b 721 661 724 621 738 638 b 867 746 775 707 817 738 b 997 658 936 757 990 721 b 907 336 1007 557 957 415 b 675 78 825 207 747 143 b 463 301 624 163 533 229 b 317 539 394 372 347 447 b 303 647 306 572 299 611 z "},"♥":{"ha":296,"x_min":0,"x_max":0,"o":"m 156 579 b 340 214 172 432 239 313 b 543 21 413 143 476 83 b 633 -96 574 -7 604 -64 b 674 -108 650 -114 657 -133 b 694 -62 681 -96 690 -76 b 801 21 733 -33 767 -12 b 1029 283 886 101 972 186 b 1135 650 1097 399 1147 524 b 885 896 1121 786 1013 892 b 632 779 796 896 696 846 l 615 796 b 333 878 543 868 429 904 b 156 579 210 846 140 711 z "},"♧":{"ha":296,"x_min":0,"x_max":0,"o":"m 817 -143 b 890 -81 868 -140 896 -108 b 829 126 886 -57 839 86 b 918 110 853 114 889 107 b 1156 368 1061 124 1153 233 b 900 614 1160 532 1029 624 b 918 742 914 643 922 696 b 649 971 908 851 786 971 b 586 953 628 971 606 967 b 344 739 454 944 360 846 b 353 624 338 690 339 651 b 122 382 231 642 122 529 b 147 286 122 347 129 315 b 364 108 149 178 244 108 b 463 128 394 108 447 119 b 407 -15 446 83 415 10 b 443 -106 399 -40 392 -99 b 757 -110 476 -110 640 -107 b 817 -143 768 -131 792 -144 z m 564 11 b 557 21 558 11 556 15 b 608 263 569 68 593 186 b 597 272 610 269 603 276 b 411 226 538 228 469 225 b 263 375 321 229 274 293 b 396 538 258 469 308 533 b 478 525 425 539 456 533 b 494 547 496 518 504 532 b 463 683 475 578 458 613 b 615 839 468 768 540 832 b 790 672 708 849 794 771 b 753 547 788 614 771 578 b 779 511 740 526 747 501 b 878 522 813 521 847 522 b 1017 378 954 522 1014 457 b 867 229 1019 292 972 229 b 693 268 803 229 728 253 b 679 258 686 272 678 267 b 724 21 686 214 701 111 b 715 11 725 15 719 11 z "},"♣":{"ha":296,"x_min":0,"x_max":0,"o":"m 121 367 b 358 114 118 211 210 114 b 506 157 406 114 464 122 b 440 -7 489 100 449 18 b 475 -96 432 -32 425 -89 b 729 -100 508 -100 615 -97 b 788 -132 740 -119 763 -133 b 860 -71 838 -129 865 -99 b 800 156 856 -47 810 117 b 961 132 850 135 908 118 b 1157 354 1065 160 1156 236 b 953 574 1158 475 1056 567 b 803 531 894 578 843 556 b 878 717 851 571 878 646 b 651 960 878 833 772 960 b 590 942 631 960 608 956 b 388 728 461 935 396 847 b 469 535 382 654 431 564 b 326 574 426 558 379 578 b 121 367 200 564 122 469 z "},"⊙":{"ha":0,"x_min":0,"x_max":0,"o":"m -167 -625 b -76 -185 -225 -478 -203 -292 b 56 -144 -36 -179 7 -162 b 511 -361 263 -68 458 -190 b 388 -801 567 -533 514 -749 b 271 -828 358 -806 319 -812 b -167 -625 108 -879 -85 -831 z m 182 -368 b 51 -467 126 -357 61 -397 b 175 -587 40 -535 107 -599 b 276 -496 221 -589 268 -549 b 182 -368 286 -435 249 -379 z "},"◈":{"ha":296,"x_min":0,"x_max":0,"o":"m 100 378 z m 254 403 b 340 404 288 389 326 400 b 451 532 354 424 361 449 b 814 800 731 807 785 813 b 892 496 826 781 847 738 b 1260 379 1128 372 1249 378 b 1299 333 1269 376 1279 374 b 1431 574 1319 296 1325 394 b 1625 988 1614 686 1725 790 b 1240 801 1432 1085 1335 989 b 1043 404 1049 689 940 588 b NaN NaN 1219 296 1325 NaN z m NaN NaN b NaN NaN NaN NaN NaN NaN l NaN NaN b NaN NaN NaN NaN NaN NaN b NaN NaN NaN NaN NaN NaN b NaN NaN NaN NaN NaN NaN b NaN NaN NaN NaN NaN NaN b NaN NaN NaN NaN NaN NaN b NaN NaN NaN NaN NaN NaN b NaN NaN NaN NaN NaN NaN b NaN NaN NaN NaN NaN NaN l NaN NaN b NaN NaN NaN NaN NaN NaN z "},"▣":{"ha":435,"x_min":0,"x_max":0,"o":"m 164 871 b 178 894 165 871 178 861 b 149 925 172 913 161 922 b NaN NaN 151 1096 154 1549 z m NaN NaN b NaN NaN NaN NaN NaN NaN l NaN NaN b NaN NaN NaN NaN NaN NaN b NaN NaN NaN NaN NaN NaN z m NaN NaN b NaN NaN NaN NaN NaN NaN b NaN NaN NaN NaN NaN NaN b NaN NaN NaN NaN NaN NaN b NaN NaN NaN NaN NaN NaN b NaN NaN NaN NaN NaN NaN b NaN NaN NaN NaN NaN NaN b NaN NaN NaN NaN NaN NaN b NaN NaN NaN NaN NaN NaN b NaN NaN NaN NaN NaN NaN l NaN NaN b NaN NaN NaN NaN NaN NaN z "},"◐":{"ha":296,"x_min":0,"x_max":0,"o":"m 450 903 b 431 1119 390 885 346 854 b -43 1714 339 1349 238 1600 b NaN NaN -326 1628 NaN NaN z m NaN NaN b NaN NaN NaN NaN NaN NaN b NaN NaN NaN NaN NaN NaN b NaN NaN NaN NaN NaN NaN b NaN NaN NaN NaN NaN NaN b NaN NaN NaN NaN NaN NaN b NaN NaN NaN NaN NaN NaN z "},"◑":{"ha":0,"x_min":0,"x_max":0,"o":"m 181 -139 l 192 -815 b -115 -628 71 -822 -56 -769 b -50 -208 -174 -485 -164 -312 b 181 -139 39 -175 93 -139 z "},"▒":{"ha":21,"x_min":0,"x_max":0,"o":"m 988 46 l 46 46 l 46 986 l 988 986 z m 161 910 b 169 917 161 931 149 917 b 203 951 192 917 203 928 b 240 956 203 938 224 956 b 275 943 254 956 275 932 b 314 953 275 932 299 953 b 349 NaN 328 953 349 NaN z m 478 NaN b 474 NaN 478 NaN 457 NaN b 478 NaN 460 NaN 478 NaN b NaN NaN 478 NaN 501 NaN z m NaN NaN b NaN NaN NaN NaN NaN NaN b NaN NaN NaN NaN NaN NaN z m NaN NaN b NaN NaN NaN NaN NaN NaN b NaN NaN NaN NaN NaN NaN b NaN NaN NaN NaN NaN NaN b NaN NaN NaN NaN NaN NaN b NaN NaN NaN NaN NaN NaN b NaN NaN NaN NaN NaN NaN z m NaN NaN b NaN NaN NaN NaN NaN NaN b NaN NaN NaN NaN NaN NaN b NaN NaN NaN NaN NaN NaN b NaN NaN NaN NaN NaN NaN z m NaN NaN z m NaN NaN b NaN NaN NaN NaN NaN NaN b NaN NaN NaN NaN NaN NaN b NaN NaN NaN NaN NaN NaN b NaN NaN NaN NaN NaN NaN b NaN NaN NaN NaN NaN NaN b NaN NaN NaN NaN NaN NaN z m NaN NaN b NaN NaN NaN NaN NaN NaN b NaN NaN NaN NaN NaN NaN b NaN NaN NaN NaN NaN NaN b NaN NaN NaN NaN NaN NaN z m NaN NaN z m NaN NaN z m NaN NaN b NaN NaN NaN NaN NaN NaN b NaN NaN NaN NaN NaN NaN b NaN NaN NaN NaN NaN NaN b NaN NaN NaN NaN NaN NaN b NaN NaN NaN NaN NaN NaN b NaN NaN NaN NaN NaN NaN b NaN NaN NaN NaN NaN NaN b NaN NaN NaN NaN NaN NaN z m NaN NaN b NaN NaN NaN NaN NaN NaN b NaN NaN NaN NaN NaN NaN b NaN NaN NaN NaN NaN NaN b NaN NaN NaN NaN NaN NaN z m NaN NaN z m NaN NaN b NaN NaN NaN NaN NaN NaN b NaN NaN NaN NaN NaN NaN b NaN NaN NaN NaN NaN NaN b NaN NaN NaN NaN NaN NaN b NaN NaN NaN NaN NaN NaN b NaN NaN NaN NaN NaN NaN z m NaN NaN z m NaN NaN b NaN NaN NaN NaN NaN NaN b NaN NaN NaN NaN NaN NaN b NaN NaN NaN NaN NaN NaN b NaN NaN NaN NaN NaN NaN b NaN NaN NaN NaN NaN NaN b NaN NaN NaN NaN NaN NaN b NaN NaN NaN NaN NaN NaN b NaN NaN NaN NaN NaN NaN z m NaN NaN b NaN NaN NaN NaN NaN NaN b NaN NaN NaN NaN NaN NaN b NaN NaN NaN NaN NaN NaN b NaN NaN NaN NaN NaN NaN z m NaN NaN z m NaN NaN z m NaN NaN z m NaN NaN b NaN NaN NaN NaN NaN NaN b NaN NaN NaN NaN NaN NaN b NaN NaN NaN NaN NaN NaN b NaN NaN NaN NaN NaN NaN b NaN NaN NaN NaN NaN NaN b NaN NaN NaN NaN NaN NaN b NaN NaN NaN NaN NaN NaN b NaN NaN NaN NaN NaN NaN b NaN NaN NaN NaN NaN NaN b NaN NaN NaN NaN NaN NaN b NaN NaN NaN NaN NaN NaN b NaN NaN NaN NaN NaN NaN b NaN NaN NaN NaN NaN NaN b NaN NaN NaN NaN NaN NaN b NaN NaN NaN NaN NaN NaN b NaN NaN NaN NaN NaN NaN z m NaN NaN z m NaN NaN b NaN NaN NaN NaN NaN NaN b NaN NaN NaN NaN NaN NaN b NaN NaN NaN NaN NaN NaN b NaN NaN NaN NaN NaN NaN b NaN NaN NaN NaN NaN NaN b NaN NaN NaN NaN NaN NaN z m NaN NaN b NaN NaN NaN NaN NaN NaN b NaN NaN NaN NaN NaN NaN b NaN NaN NaN NaN NaN NaN b NaN NaN NaN NaN NaN NaN z m NaN NaN z m NaN NaN b NaN NaN NaN NaN NaN NaN b NaN NaN NaN NaN NaN NaN b NaN NaN NaN NaN NaN NaN b NaN NaN NaN NaN NaN NaN b NaN NaN NaN NaN NaN NaN b NaN NaN NaN NaN NaN NaN b NaN NaN NaN NaN NaN NaN b NaN NaN NaN NaN NaN NaN b NaN NaN NaN NaN NaN NaN z m NaN NaN z m NaN NaN b NaN NaN NaN NaN NaN NaN b NaN NaN NaN NaN NaN NaN b NaN NaN NaN NaN NaN NaN b NaN NaN NaN NaN NaN NaN b NaN NaN NaN NaN NaN NaN b NaN NaN NaN NaN NaN NaN z m NaN NaN b NaN NaN NaN NaN NaN NaN b NaN NaN NaN NaN NaN NaN b NaN NaN NaN NaN NaN NaN b NaN NaN NaN NaN NaN NaN b NaN NaN NaN NaN NaN NaN b NaN NaN NaN NaN NaN NaN b NaN NaN NaN NaN NaN NaN z m NaN NaN z "},"▤":{"ha":0,"x_min":0,"x_max":0,"o":"m 988 892 l 46 892 l 46 986 l 988 986 z m 988 746 l 46 746 l 46 847 l 988 847 z m 988 610 l 46 610 l 46 701 l 988 701 z m 988 467 l 46 467 l 46 565 l 988 565 z m 988 322 l 46 322 l 46 422 l 988 422 z m 988 183 l 46 183 l 46 278 l 988 278 z m 988 46 l 46 46 l 46 139 l 988 139 z "},"▥":{"ha":0,"x_min":0,"x_max":0,"o":"m 140 46 l 46 46 l 46 986 l 140 986 z m 286 46 l 185 46 l 185 986 l 286 986 z m 422 46 l 331 46 l 331 986 l 422 986 z m 565 46 l 467 46 l 467 986 l 565 986 z m 710 46 l 610 46 l 610 986 l 710 986 z m 849 46 l 754 46 l 754 986 l 849 986 z m 988 46 l 893 46 l 893 986 l 988 986 z "},"▨":{"ha":0,"x_min":0,"x_max":0,"o":"m 46 540 l 46 706 l 328 986 l 493 986 z m 953 986 l 46 79 l 46 243 l 790 986 z m 46 310 l 46 474 l 560 986 l 724 986 z m 46 772 l 46 986 l 261 986 z m 988 790 l 243 46 l 79 46 l 988 954 z m 988 560 l 474 46 l 310 46 l 988 724 z m 988 329 l 704 46 l 540 46 l 988 493 z m 988 46 l 771 46 l 988 263 z "},"▧":{"ha":0,"x_min":0,"x_max":0,"o":"m 988 79 l 81 986 l 243 986 l 988 243 z m 310 986 l 474 986 l 988 474 l 988 310 z m 540 986 l 706 986 l 988 706 l 988 540 z m 772 986 l 988 986 l 988 772 z m 954 46 l 790 46 l 46 790 l 46 954 z m 724 46 l 560 46 l 46 560 l 46 724 z m 493 46 l 329 46 l 46 329 l 46 493 z m 263 46 l 46 46 l 46 263 z "},"▦":{"ha":144,"x_min":0,"x_max":0,"o":""},"▩":{"ha":-585,"x_min":0,"x_max":0,"o":"m 161 906 l 81 986 l 243 986 z m 474 986 l 392 904 l 310 986 z m 707 986 l 624 903 l 540 986 z m 861 897 l 772 986 l 951 986 z m 894 864 l 988 957 l 988 772 z m 128 872 l 46 790 l 46 954 z m 276 790 l 194 872 l 275 954 l 358 871 z m 507 789 l 425 871 l 507 953 l 590 871 z m 746 781 l 656 871 l 739 953 l 828 864 z m 1060 699 l 953 615 l 1036 696 l 1117 779 l 1035 NaN z m 1274 NaN l 1192 NaN l 1101 NaN l 1183 NaN z m 1515 NaN l 1432 NaN l 1339 NaN l 1424 NaN z m 689 NaN l 607 NaN l 607 NaN z m 919 NaN l 838 NaN l 756 NaN l 838 NaN z m 1076 NaN l 988 NaN l 1068 NaN l 1157 NaN z m 1317 NaN l 1225 NaN l 1307 NaN l 1399 NaN z m 1549 NaN l 1465 NaN l 1549 NaN z m 1868 NaN l 1124 NaN l 1043 NaN l 953 NaN l 1035 NaN z m 1283 NaN l 1192 NaN l 1272 NaN l 1367 NaN z m 1597 NaN l 1515 NaN l 1432 NaN l 1514 NaN z m 689 NaN l 689 NaN l 771 NaN z m 1008 NaN l 926 NaN l 838 NaN l 919 NaN z m 1168 NaN l 1076 NaN l 1158 NaN l 1251 NaN z m 1482 NaN l 1400 NaN l 1318 NaN l 1399 NaN z m 1631 NaN l 1549 NaN l 1631 NaN z m 893 NaN l 811 NaN l 722 NaN l 804 NaN z m 1053 NaN l 960 NaN l 1043 NaN l 1136 NaN z m 1367 NaN z m 629 NaN l 540 NaN l 540 NaN z m 790 NaN l 696 NaN l 778 NaN l 871 NaN z m 1103 NaN z m 1333 NaN l 1251 NaN l 1333 NaN z m 608 NaN l 421 NaN l 514 NaN z m 839 NaN l 674 NaN l 757 NaN z m 1069 NaN l 906 NaN l 988 NaN z m 1300 NaN l 1136 NaN l 1218 NaN z "},"♨":{"ha":296,"x_min":0,"x_max":0,"o":"m 750 397 b 694 747 721 542 647 613 b 690 975 728 839 708 935 b 669 972 683 990 669 993 b 638 843 669 943 664 897 b 608 504 600 765 535 675 b 610 203 622 474 665 332 b 599 32 578 125 586 61 b 622 33 604 19 621 17 b 664 135 624 51 636 83 b 750 397 690 188 765 315 z m 553 363 b 496 703 538 501 474 622 b 510 911 528 814 519 883 b 490 910 506 922 494 925 b 458 826 485 883 474 853 b 428 479 403 724 375 606 b 418 182 469 378 438 235 b 419 47 397 122 408 71 b 443 47 429 31 442 32 b 476 133 444 64 453 89 b 553 363 522 222 558 307 z m 933 414 b 871 707 918 553 853 579 b 854 906 886 813 869 876 b 835 903 844 926 835 919 b 817 807 835 879 829 839 b 817 483 776 711 754 624 b 781 176 857 388 814 260 b 775 39 763 133 764 65 b 794 39 781 22 790 29 b 833 140 799 56 810 94 b 933 414 864 200 944 275 z m 1206 140 b 967 335 1206 264 1021 328 b 961 313 949 339 939 319 b 1121 160 1011 297 1121 236 b 661 -11 1121 54 882 -11 b 200 131 439 -11 200 36 b 390 322 200 242 375 315 b 388 347 414 331 408 354 b 99 103 311 325 99 251 b 660 -150 99 -46 367 -150 b 1206 140 951 -150 1206 -31 z "},"☏":{"ha":296,"x_min":0,"x_max":0,"o":"m 1240 456 b 1201 671 1263 493 1253 606 b 653 840 1111 788 875 840 b 104 671 431 840 194 788 b 15 549 53 606 43 493 b 54 603 22 575 29 613 b 97 538 89 601 94 558 b 4 317 74 450 47 354 b NaN NaN -54 269 NaN NaN b NaN NaN NaN NaN NaN NaN b NaN NaN NaN NaN NaN NaN b NaN NaN NaN NaN NaN NaN l NaN NaN b NaN NaN NaN NaN NaN NaN b NaN NaN NaN NaN NaN NaN b NaN NaN NaN NaN NaN NaN b NaN NaN NaN NaN NaN NaN b NaN NaN NaN NaN NaN NaN b NaN NaN NaN NaN NaN NaN b NaN NaN NaN NaN NaN NaN b NaN NaN NaN NaN NaN NaN b NaN NaN NaN NaN NaN NaN z m NaN NaN b NaN NaN NaN NaN NaN NaN b NaN NaN NaN NaN NaN NaN b NaN NaN NaN NaN NaN NaN b NaN NaN NaN NaN NaN NaN b NaN NaN NaN NaN NaN NaN b NaN NaN NaN NaN NaN NaN b NaN NaN NaN NaN NaN NaN b NaN NaN NaN NaN NaN NaN b NaN NaN NaN NaN NaN NaN b NaN NaN NaN NaN NaN NaN b NaN NaN NaN NaN NaN NaN b NaN NaN NaN NaN NaN NaN b NaN NaN NaN NaN NaN NaN b NaN NaN NaN NaN NaN NaN z m NaN NaN l NaN NaN b NaN NaN NaN NaN NaN NaN b NaN NaN NaN NaN NaN NaN b NaN NaN NaN NaN NaN NaN b NaN NaN NaN NaN NaN NaN l NaN NaN l NaN NaN l NaN NaN l NaN NaN l NaN NaN b NaN NaN NaN NaN NaN NaN b NaN NaN NaN NaN NaN NaN b NaN NaN NaN NaN NaN NaN b NaN NaN NaN NaN NaN NaN z m NaN NaN l NaN NaN l NaN NaN b NaN NaN NaN NaN NaN NaN b NaN NaN NaN NaN NaN NaN z m NaN NaN b NaN NaN NaN NaN NaN NaN b NaN NaN NaN NaN NaN NaN b NaN NaN NaN NaN NaN NaN b NaN NaN NaN NaN NaN NaN z m NaN NaN b NaN NaN NaN NaN NaN NaN b NaN NaN NaN NaN NaN NaN b NaN NaN NaN NaN NaN NaN b NaN NaN NaN NaN NaN NaN z "},"☎":{"ha":296,"x_min":0,"x_max":0,"o":"m 1240 456 b 1201 672 1263 493 1253 607 b 653 840 1111 789 875 840 b 104 672 431 840 194 789 b 6 549 53 607 43 493 b 54 621 13 575 19 613 b 97 538 89 626 94 583 b 4 317 74 450 47 354 b NaN NaN -54 269 NaN NaN b NaN NaN NaN NaN NaN NaN b NaN NaN NaN NaN NaN NaN b NaN NaN NaN NaN NaN NaN l NaN NaN b NaN NaN NaN NaN NaN NaN b NaN NaN NaN NaN NaN NaN b NaN NaN NaN NaN NaN NaN b NaN NaN NaN NaN NaN NaN b NaN NaN NaN NaN NaN NaN b NaN NaN NaN NaN NaN NaN b NaN NaN NaN NaN NaN NaN b NaN NaN NaN NaN NaN NaN b NaN NaN NaN NaN NaN NaN z m NaN NaN l NaN NaN l NaN NaN b NaN NaN NaN NaN NaN NaN b NaN NaN NaN NaN NaN NaN z m NaN NaN b NaN NaN NaN NaN NaN NaN b NaN NaN NaN NaN NaN NaN b NaN NaN NaN NaN NaN NaN b NaN NaN NaN NaN NaN NaN z "},"☜":{"ha":296,"x_min":0,"x_max":0,"o":"m 1151 256 l 1151 583 l 1047 583 l 1047 539 l 1035 539 b 964 547 1014 539 988 542 b 664 629 879 625 769 629 l 624 629 b 225 622 469 629 276 626 b 61 568 133 617 61 615 b 233 508 61 511 154 513 b 471 499 336 503 383 501 l 475 488 b 361 432 394 488 361 472 b 411 386 361 400 386 389 b 396 350 401 376 396 367 l 396 344 b 449 299 397 317 424 299 b 426 264 436 290 426 281 b 428 254 426 261 426 257 b 504 208 435 224 471 214 b 640 201 535 204 588 201 b 772 208 690 201 740 203 b 1006 285 892 228 957 256 l 1046 285 l 1046 256 z m 1047 301 l 1019 301 l 1022 313 l 1022 314 b 1019 318 1022 317 1021 318 b 1013 314 1018 318 1015 317 b 732 228 954 276 876 240 b 706 225 722 226 714 225 b 683 228 697 225 689 226 b 701 265 686 229 701 243 b 657 313 701 290 686 306 b 678 349 669 321 678 329 l 678 357 b 635 396 675 376 661 389 b 653 435 644 404 653 418 b 650 453 653 440 651 446 b 560 488 644 475 608 488 l 581 506 b 639 496 590 503 613 497 b 671 501 649 496 663 496 b 810 408 686 481 733 433 b 904 394 838 400 878 396 b 931 401 919 394 931 397 b 803 432 931 418 876 407 b 693 504 744 451 704 488 b 713 532 706 513 713 524 b 710 538 713 535 713 538 b 654 514 704 538 686 522 b 640 513 650 513 646 513 b 597 519 625 513 607 515 b 606 533 601 524 606 529 b 600 542 606 536 603 542 b 536 496 590 542 569 508 b 506 489 522 490 513 489 b 490 497 496 489 490 493 b 493 503 490 499 492 501 b 519 536 504 510 513 521 b 550 574 528 551 536 565 b 642 607 576 590 615 604 b 688 610 653 608 668 610 b 899 569 753 610 854 599 b 979 501 938 543 964 519 b 988 493 983 496 986 493 b 990 499 989 493 990 494 b 989 508 990 500 990 504 l 986 519 b 1033 514 999 517 1018 514 b 1047 515 1039 514 1043 515 z m 571 607 b 515 564 546 599 529 583 l 486 519 b 226 531 410 521 342 525 b 85 568 124 538 85 539 b 226 601 85 596 138 599 b 571 607 351 604 481 607 z m 1129 278 l 1068 278 l 1068 560 l 1129 560 z m 624 439 b 597 408 624 418 613 411 b 479 404 571 406 524 404 b 411 406 456 404 431 404 b 383 432 393 406 383 419 l 383 435 b 410 463 383 447 393 460 b 488 467 435 465 461 467 b 596 463 522 467 557 465 b 624 439 617 461 624 450 z m 656 347 l 656 343 b 613 315 654 324 631 315 b 589 314 611 315 603 314 b 454 319 549 314 468 317 b 419 347 429 324 419 335 b 451 382 419 365 433 381 b 553 383 471 383 514 383 b 617 382 581 383 606 383 b 656 347 643 378 656 371 z m 679 269 l 679 264 b 638 229 679 242 665 231 b 576 226 619 228 599 226 b 479 235 543 226 508 229 b 454 260 464 238 456 249 l 453 265 b 479 293 453 279 463 292 b 568 296 503 294 535 296 b 636 294 592 296 615 294 b 679 269 653 294 678 289 z "},"☞":{"ha":296,"x_min":0,"x_max":0,"o":"m 1189 568 b 1025 622 1189 615 1117 617 b 626 629 974 625 781 629 l 586 629 b 286 547 481 629 371 625 b 214 539 261 542 235 539 l 203 539 l 203 583 l 99 583 l 99 256 l 204 256 l 204 285 l 244 285 b 478 208 293 256 358 228 b 608 201 510 204 560 201 b 746 208 663 201 715 204 b 822 254 779 214 815 224 l 824 264 b 801 299 824 281 814 290 b 854 344 826 299 853 317 l 854 350 b 839 386 854 367 847 376 b 889 432 864 389 889 400 b 775 488 889 472 856 488 l 779 499 b 1017 508 867 501 914 503 b 1189 568 1096 513 1189 511 z m 757 503 b 758 497 758 501 758 499 b 744 489 758 493 754 489 b 714 496 736 489 726 490 b 650 542 681 508 660 542 b 644 533 646 542 644 536 b 653 519 644 529 647 524 b 610 513 643 515 624 513 b 596 514 604 513 600 513 b 539 538 564 522 546 538 b 536 532 538 538 536 535 b 557 504 536 524 544 513 b 447 432 546 488 506 451 b 319 401 374 407 319 418 b 346 394 319 397 329 394 b 440 408 372 394 413 400 b 579 501 517 433 564 481 b 611 496 588 496 601 496 b 669 506 638 497 660 503 l 690 488 b 600 453 642 488 607 475 b 597 435 599 446 597 440 b 615 396 597 418 604 404 b 572 357 589 389 576 376 l 572 349 b 593 313 572 329 581 321 b 547 265 564 306 547 290 b 565 228 547 243 563 229 b 544 225 558 226 553 225 b 518 228 536 225 526 226 b 238 314 374 240 296 276 b 231 317 235 317 232 317 b 228 314 229 317 228 317 l 228 313 l 231 301 l 203 301 l 203 515 b 215 514 206 515 211 514 b 264 519 231 514 251 517 l 261 508 b 260 499 260 504 260 500 b 261 493 260 494 260 493 b 271 501 264 493 267 496 b 351 569 286 519 313 543 b 563 610 396 599 497 610 b 608 607 582 610 597 608 b 700 574 635 604 674 590 b 731 536 714 565 722 551 b 757 503 738 521 746 510 z m 1165 568 b 1024 531 1165 539 1126 538 b 764 519 908 525 840 521 l 735 564 b 679 607 721 583 704 599 b 1024 601 769 607 899 604 b 1165 568 1113 599 1165 596 z m 182 278 l 121 278 l 121 560 l 182 560 z m 867 435 l 867 432 b 839 406 867 419 857 406 b 769 404 818 404 794 404 b 653 408 725 404 679 406 b 626 439 638 411 626 418 b 654 463 626 450 633 461 b 761 467 692 465 728 467 b 840 463 789 467 814 465 b 867 435 857 460 867 447 z m 831 347 b 796 319 831 335 821 324 b 661 314 781 317 701 314 b 638 315 647 314 638 315 b 594 343 619 315 596 324 l 594 347 b 633 382 594 371 608 378 b 697 383 643 383 669 383 b 799 382 736 383 779 383 b 831 347 817 381 831 365 z m 796 265 l 796 260 b 771 235 794 249 786 238 b 674 226 742 229 707 226 b 613 229 651 226 631 228 b 571 264 585 231 571 242 l 571 269 b 614 294 572 289 597 294 b 682 296 635 294 658 296 b 771 293 714 296 747 294 b 796 265 788 292 796 279 z "},"¶":{"ha":-136,"x_min":0,"x_max":0,"o":"m 382 447 l 382 -210 l 518 -210 l 518 865 l 618 865 l 618 -210 l 756 -210 l 756 978 l 376 978 b 47 710 140 978 47 860 b 344 447 47 543 176 447 z "},"†":{"ha":-228,"x_min":0,"x_max":0,"o":"m 471 1011 l 285 1011 l 288 724 l 53 726 l 53 560 l 288 563 l 285 -86 l 471 -86 l 468 563 l 704 560 l 704 726 l 468 724 z "},"‡":{"ha":-228,"x_min":0,"x_max":0,"o":"m 472 1011 l 283 1011 l 286 738 l 53 740 l 53 575 l 286 578 l 286 465 l 53 468 l 53 306 l 285 310 l 282 -86 l 472 -86 l 469 310 l 704 306 l 704 468 l 469 465 l 469 578 l 704 575 l 704 740 l 469 738 z "},"↕":{"ha":-162,"x_min":0,"x_max":0,"o":"m 615 268 b 557 207 586 267 575 235 l 493 107 l 493 775 l 561 668 b 626 607 579 640 597 610 b 746 624 671 603 728 607 b 703 725 763 639 729 690 l 522 961 b 456 1031 492 1001 481 1021 b 418 1032 449 1033 433 1035 b 374 1031 406 1038 390 1039 b 307 961 353 1019 336 999 l 136 743 b 65 632 101 700 78 658 b 204 611 71 619 144 608 b 263 672 233 613 244 644 l 329 775 b 333 93 329 599 335 246 l 258 211 b 193 272 240 239 222 269 b 75 256 149 276 93 272 b 117 154 58 240 90 189 l 297 -83 b 356 -122 328 -124 339 -143 b NaN NaN 385 -85 556 135 l NaN NaN b NaN NaN NaN NaN NaN NaN b NaN NaN NaN NaN NaN NaN z "},"↗":{"ha":26,"x_min":0,"x_max":0,"o":"m 953 833 b 924 865 947 850 936 860 b 896 892 917 879 903 889 b 801 888 871 901 850 896 l 485 832 b 388 786 442 824 386 807 b 460 689 392 760 425 718 b 544 692 481 671 514 682 l 690 729 b 53 96 532 572 93 140 b 25 8 29 69 21 36 b 117 -12 54 -1 81 -8 b 204 15 146 -14 176 -11 b 789 601 263 69 626 439 l 758 482 b 757 397 750 451 738 421 b 869 314 796 351 857 310 b 899 444 879 343 890 388 l 950 740 b 953 833 958 786 960 813 z "},"↙":{"ha":26,"x_min":0,"x_max":0,"o":"m 983 876 b 892 897 954 886 928 893 b 804 869 863 899 832 896 b 219 283 746 815 382 446 l 250 403 b 251 488 258 433 271 464 b 139 571 213 533 151 575 b 110 440 129 542 118 497 l 58 144 b 56 51 50 99 49 72 b 85 19 61 35 72 25 b 113 -7 92 6 106 -4 b 207 -3 138 -17 158 -11 l 524 53 b 621 99 567 61 622 78 b 549 196 617 125 583 167 b 464 193 528 214 494 203 l 318 156 b 956 789 476 313 915 744 b 983 876 979 815 988 849 z "},"↖":{"ha":26,"x_min":0,"x_max":0,"o":"m 956 96 b 318 729 915 140 476 572 l 464 692 b 549 689 494 682 528 671 b 621 786 583 718 617 760 b 524 832 622 807 567 824 l 207 888 b 113 892 158 896 138 901 b 85 865 106 889 92 879 b 56 833 72 860 61 850 b 58 740 49 813 50 786 l 110 444 b 139 314 118 388 129 343 b 251 397 151 310 213 351 b 250 482 271 421 258 451 l 219 601 b 804 15 382 439 746 69 b 892 -12 832 -11 863 -14 b 983 8 928 -8 954 -1 b 956 96 988 36 979 69 z "},"↘":{"ha":26,"x_min":0,"x_max":0,"o":"m 950 144 l 899 440 b 869 571 890 497 879 542 b 757 488 857 575 796 533 b 758 403 738 464 750 433 l 789 283 b 204 869 626 446 263 815 b 117 897 176 896 146 899 b 25 876 81 893 54 886 b 53 789 21 849 29 815 b 690 156 93 744 532 313 l 544 193 b 460 196 514 203 481 214 b 388 99 425 167 392 125 b 485 53 386 78 442 61 l 801 -3 b 896 -7 850 -11 871 -17 b 924 19 903 -4 917 6 b 953 51 936 25 947 35 b 950 144 960 72 958 99 z "},"♭":{"ha":-264,"x_min":0,"x_max":0,"o":"m 581 369 b 419 565 581 489 508 565 b 225 433 294 565 246 492 l 225 889 l 138 889 l 138 -35 b 581 369 324 -25 581 56 z m 475 318 b 225 33 475 115 333 42 l 225 331 b 376 494 225 396 272 494 b 475 318 438 494 475 419 z "},"♩":{"ha":-443,"x_min":0,"x_max":0,"o":"m 400 160 z "},"♪":{"ha":-233,"x_min":0,"x_max":0,"o":"m 665 471 b 444 781 665 556 604 643 b 347 879 394 824 371 851 b 304 913 325 904 317 913 b 292 857 292 913 292 881 l 292 163 l 764 163 b 1006 -31 846 138 1006 90 b 868 -299 1006 -157 917 -251 b 882 -315 854 -312 861 -328 b 1031 -172 932 -286 994 -228 b 1085 1 1069 -112 1085 -54 z "},"♬":{"ha":-19,"x_min":0,"x_max":0,"o":"m 886 265 l 886 896 l 293 776 l 293 157 b 147 104 243 150 200 143 b 76 -18 110 76 76 24 b 88 -53 76 -31 79 -43 b 147 -82 103 -74 124 -82 b 256 -35 183 -82 225 -60 b 349 131 308 10 349 67 l 349 440 l 831 544 l 831 292 b 685 239 781 285 738 278 b 614 117 647 211 614 158 b 625 82 614 104 617 92 b 685 53 640 61 661 53 b 793 100 721 53 763 75 b 886 265 846 144 886 201 z m 349 572 l 349 653 l 831 756 l 831 675 z "},"㉿":{"ha":296,"x_min":0,"x_max":0,"o":"m 64 335 l 331 335 l 329 461 l 188 461 b 638 860 218 685 407 860 b 1044 610 810 860 967 764 l 1179 611 l 1169 636 b 638 986 1085 854 867 986 b 60 397 318 986 60 721 b 64 335 60 376 61 356 z m 381 608 l 382 189 l 506 189 l 506 326 l 614 406 l 740 190 l 882 190 l 715 479 l 897 610 l 688 610 l 504 479 l 504 608 z m 640 -187 b 1218 401 960 -187 1218 78 b 1215 464 1218 422 1217 443 l 899 463 l 899 338 l 1090 338 b 640 -61 1060 114 871 -61 b 235 188 469 -61 313 35 l 100 188 l 108 163 b 640 -187 201 -50 411 -187 z "},"㈜":{"ha":0,"x_min":0,"x_max":0,"o":"m 268 290 b 333 267 282 282 310 268 b 418 269 349 267 382 268 b 233 142 358 219 281 164 b 153 125 207 129 182 122 b 249 74 169 110 224 79 b 378 93 296 63 336 67 b 461 156 400 107 431 131 b 563 93 490 138 539 106 b 611 71 581 83 594 72 b 686 108 639 68 676 81 b 683 146 688 113 689 132 b 644 193 675 168 658 188 b 543 224 626 200 579 215 l 589 267 b 631 315 599 276 624 304 b 635 343 636 325 639 335 b 596 379 629 354 608 374 b 572 385 589 382 579 385 b 529 376 560 385 540 382 b 336 371 465 372 361 368 b 289 385 319 372 300 378 b 264 385 281 390 269 388 b 231 353 256 381 240 363 b 228 331 224 346 225 335 b 268 290 236 318 257 297 z m 814 -36 b 783 1 814 -22 804 -4 b 643 21 750 10 690 24 b 196 8 572 17 272 13 b 118 24 168 7 147 8 b 83 21 103 32 93 29 b 53 -24 76 15 58 -14 b 53 -46 47 -33 50 -40 b 99 -92 60 -60 75 -75 b 196 -115 129 -112 158 -118 l 369 -108 b 371 -271 368 -178 368 -247 b 410 -356 375 -304 392 -328 b 431 -394 417 -367 428 -379 b 467 -356 439 -381 458 -364 b 510 -236 499 -324 510 -283 l 510 -104 b 610 -103 554 -103 592 -103 b 708 -110 639 -103 692 -107 b 792 -76 739 -115 767 -92 b 814 -36 803 -69 814 -49 z "},"№":{"ha":379,"x_min":0,"x_max":0,"o":"m 529 950 b 450 957 514 968 472 974 b 408 915 429 942 418 931 b 397 865 390 883 390 882 b 414 731 411 831 414 806 b 408 408 414 681 411 542 l 222 835 l 215 849 b 168 918 207 872 193 892 b 67 922 136 953 93 954 b 39 836 32 879 28 871 b 50 719 47 811 50 788 b 49 214 51 585 51 389 b 63 15 46 117 50 64 b 94 -146 78 -32 108 -92 l 100 -146 b 225 217 160 -24 222 -51 b 226 422 225 268 226 340 l 382 56 b 408 8 389 38 399 21 l 413 -24 b 471 -68 418 -47 443 -68 b 560 -7 504 -68 550 -33 b 579 131 571 35 578 88 b 586 806 585 243 590 694 b 529 950 585 861 571 893 z m 903 678 b 863 671 889 678 875 675 b 772 643 832 678 804 667 b 638 342 700 588 643 457 b 822 -82 631 124 692 -15 b 994 -49 872 -108 957 -92 b 1140 307 1086 7 1139 133 b 903 678 1142 518 1039 678 z m 868 104 b 808 294 835 139 810 217 b 864 513 806 385 826 461 b 968 306 925 506 968 421 b 868 104 967 186 926 106 z m 1210 36 b 1114 -50 1151 36 1114 8 b 1203 -165 1114 -119 1146 -165 b 1319 -65 1271 -165 1319 -108 b 1210 36 1319 -8 1267 36 z "},"㏇":{"ha":379,"x_min":0,"x_max":0,"o":"m 28 429 b 319 -93 28 108 138 -93 b 553 96 444 -93 539 -42 b 583 283 561 176 571 210 b 471 164 551 246 513 200 b 344 113 421 121 382 113 b 211 429 268 114 213 247 b 346 751 210 608 265 749 b 529 646 408 754 472 703 b 524 810 524 669 521 736 b 471 900 525 849 515 863 b 333 946 432 932 390 944 b 28 429 153 949 28 749 z m 593 492 b 867 -93 561 171 678 -90 b 994 -51 939 -94 981 -68 l 1001 -47 b 1164 496 1115 31 1181 257 b 851 944 1146 738 1001 950 b 749 897 810 943 771 926 b 740 878 742 888 740 885 b 593 492 658 782 610 658 z m 774 479 b 857 746 785 618 831 706 b 988 444 928 703 983 581 b 879 115 992 290 943 135 b 774 479 801 131 758 292 z m 1203 -165 b 1319 -65 1271 -165 1319 -108 b 1210 36 1319 -8 1267 36 b 1114 -50 1151 36 1114 8 b 1203 -165 1114 -119 1146 -165 z "},"™":{"ha":0,"x_min":0,"x_max":0,"o":""},"㏂":{"ha":0,"x_min":0,"x_max":0,"o":"m -824 7 b -996 -58 -892 7 -939 -14 b -1026 -112 -1014 -72 -1035 -86 b -999 -174 -1019 -136 -1011 -150 b -946 -190 -989 -192 -969 -206 b -857 -151 -899 -160 -890 -151 b -804 -293 -814 -151 -806 -221 b -858 -279 -821 -285 -840 -279 b -1058 -506 -976 -279 -1058 -386 b -903 -758 -1058 -653 -1003 -758 b -786 -704 -854 -758 -815 -733 b -724 -776 -775 -718 -756 -737 b -661 -521 -674 -717 -661 -657 b -662 -244 -661 -435 -661 -393 b -824 7 -664 -75 -700 7 z m -917 -503 b -856 -410 -915 -443 -887 -410 b -807 -419 -839 -410 -822 -412 l -811 -546 l -811 -574 b -862 -594 -826 -586 -844 -594 b -917 -503 -893 -594 -918 -557 "},"㏘":{"ha":0,"x_min":0,"x_max":0,"o":"m -583 -339 b -842 -11 -582 -169 -682 -29 b -979 -12 -890 -6 -939 -12 b -1022 -11 -981 -12 -1014 -3 b -1036 -112 -1049 -37 -1050 -36 b -1021 -158 -1025 -149 -1028 -144 b -1019 -542 -1021 -269 -1019 -425 b -1021 -729 -1019 -621 -1019 -650 b -1008 -968 -1022 -807 -1025 -897 b -967 -1072 -1000 -1004 -969 -1039 b -882 -933 -911 -1006 -893 -979 b -869 -779 -869 -881 -869 -832 l -869 -694 b -583 -339 -697 -675 -585 -539 z m -736 -351 b -869 -531 -737 -447 -789 -511 l -869 -178 l -868 -178 b -736 -351 -787 -179 -735 -262 "},"℡":{"ha":296,"x_min":0,"x_max":0,"o":"m 1161 986 b 1104 1007 1149 1006 1121 1014 b 1025 958 1081 997 1040 972 b 1022 900 1004 940 1007 933 b 1036 817 1032 879 1036 858 b 1038 161 1036 764 1039 243 b 1114 -103 1035 10 1042 -35 b 1200 104 1151 -42 1200 0 b 1201 863 1200 236 1199 760 b 1161 986 1203 907 1193 936 z m 492 744 b 572 763 533 743 561 749 b 532 907 604 801 585 846 b 469 932 517 925 496 935 b 158 918 371 922 260 918 b 104 925 147 918 125 917 b 29 883 69 939 50 925 b 53 783 11 847 14 819 b 163 738 93 746 113 735 b 228 740 183 739 206 740 l 221 283 b 242 24 218 117 219 65 b 278 -112 274 -37 294 -67 b 361 -1 318 -85 343 -44 b 392 193 383 51 392 114 b 390 549 392 315 390 439 b 392 744 390 619 392 693 z m 969 319 b 713 674 969 521 879 683 b 478 281 556 664 478 492 b 721 -92 478 68 579 -87 b 868 -54 775 -93 835 -78 b 922 10 900 -32 915 -17 b 967 179 938 67 949 139 b 868 114 928 158 915 150 b 747 72 833 88 783 74 b 644 239 693 69 647 136 b 893 242 664 239 856 242 b 969 319 954 242 969 260 z m 643 368 b 724 521 650 454 678 518 b 810 371 774 524 797 457 b 643 368 753 374 696 371 z "},"！":{"ha":0,"x_min":0,"x_max":0,"o":""},"＂":{"ha":0,"x_min":0,"x_max":0,"o":""},"＃":{"ha":0,"x_min":0,"x_max":0,"o":""},"＄":{"ha":0,"x_min":0,"x_max":0,"o":""},"％":{"ha":296,"x_min":0,"x_max":0,"o":""},"＆":{"ha":0,"x_min":0,"x_max":0,"o":"b 379 1121 296 1006 325 1078 b 325 1260 339 1149 319 1215 b NaN NaN 369 1288 418 1289 b NaN NaN NaN NaN NaN NaN b NaN NaN NaN NaN NaN NaN "},"＇":{"ha":296,"x_min":0,"x_max":0,"o":"m 683 1024 z "},"（":{"ha":0,"x_min":0,"x_max":0,"o":""},"）":{"ha":0,"x_min":0,"x_max":0,"o":""},"＊":{"ha":0,"x_min":0,"x_max":0,"o":""},"＋":{"ha":0,"x_min":0,"x_max":0,"o":""},"，":{"ha":0,"x_min":0,"x_max":0,"o":""},"－":{"ha":0,"x_min":0,"x_max":0,"o":"b 1017 -94 296 0 1092 -94 b NaN NaN 1018 -94 904 NaN "},"．":{"ha":296,"x_min":0,"x_max":0,"o":""},"／":{"ha":296,"x_min":0,"x_max":0,"o":"m 956 915 "},"０":{"ha":296,"x_min":0,"x_max":0,"o":"m 1017 531 b 617 944 997 753 821 944 b 482 892 563 944 519 938 b 475 878 478 888 476 883 b 257 404 343 782 264 575 b 622 -97 247 158 399 -94 b 722 -71 667 -97 700 -87 b 786 -54 740 -71 763 -65 b 1017 531 961 28 1040 254 z m 660 107 b 632 118 650 113 640 115 b 474 410 550 140 471 208 b 617 751 476 565 565 708 b 810 456 731 715 804 592 b 660 107 817 274 751 138 z "},"１":{"ha":296,"x_min":0,"x_max":0,"o":"m 914 54 b 804 131 885 100 857 131 l 743 131 b 754 383 761 211 753 301 b 756 628 756 471 756 540 b 754 775 756 676 754 726 b 751 813 754 788 753 800 b 758 850 758 824 763 835 b 703 928 750 879 721 911 b 610 929 674 954 643 947 b 367 815 571 908 415 836 b 351 758 344 806 336 786 b 403 679 367 731 381 703 b 531 685 438 642 490 668 l 539 689 b 543 558 540 646 544 599 b 543 197 542 503 543 244 b 544 126 543 175 542 150 b 401 115 493 125 440 124 b 343 43 376 110 343 89 b 381 -54 343 10 365 -32 b 429 -76 396 -75 413 -78 b 644 -67 519 -69 554 -64 l 818 -74 b 933 -32 865 -75 914 -68 b 914 54 944 -11 925 36 z "},"２":{"ha":296,"x_min":0,"x_max":0,"o":"m 876 138 b 572 132 792 132 658 131 b 765 333 624 197 685 257 b 935 657 883 444 936 543 b 639 944 933 821 824 944 b 414 883 550 944 474 921 b 332 821 388 867 356 844 b 317 724 301 790 278 774 b 447 657 376 647 408 622 b 613 754 500 704 547 753 b 715 640 672 756 715 703 b 582 429 715 561 656 500 b 304 108 471 324 390 229 b 263 25 274 92 261 65 b 328 -68 264 -29 294 -69 b 836 -64 361 -67 743 -74 b 975 74 929 -54 957 28 b 1000 163 988 106 999 138 b 876 138 989 158 965 143 z "},"３":{"ha":296,"x_min":0,"x_max":0,"o":"m 960 317 b 828 497 943 406 888 463 b 917 732 896 551 926 653 b 642 944 903 850 779 949 b 363 833 538 942 465 919 b 358 706 299 779 313 746 b 485 689 406 665 431 646 b 635 767 525 721 582 765 b 721 683 690 768 722 728 b 629 547 719 638 693 590 b 510 525 594 546 561 540 b 465 432 440 506 453 474 b 571 375 486 363 507 375 b 754 247 664 375 750 328 b 586 103 758 165 692 104 b 346 182 486 101 404 158 b 265 193 325 190 289 194 b 318 60 289 171 300 124 b 397 -32 329 21 360 -11 b 768 -56 503 -90 653 -110 b 960 317 943 26 989 164 z "},"４":{"ha":296,"x_min":0,"x_max":0,"o":"m 992 314 b 876 344 958 342 935 346 b 878 718 876 453 875 611 b 890 824 879 771 885 813 b 775 950 913 867 840 961 b 654 863 731 958 717 922 b 274 383 556 769 381 529 b 239 303 253 354 242 326 b 239 207 217 276 221 236 b 361 142 272 150 310 131 b 621 156 422 154 524 156 l 658 156 b 678 -31 647 71 632 -6 b 810 -111 708 -47 772 -81 b 871 149 854 -26 865 58 b 938 142 899 147 921 144 b 1057 192 999 132 1035 164 b 992 314 1079 219 1056 263 z m 450 340 b 668 629 510 422 596 536 b 669 339 671 539 672 433 l 639 339 b 450 340 567 340 511 340 z "},"５":{"ha":296,"x_min":0,"x_max":0,"o":"m 950 271 b 653 569 946 433 815 554 b 554 569 626 572 590 571 b 585 744 563 626 576 696 b 854 756 676 742 829 750 b 918 797 883 763 907 771 b 868 899 926 817 901 863 b 750 926 835 935 815 933 b 604 922 710 922 676 922 b 489 929 550 922 519 922 b 401 919 451 938 422 942 b 368 847 381 897 372 874 b 386 782 363 811 371 793 b 347 519 371 679 353 588 b 329 407 329 493 322 453 b 393 361 332 389 360 354 b 582 388 453 374 535 389 b 738 250 674 385 738 338 b 593 104 738 169 685 104 b 361 182 486 104 428 133 b 243 221 329 206 278 218 b 307 46 267 161 288 86 b 393 -36 325 10 357 -17 b 603 -90 460 -72 528 -90 b 950 271 792 -90 956 50 z "},"６":{"ha":296,"x_min":0,"x_max":0,"o":"m 982 279 b 682 556 971 442 865 543 b 567 544 651 558 604 553 b 628 654 583 588 604 625 b 819 764 688 726 750 757 b 906 808 874 769 901 779 b 893 919 911 844 910 881 b 796 950 882 946 858 957 b 508 808 675 936 596 903 b 325 383 418 711 340 567 b 382 32 310 201 331 103 b 649 -90 438 -46 563 -96 b 790 -47 714 -86 765 -72 b 865 -12 817 -42 843 -28 b 982 279 932 36 990 157 z m 529 194 b 529 363 522 240 521 289 b 632 385 561 376 599 388 b 772 244 714 378 772 332 b 690 104 772 200 750 133 l 676 103 b 529 194 613 96 540 121 z "},"７":{"ha":296,"x_min":0,"x_max":0,"o":"m 963 915 b 883 932 949 939 936 936 b 508 919 783 924 586 919 b 425 926 478 919 451 922 b 363 915 404 929 383 926 b 314 803 329 897 315 849 b 425 722 311 733 326 711 b 621 732 472 728 546 732 l 690 732 b 518 301 611 593 564 467 b 499 161 507 261 501 210 b 533 -4 496 106 496 31 b 635 -111 564 -33 607 -69 b 701 -26 657 -97 683 -69 b 714 49 711 -3 714 24 b 721 221 714 106 710 163 b 938 742 751 379 847 625 b 983 788 967 750 978 765 b 963 915 988 804 981 883 z "},"８":{"ha":296,"x_min":0,"x_max":0,"o":"m 283 164 b 454 -43 290 69 369 -14 b 635 -97 471 -65 543 -96 b 978 183 801 -100 972 13 b 776 465 982 325 900 396 b 935 667 854 503 929 571 b 783 900 942 778 865 876 b 654 943 757 931 711 942 b 322 671 482 947 325 835 b 457 454 321 574 382 497 b 283 164 346 386 274 288 z m 521 669 b 621 769 521 722 564 769 b 706 747 654 769 682 760 b 738 653 732 724 742 693 b 621 549 733 618 704 585 b 521 669 544 582 521 615 z m 493 217 b 610 365 493 283 550 332 b 767 206 694 324 768 272 b 635 94 765 139 703 100 b 561 104 615 93 590 96 b 493 217 528 126 493 157 z "},"９":{"ha":296,"x_min":0,"x_max":0,"o":"m 954 640 b 636 943 913 828 814 943 b 542 921 599 943 565 936 b 508 914 531 921 519 918 b 304 603 363 851 306 735 b 601 294 303 419 424 292 b 761 333 663 296 718 311 b 754 275 760 311 757 292 b 607 100 739 181 714 108 b 442 154 550 96 489 119 b 296 196 410 178 333 196 b 347 69 315 168 338 107 b 603 -93 376 -42 496 -92 b 956 247 814 -96 919 40 b 954 640 975 357 979 528 z m 517 610 b 582 753 517 665 525 721 b 599 765 588 756 593 760 b 632 761 611 763 622 761 b 747 631 699 758 725 704 b 764 517 756 600 761 561 b 631 474 724 488 676 474 b 517 610 556 474 517 535 z "},"：":{"ha":296,"x_min":0,"x_max":0,"o":"m 0 -431 z "},"；":{"ha":0,"x_min":0,"x_max":0,"o":""},"＜":{"ha":296,"x_min":0,"x_max":0,"o":"m 893 64 b 851 197 889 110 882 161 b 611 435 778 283 690 371 b 749 556 660 479 722 532 b 889 718 793 594 869 660 b 881 806 907 774 892 792 b 800 861 868 821 829 860 b 731 801 769 863 764 836 b 531 621 697 767 615 693 b 439 529 488 585 457 551 b 413 522 429 529 421 526 b 350 428 388 508 361 463 b 372 371 342 401 351 388 b 571 196 458 303 492 268 b 694 78 604 165 651 114 b 818 -17 726 51 783 3 b 900 -49 851 -36 865 -40 b 893 64 890 -4 897 18 z "},"＝":{"ha":0,"x_min":0,"x_max":0,"o":""},"＞":{"ha":0,"x_min":0,"x_max":0,"o":"b 151 NaN 296 901 222 976 "},"？":{"ha":0,"x_min":0,"x_max":0,"o":"b 321 576 296 506 307 600 b 292 438 278 521 289 454 b NaN NaN 301 421 318 408 "},"＠":{"ha":296,"x_min":0,"x_max":0,"o":"m 667 975 b 243 789 514 972 326 904 b 214 744 228 768 218 756 b 65 328 139 683 58 524 b 367 -114 72 126 204 -44 b 688 -167 556 -194 646 -193 b 835 -83 731 -140 772 -108 b 917 -64 857 -75 889 -64 b 568 -11 726 8 696 -40 b 225 347 364 35 235 150 b 392 710 217 496 285 586 b 400 735 397 717 400 725 b 669 822 464 786 558 824 b 1060 461 885 818 1056 674 b 974 206 1063 351 1028 261 b 879 318 917 221 875 250 b 908 600 885 408 896 492 b 850 661 911 624 913 654 b 786 658 838 663 807 664 b 751 628 771 654 760 643 b 653 658 725 643 686 657 b 379 425 521 663 403 575 b 588 119 356 271 428 122 b 744 157 643 118 703 133 b 939 61 781 111 844 78 b 989 71 960 57 976 61 b 1046 72 1010 63 1031 61 b 1211 467 1160 158 1211 314 b 667 975 1211 744 958 981 z m 628 265 b 549 413 549 276 542 357 b 661 517 556 471 604 518 b 729 501 683 515 707 510 b 707 297 721 439 714 365 b 629 289 681 289 654 286 z "},"Ａ":{"ha":296,"x_min":0,"x_max":0,"o":"m 1024 113 b 719 838 999 200 790 724 b 671 871 706 860 688 869 b 644 910 665 885 657 899 b 604 940 633 919 619 931 b 524 931 569 963 550 957 b 486 886 508 915 494 900 b 486 854 479 875 478 865 b 494 781 503 833 499 796 b 233 57 451 622 290 225 b 260 -110 211 -8 246 -43 b 435 49 361 -57 407 -19 b 464 124 443 68 453 93 b 656 125 522 128 607 131 b 747 143 697 121 726 119 b 781 186 760 157 771 171 b 821 85 800 138 814 100 b 925 63 839 42 865 -10 b NaN NaN 951 113 924 211 z m NaN NaN b NaN NaN NaN NaN NaN NaN b NaN NaN NaN NaN NaN NaN l NaN NaN b NaN NaN NaN NaN NaN NaN z "},"Ｂ":{"ha":296,"x_min":0,"x_max":0,"o":"m 872 478 b 943 519 872 533 926 519 b 1018 550 922 519 1018 468 b NaN NaN 1018 465 1071 NaN z m NaN NaN b NaN NaN NaN NaN NaN NaN b NaN NaN NaN NaN NaN NaN b NaN NaN NaN NaN NaN NaN b NaN NaN NaN NaN NaN NaN b NaN NaN NaN NaN NaN NaN b NaN NaN NaN NaN NaN NaN b NaN NaN NaN NaN NaN NaN z "},"Ｃ":{"ha":0,"x_min":0,"x_max":0,"o":""},"Ｄ":{"ha":0,"x_min":0,"x_max":0,"o":"b 274 597 296 621 274 599 b 271 108 274 496 271 211 b 299 547 272 363 265 531 b NaN NaN 326 554 361 553 b NaN NaN NaN NaN NaN NaN b NaN NaN NaN NaN NaN NaN "},"Ｅ":{"ha":0,"x_min":0,"x_max":0,"o":"b 285 724 296 857 289 719 b 254 NaN 271 729 260 736 b 249 NaN 250 NaN 249 NaN b 253 NaN 249 NaN 249 NaN l 240 NaN l 232 NaN l 231 NaN l 650 NaN "},"Ｆ":{"ha":0,"x_min":0,"x_max":0,"o":"b 683 269 0 296 664 269 b 682 NaN 658 269 682 250 "},"Ｇ":{"ha":0,"x_min":0,"x_max":0,"o":""},"Ｈ":{"ha":0,"x_min":0,"x_max":0,"o":"b 950 293 0 296 890 293 b 949 NaN 885 293 949 NaN b 800 NaN 907 NaN 860 NaN b 775 NaN 776 NaN 764 NaN b 803 NaN 785 NaN 801 NaN b 811 NaN 808 NaN 801 NaN b 871 NaN 815 NaN 843 NaN b 976 NaN 899 NaN 938 NaN b 1017 NaN 1013 NaN 1017 NaN l 1017 NaN b 1307 NaN 1097 NaN 1207 NaN b 1306 NaN 1306 NaN 1304 NaN b 1324 NaN 1307 NaN 1313 NaN b 1351 NaN 1336 NaN 1347 NaN b 1515 NaN 1472 NaN 1513 NaN b 1518 NaN 1518 NaN 1515 NaN b 1421 NaN 1519 NaN 1500 NaN "},"Ｉ":{"ha":0,"x_min":0,"x_max":0,"o":""},"Ｊ":{"ha":0,"x_min":0,"x_max":0,"o":"b 351 1096 296 969 294 1054 b NaN NaN 450 NaN NaN NaN b NaN NaN NaN NaN NaN NaN b NaN NaN NaN NaN NaN NaN b NaN NaN NaN NaN NaN NaN b NaN NaN NaN NaN NaN NaN b NaN NaN NaN NaN NaN NaN "},"Ｋ":{"ha":0,"x_min":0,"x_max":0,"o":"b 364 1069 296 933 354 1003 b 326 1146 369 1106 354 1131 b 221 1167 308 1156 251 1168 b 182 1115 197 1165 190 1138 b 117 1004 171 1085 143 1039 b -104 757 75 950 -19 846 "},"Ｌ":{"ha":296,"x_min":0,"x_max":0,"o":"m 839 135 "},"Ｍ":{"ha":0,"x_min":0,"x_max":0,"o":"b 1088 342 0 296 1088 221 b 1086 242 1088 307 1086 240 b 1019 NaN 1086 233 1019 NaN b 1094 NaN 1019 NaN 1071 NaN b 1231 NaN 1178 NaN 1229 NaN b 1228 NaN 1232 NaN 1226 NaN b 1226 NaN 1229 NaN 1228 NaN l 1229 NaN b 1385 NaN 1307 NaN 1371 NaN b 1421 NaN 1378 NaN 1385 NaN b 1576 NaN 1499 NaN 1539 NaN b 1674 NaN 1599 NaN 1651 NaN l 1728 NaN b 1731 NaN 1728 NaN 1731 NaN b 1732 NaN 1731 NaN 1728 NaN b 1808 NaN 1739 NaN 1754 NaN b 1893 NaN 1824 NaN 1872 NaN b 1936 NaN 1914 NaN 1935 NaN b 1939 NaN 1939 NaN 1939 NaN b 1932 NaN 1939 NaN 1936 NaN b 1932 NaN 1931 NaN 1932 NaN "},"Ｎ":{"ha":0,"x_min":0,"x_max":0,"o":"b 992 -25 0 296 996 125 l 693 450 b 660 486 683 465 672 478 b 678 475 660 475 678 458 b 785 NaN 678 576 785 NaN l 1054 NaN b 1096 NaN 1065 NaN 1079 NaN "},"Ｏ":{"ha":296,"x_min":0,"x_max":0,"o":"m 1040 496 b 601 944 1014 736 800 950 b 683 986 651 965 675 985 b NaN NaN 690 989 699 992 b NaN NaN NaN NaN NaN NaN z m NaN NaN b NaN NaN NaN NaN NaN NaN l NaN NaN b NaN NaN NaN NaN NaN NaN b NaN NaN NaN NaN NaN NaN b NaN NaN NaN NaN NaN NaN b NaN NaN NaN NaN NaN NaN z "},"Ｐ":{"ha":296,"x_min":0,"x_max":0,"o":"m 657 939 b 490 882 589 938 533 913 b 435 936 475 904 454 924 b 349 932 410 953 376 944 b 306 903 333 925 318 914 b 285 838 286 886 274 863 b 311 714 304 793 310 779 b 314 322 313 647 314 428 b 324 25 314 125 314 49 b 411 -106 342 -19 392 -61 b 465 -46 426 -93 454 -61 b 526 110 501 4 524 64 b 531 244 529 149 531 196 "},"Ｑ":{"ha":0,"x_min":0,"x_max":0,"o":"b 488 517 296 1029 493 831 b 631 521 776 513 746 613 b NaN NaN 763 542 989 NaN "},"Ｒ":{"ha":0,"x_min":0,"x_max":0,"o":"b 626 282 0 296 947 282 b 494 NaN 631 282 494 NaN b 514 NaN 496 NaN 501 NaN b 565 NaN 528 NaN 558 NaN b 711 NaN 658 NaN 704 NaN b 790 NaN 711 NaN 731 NaN b 957 NaN 867 NaN 957 NaN b NaN NaN 957 NaN 1024 NaN "},"Ｓ":{"ha":0,"x_min":0,"x_max":0,"o":""},"Ｔ":{"ha":0,"x_min":0,"x_max":0,"o":"b 57 NaN 296 1018 51 1140 l NaN NaN b NaN NaN NaN NaN NaN NaN b NaN NaN NaN NaN NaN NaN b NaN NaN NaN NaN NaN NaN b NaN NaN NaN NaN NaN NaN b NaN NaN NaN NaN NaN NaN "},"Ｕ":{"ha":0,"x_min":0,"x_max":0,"o":""},"Ｖ":{"ha":0,"x_min":0,"x_max":0,"o":""},"Ｗ":{"ha":296,"x_min":0,"x_max":0,"o":"m 1275 879 b 1215 922 1267 901 1236 915 b 1139 939 1197 928 1157 938 b 1038 857 1075 944 1057 907 b 1015 783 1031 839 1019 800 b 896 333 1000 721 946 521 b 785 775 849 510 797 729 b 722 903 764 854 744 878 b 635 940 699 929 668 947 b 563 900 604 933 586 921 b 547 856 547 886 540 876 l 550 847 b 525 769 538 829 535 804 b 414 365 510 717 438 457 l 400 313 b 394 332 397 318 396 325 b 246 888 349 515 294 754 b 157 947 233 922 197 953 b 36 911 125 943 64 929 b 0 860 17 899 0 890 b 18 815 0 835 4 824 b 58 750 39 803 40 796 b 136 492 97 650 108 601 b 253 65 175 336 217 192 b 301 -25 264 29 276 -4 b 350 -65 304 -44 318 -56 b 489 -15 453 -99 467 -64 b 613 365 511 33 582 253 b 649 507 622 400 635 450 b 783 49 682 385 750 139 b 806 -3 792 26 799 10 b 899 -78 801 -39 825 -68 b 1013 -3 960 -86 989 -61 b 1163 525 1036 56 1132 419 b 1221 729 1182 593 1197 658 b 1253 807 1229 754 1242 783 b 1275 879 1264 831 1285 854 z "},"Ｘ":{"ha":296,"x_min":0,"x_max":0,"o":"m 994 150 l 781 449 b 897 631 825 518 865 579 b 999 788 929 682 971 746 b 971 910 1025 828 1018 883 b 831 936 919 939 853 944 b 750 804 804 926 772 849 b 649 631 726 756 692 694 l 465 890 b 308 1060 433 938 367 978 b -76 957 193 1144 69 1056 b -350 828 -221 899 -299 860 b -422 897 -382 793 -383 835 b -457 1068 -454 958 -456 1019 b -325 1210 -443 1106 -387 1147 b NaN NaN -225 1276 -121 NaN b NaN NaN NaN NaN NaN NaN b NaN NaN NaN NaN NaN NaN b NaN NaN NaN NaN NaN NaN z "},"Ｙ":{"ha":296,"x_min":0,"x_max":0,"o":"m 1053 913 b 958 935 1031 922 985 932 b 869 851 908 940 901 918 b 683 513 831 769 749 621 l 581 714 b 714 644 581 674 661 644 b 722 654 690 644 722 618 b 735 551 722 606 728 551 b 696 524 690 551 696 535 b 626 488 696 500 650 488 b 586 497 618 488 586 515 b 561 525 586 526 567 525 b 547 499 581 525 547 560 b 393 576 547 543 454 576 b 369 532 422 576 369 647 b NaN 681 369 611 368 681 "},"Ｚ":{"ha":296,"x_min":0,"x_max":0,"o":"m 893 135 b 565 136 781 138 664 136 b 926 706 707 322 875 581 b 939 749 933 722 938 736 l 964 771 b 975 840 990 797 989 813 b 926 914 963 865 949 892 b 886 931 919 921 907 932 b 435 922 839 928 499 922 b 378 929 421 922 394 925 b 333 892 361 933 343 910 b 307 804 318 864 308 835 b 332 756 306 782 311 764 b 465 731 381 736 418 729 b 717 732 514 732 622 733 b 399 256 635 596 444 313 b 281 114 333 174 304 142 b 272 -36 247 75 229 3 b 400 -53 308 -69 357 -82 b 835 -67 493 -57 749 -72 b 997 53 935 -60 982 18 b 1026 151 1013 86 1025 129 b 893 135 1008 142 961 133 z "},"［":{"ha":0,"x_min":0,"x_max":0,"o":""},"￦":{"ha":296,"x_min":0,"x_max":0,"o":"m 1250 558 b 1160 601 1217 597 1213 600 b 1136 603 1151 601 1143 601 b 1150 667 1140 626 1146 649 b 1231 872 1171 750 1183 800 b 1078 938 1265 925 1147 961 b 1051 918 1069 935 1058 928 b 1003 813 1032 890 1015 857 b 947 613 985 750 964 678 b 796 618 907 614 856 617 l 790 643 b 753 858 774 713 768 800 b 719 917 747 879 735 904 b 626 932 692 939 653 933 b 575 913 607 931 583 921 b 565 874 565 903 564 890 b 554 863 561 871 558 867 b 533 818 544 850 538 835 b 485 611 517 750 499 681 l 338 607 l 333 629 b 239 878 315 721 288 799 b 179 935 224 903 206 925 b 101 922 150 946 128 936 l 90 917 b 50 892 76 913 58 904 b 44 818 36 871 35 842 b 81 774 54 794 69 807 b 124 639 93 736 114 676 l 135 597 b 122 596 129 596 125 596 b 74 593 108 594 90 593 b 18 579 51 593 35 601 b 14 506 3 558 7 529 b 67 431 24 475 39 463 b 140 407 97 394 117 397 b 179 415 151 411 165 414 l 233 176 b 285 13 246 119 265 68 b 329 -68 294 -15 306 -50 b 397 -74 351 -86 376 -85 l 399 -74 b 497 -61 433 -74 474 -79 b 535 24 521 -43 529 -3 b 596 310 556 121 578 214 b 618 431 604 350 611 390 b 649 432 629 431 639 431 b 744 39 683 271 722 110 b 801 -33 764 -24 774 -31 b 886 -83 808 -50 829 -65 b 1021 83 949 -104 994 -6 b 1089 367 1061 217 1064 244 b 1099 418 1092 381 1096 399 l 1149 414 b 1263 500 1199 410 1238 451 b 1250 558 1275 524 1271 533 z m 871 256 b 835 431 860 311 851 363 b 908 428 860 431 885 429 b 871 256 897 369 885 314 z m 419 219 b 396 346 413 267 406 311 b 376 422 389 371 382 396 l 453 425 z "},"］":{"ha":0,"x_min":0,"x_max":0,"o":""},"＾":{"ha":0,"x_min":0,"x_max":0,"o":"b 217 978 296 924 275 943 b 86 875 174 931 135 881 b 219 839 115 851 167 839 b 369 917 288 839 343 875 l 414 985 b 425 969 418 981 421 975 b 556 850 465 911 493 872 b 671 865 626 825 657 844 b 676 917 679 878 685 893 "},"＿":{"ha":296,"x_min":0,"x_max":0,"o":"m 336 -19 b 374 -93 350 -51 354 -67 b 411 -119 381 -103 399 -118 b 457 -111 424 -121 440 -112 b 506 -111 469 -110 490 -111 "},"｀":{"ha":0,"x_min":0,"x_max":0,"o":""},"ａ":{"ha":0,"x_min":0,"x_max":0,"o":""},"ｂ":{"ha":0,"x_min":0,"x_max":0,"o":"b 976 406 0 296 978 406 b 1068 NaN 1069 406 1068 436 b 1011 NaN 1065 NaN 1047 NaN b 765 NaN 904 NaN 850 NaN b 833 NaN 778 NaN 807 NaN b 1015 NaN 882 NaN 951 NaN b 1335 NaN 1197 NaN 1342 NaN m 994 NaN b 897 NaN 960 NaN 925 NaN l 897 NaN b 899 NaN 899 NaN 899 NaN b 979 NaN 926 NaN 954 NaN b 1125 NaN 1075 NaN 1121 NaN b 994 NaN 1129 NaN 1081 NaN z "},"ｃ":{"ha":0,"x_min":0,"x_max":0,"o":"b 269 749 296 658 286 704 b 226 825 250 788 238 813 b NaN NaN 210 833 NaN NaN b NaN NaN NaN NaN NaN NaN b NaN NaN NaN NaN NaN NaN b NaN NaN NaN NaN NaN NaN "},"ｄ":{"ha":0,"x_min":0,"x_max":0,"o":""},"ｅ":{"ha":0,"x_min":0,"x_max":0,"o":"b 840 238 0 296 696 238 b 499 236 721 238 499 383 b NaN NaN 499 428 494 NaN "},"ｆ":{"ha":296,"x_min":0,"x_max":0,"o":"m 904 478 b 835 547 883 504 861 533 b 767 558 818 556 793 558 l 685 556 b 686 790 683 633 683 719 b 778 721 724 767 749 744 b 849 722 803 700 824 690 b 890 818 867 746 883 779 b 872 867 896 849 890 854 b 718 974 821 903 772 943 b 604 990 681 994 653 1006 b 499 903 568 979 499 950 b 490 769 501 872 492 813 l 490 768 l 444 768 l 444 767 l 365 767 l 365 682 l 315 682 l 315 468 b 338 351 315 429 322 386 "},"ｇ":{"ha":0,"x_min":0,"x_max":0,"o":"b 1264 -36 296 0 1264 -83 b NaN NaN 1264 71 1254 NaN b NaN NaN NaN NaN NaN NaN b NaN NaN NaN NaN NaN NaN b NaN NaN NaN NaN NaN NaN b NaN NaN NaN NaN NaN NaN b NaN NaN NaN NaN NaN NaN "},"ｈ":{"ha":0,"x_min":0,"x_max":0,"o":"b 990 274 0 296 956 274 b 986 215 947 274 986 276 b 447 458 986 215 450 331 b 574 508 492 490 529 511 b 676 392 640 506 675 458 b 676 176 678 336 681 250 b 701 26 674 118 676 68 b 746 -65 722 -8 738 -40 b 882 200 839 -8 882 54 b 879 481 882 306 883 397 "},"ｉ":{"ha":0,"x_min":0,"x_max":0,"o":""},"ｊ":{"ha":0,"x_min":0,"x_max":0,"o":"b 617 282 0 296 594 282 b 507 133 586 282 586 140 b 429 49 503 88 485 53 b 363 126 407 47 386 53 b 351 304 350 189 339 250 b 471 400 388 347 417 385 b NaN NaN 540 NaN NaN NaN b NaN NaN NaN NaN NaN NaN b NaN NaN NaN NaN NaN NaN b NaN NaN NaN NaN NaN NaN "},"ｋ":{"ha":296,"x_min":0,"x_max":0,"o":"m 925 89 b 717 335 878 132 788 242 b 917 525 796 401 882 482 b 892 651 963 582 960 615 b 796 661 842 678 822 675 b 701 569 758 642 746 608 b 554 451 671 542 611 494 b 557 881 556 610 557 771 b 510 996 557 922 542 967 b 390 1000 474 1028 431 1015 b 331 919 358 988 314 961 b 349 835 343 888 349 861 b 342 199 349 744 342 290 b 338 NaN 253 200 199 217 l NaN NaN b NaN NaN NaN NaN NaN NaN b NaN NaN NaN NaN NaN NaN b NaN NaN NaN NaN NaN NaN b NaN NaN NaN NaN NaN NaN z "},"ｌ":{"ha":296,"x_min":0,"x_max":0,"o":"m 617 -100 b 661 -51 628 -82 646 -65 b 735 104 711 -6 735 33 l 733 715 b 736 864 733 765 735 814 b 676 994 738 915 713 956 b 614 1018 656 1017 636 1024 b 514 963 586 1011 529 979 b 510 900 493 940 496 925 b 526 818 526 869 526 849 l 526 654 "},"ｍ":{"ha":0,"x_min":0,"x_max":0,"o":"b 289 1078 296 1101 304 1060 b 165 NaN 246 1083 218 1082 b 161 NaN 163 NaN 158 NaN b 219 NaN 165 NaN 176 NaN b 285 NaN 236 NaN 264 NaN b 364 NaN 356 NaN 361 NaN b 367 NaN 365 NaN 367 NaN b 365 NaN 367 NaN 367 NaN b 99 NaN 379 NaN 200 NaN b NaN NaN 96 NaN NaN NaN "},"ｎ":{"ha":296,"x_min":0,"x_max":0,"o":"m 950 426 b 1074 446 950 406 1074 353 b 1097 253 1074 321 1097 238 b 1067 -79 1097 164 1067 -15 b 1096 -232 1067 -128 1069 -189 b 1143 -322 1114 -261 1129 -290 b 1272 -151 1192 -297 1265 -218 b 1211 167 1282 -54 1276 54 b NaN NaN 1196 256 NaN NaN z "},"ｏ":{"ha":296,"x_min":0,"x_max":0,"o":"m 660 678 b 603 669 639 678 621 675 z m 531 504 l 497 504 l 497 513 l 468 513 l 468 508 l 411 508 l 411 478 l 326 478 l 326 432 l 232 432 l 232 300 l 225 300 l 225 176 l 215 176 l 215 6 l 269 6 l 269 -174 l 481 -174 l 481 -247 l 483 -247 l 483 -260 b 389 -69 426 -219 392 -147 b 476 149 385 22 413 94 z "},"ｐ":{"ha":0,"x_min":0,"x_max":0,"o":""},"ｑ":{"ha":0,"x_min":0,"x_max":0,"o":"b 879 300 0 296 946 300 b 879 229 875 300 879 76 b 951 125 879 131 1035 125 b 867 NaN 950 125 867 NaN b 788 NaN 840 NaN 813 NaN "},"ｒ":{"ha":0,"x_min":0,"x_max":0,"o":""},"ｓ":{"ha":0,"x_min":0,"x_max":0,"o":"b 693 347 639 296 607 347 b NaN NaN 663 347 751 NaN "},"ｔ":{"ha":296,"x_min":0,"x_max":0,"o":"m 806 150 b 708 119 779 138 742 129 b 706 267 706 160 706 236 b 710 443 706 325 708 385 b 826 436 754 442 796 440 b 914 507 860 432 888 467 b 911 556 922 519 922 539 b 817 618 882 599 863 613 b 715 625 789 621 754 624 b 715 732 717 664 718 699 b 651 850 713 781 692 817 b 590 865 635 864 610 871 b 588 810 589 853 589 833 b 451 792 532 806 483 800 b 413 722 424 785 410 743 b NaN NaN 433 724 454 725 l NaN NaN b NaN NaN NaN NaN NaN NaN b NaN NaN NaN NaN NaN NaN b NaN NaN NaN NaN NaN NaN b NaN NaN NaN NaN NaN NaN b NaN NaN NaN NaN NaN NaN b NaN NaN NaN NaN NaN NaN b NaN NaN NaN NaN NaN NaN z "},"ｕ":{"ha":0,"x_min":0,"x_max":0,"o":"b 1251 21 296 0 1251 -29 b NaN NaN 1251 101 1246 NaN "},"ｖ":{"ha":0,"x_min":0,"x_max":0,"o":""},"ｗ":{"ha":0,"x_min":0,"x_max":0,"o":""},"ｘ":{"ha":0,"x_min":0,"x_max":0,"o":""},"ｙ":{"ha":0,"x_min":0,"x_max":0,"o":"b 289 944 296 972 303 910 b 169 1043 263 964 229 993 b -390 1171 68 1157 -236 1208 l -437 NaN b -612 NaN -493 NaN -553 NaN b -737 NaN -662 NaN -708 NaN b -608 NaN -686 NaN -632 NaN b -497 NaN -576 NaN -560 NaN b -240 NaN -383 NaN -301 NaN b -117 NaN -182 NaN -162 NaN b 74 NaN -25 NaN 64 NaN b 46 NaN 81 NaN 71 NaN "},"ｚ":{"ha":0,"x_min":0,"x_max":0,"o":""},"｛":{"ha":0,"x_min":0,"x_max":0,"o":""},"｜":{"ha":0,"x_min":0,"x_max":0,"o":""},"｝":{"ha":0,"x_min":0,"x_max":0,"o":"b 314 682 296 604 310 629 "},"‾":{"ha":296,"x_min":0,"x_max":0,"o":"m 1278 960 l 1278 1090 l 0 1090 l 0 960 z "},"ㄱ":{"ha":-10,"x_min":0,"x_max":0,"o":"m 107 669 b 121 604 94 643 93 628 b 300 536 167 565 224 538 b 621 540 361 535 522 539 b 621 381 621 475 622 415 b 624 161 618 285 607 214 b 683 25 646 93 664 64 b 838 335 801 118 831 228 b 842 617 842 414 842 536 b 817 599 853 617 867 603 b 589 588 753 593 654 589 b 443 601 528 586 476 589 b 383 592 410 614 397 610 b 346 524 374 579 353 539 z "},"ㄲ":{"ha":-94,"x_min":0,"x_max":0,"o":"b 92 951 129 964 108 963 b -8 938 79 942 36 938 b -112 940 -50 942 -92 946 b -165 926 -147 904 -154 917 b -258 963 -183 935 -215 949 b NaN NaN -283 961 NaN NaN b NaN NaN NaN NaN NaN NaN l NaN NaN l NaN NaN l NaN NaN l NaN NaN l NaN NaN l NaN NaN b NaN NaN NaN NaN NaN NaN b NaN NaN NaN NaN NaN NaN b NaN NaN NaN NaN NaN NaN b NaN NaN NaN NaN NaN NaN b NaN NaN NaN NaN NaN NaN b NaN NaN NaN NaN NaN NaN b NaN NaN NaN NaN NaN NaN "},"ㄳ":{"ha":0,"x_min":0,"x_max":0,"o":"b -74 -61 -24 -32 -46 -50 b -19 81 -47 -21 -29 26 b NaN NaN -11 124 -8 350 b NaN NaN NaN NaN NaN NaN "},"ㄴ":{"ha":-10,"x_min":0,"x_max":0,"o":"m 843 311 b 714 288 807 300 769 292 b 349 279 628 281 476 279 b 354 585 350 379 351 549 b 315 686 357 631 344 660 b 231 750 283 714 257 733 b 172 754 213 761 186 764 b 100 689 154 742 108 703 b 106 635 89 671 89 657 b 138 533 128 604 133 572 b 138 257 140 508 139 331 b 115 160 117 233 110 197 b 228 85 121 114 175 83 b 644 85 326 88 536 89 b 846 176 747 81 794 99 b 885 260 854 189 878 240 b 843 311 893 285 865 318 z "},"ㄵ":{"ha":129,"x_min":0,"x_max":0,"o":"m 1010 268 b 893 378 992 289 938 339 b 989 601 932 453 965 531 b 982 688 1004 647 1010 671 b 897 717 947 708 919 721 b 833 707 881 714 844 710 b 706 696 806 700 744 693 b 621 707 685 697 657 697 b 564 644 586 717 585 690 b 563 583 550 614 549 597 b 671 535 592 554 631 538 b 772 536 696 533 733 529 b 551 185 757 460 617 236 l 546 181 b 564 251 553 200 560 224 b 522 292 568 276 544 299 b 393 272 486 281 449 276 l 356 269 b 628 344 453 271 628 292 b 633 453 626 392 625 426 b 624 538 657 481 639 514 b 629 676 621 583 615 644 b 724 754 663 700 688 728 b NaN NaN 765 796 700 NaN l NaN NaN z "},"ㄶ":{"ha":15,"x_min":0,"x_max":0,"o":"l 0 129 l 1040 129 l 1040 718 l 1072 718 l 1072 718 l 1107 718 l 1107 749 l 1082 749 b 1028 NaN 1081 713 1049 713 b 1126 NaN 1056 NaN 1088 NaN l 1146 NaN b 1075 NaN 1103 NaN 1075 NaN b 1138 NaN 1075 NaN 1103 NaN b 1281 NaN 1158 NaN 1221 NaN b 1510 NaN 1406 NaN 1511 NaN b 1454 NaN 1510 NaN 1488 NaN l 1536 NaN m 1006 NaN b 953 NaN 1026 NaN 990 NaN b NaN NaN 897 NaN NaN NaN b NaN NaN NaN NaN NaN NaN b NaN NaN NaN NaN NaN NaN b NaN NaN NaN NaN NaN NaN b NaN NaN NaN NaN NaN NaN b NaN NaN NaN NaN NaN NaN b NaN NaN NaN NaN NaN NaN b NaN NaN NaN NaN NaN NaN z m NaN NaN b NaN NaN NaN NaN NaN NaN b NaN NaN NaN NaN NaN NaN b NaN NaN NaN NaN NaN NaN b NaN NaN NaN NaN NaN NaN b NaN NaN NaN NaN NaN NaN z "},"ㄷ":{"ha":-10,"x_min":0,"x_max":0,"o":"m 842 293 b 721 279 811 286 772 282 b 351 272 635 275 479 274 b 353 547 350 354 350 478 b 685 547 451 546 618 547 b 828 618 783 547 826 585 b 765 711 829 643 796 678 b 692 747 746 732 719 750 b 574 736 661 744 625 739 b 306 725 492 732 339 724 b 218 742 263 726 247 731 b 164 736 199 749 179 751 b 124 682 150 722 132 694 b 119 628 111 663 106 647 b 143 601 126 618 135 608 b 142 251 147 511 146 344 b 122 226 132 243 125 235 b 232 338 171 243 219 318 b 265 424 251 378 258 400 b NaN NaN 239 442 222 438 z "},"ㄸ":{"ha":0,"x_min":0,"x_max":0,"o":"b 111 935 129 957 119 947 b 64 976 106 922 76 958 b NaN NaN 14 969 NaN NaN b NaN NaN NaN NaN NaN NaN b NaN NaN NaN NaN NaN NaN b NaN NaN NaN NaN NaN NaN b NaN NaN NaN NaN NaN NaN b NaN NaN NaN NaN NaN NaN b NaN NaN NaN NaN NaN NaN b NaN NaN NaN NaN NaN NaN b NaN NaN NaN NaN NaN NaN b NaN NaN NaN NaN NaN NaN b NaN NaN NaN NaN NaN NaN b NaN NaN NaN NaN NaN NaN b NaN NaN NaN NaN NaN NaN l NaN NaN m NaN NaN b NaN NaN NaN NaN NaN NaN l NaN NaN b NaN NaN NaN NaN NaN NaN l NaN NaN b NaN NaN NaN NaN NaN NaN b NaN NaN NaN NaN NaN NaN b NaN NaN NaN NaN NaN NaN b NaN NaN NaN NaN NaN NaN z "},"ㄹ":{"ha":-10,"x_min":0,"x_max":0,"o":"m 851 210 b 740 246 832 253 792 249 b 324 239 664 242 474 240 l 325 340 b 747 338 479 342 692 342 b 814 386 782 335 808 367 b 799 472 824 417 819 451 b 803 622 799 515 800 576 l 817 633 b 832 689 826 643 831 682 b 818 390 829 642 825 443 b 840 293 825 344 831 314 b 854 242 847 269 856 254 b NaN NaN 840 NaN NaN NaN b NaN NaN NaN NaN NaN NaN b NaN NaN NaN NaN NaN NaN b NaN NaN NaN NaN NaN NaN b NaN NaN NaN NaN NaN NaN l NaN NaN b NaN NaN NaN NaN NaN NaN b NaN NaN NaN NaN NaN NaN b NaN NaN NaN NaN NaN NaN b NaN NaN NaN NaN NaN NaN b NaN NaN NaN NaN NaN NaN b NaN NaN NaN NaN NaN NaN b NaN NaN NaN NaN NaN NaN b NaN NaN NaN NaN NaN NaN b NaN NaN NaN NaN NaN NaN b NaN NaN NaN NaN NaN NaN b NaN NaN NaN NaN NaN NaN b NaN NaN NaN NaN NaN NaN z "},"ㄺ":{"ha":-43,"x_min":0,"x_max":0,"o":"b 92 964 129 978 107 976 b 10 951 81 953 46 951 b -86 954 -24 956 -65 960 b -126 911 -122 917 -125 914 b NaN NaN -129 910 -133 915 l NaN NaN b NaN NaN NaN NaN NaN NaN b NaN NaN NaN NaN NaN NaN l NaN NaN b NaN NaN NaN NaN NaN NaN b NaN NaN NaN NaN NaN NaN b NaN NaN NaN NaN NaN NaN b NaN NaN NaN NaN NaN NaN b NaN NaN NaN NaN NaN NaN b NaN NaN NaN NaN NaN NaN l NaN NaN "},"ㄻ":{"ha":0,"x_min":0,"x_max":0,"o":"m 508 -78 b 481 -28 508 -56 496 -39 b 482 372 481 78 481 289 b 493 414 489 385 493 399 b 454 475 494 446 483 460 b 353 485 426 489 379 488 b 215 479 322 482 268 481 b 136 488 193 492 160 494 b 103 474 124 483 113 479 b 97 472 101 472 99 472 l 97 469 b 51 461 81 469 68 461 b 8 469 58 461 36 469 b -78 471 11 469 -24 471 b -426 465 -76 471 -119 465 b -547 469 -422 465 -482 469 b -511 497 -496 469 -521 497 b -276 497 -408 497 -303 497 b -204 592 -242 497 -203 540 z m -385 994 l -385 657 b -472 651 -414 654 -444 653 l -475 994 b -385 994 -442 996 -411 996 z "},"ㄼ":{"ha":129,"x_min":0,"x_max":0,"o":"m 974 614 l 974 611 l 1018 611 l 1018 606 l 982 606 l 982 556 b 949 560 969 560 957 561 b 889 494 935 557 913 554 b 829 485 853 486 832 485 b NaN NaN 826 483 825 NaN b NaN NaN NaN NaN NaN NaN b NaN NaN NaN NaN NaN NaN l NaN NaN b NaN NaN NaN NaN NaN NaN b NaN NaN NaN NaN NaN NaN b NaN NaN NaN NaN NaN NaN b NaN NaN NaN NaN NaN NaN z m NaN NaN b NaN NaN NaN NaN NaN NaN b NaN NaN NaN NaN NaN NaN b NaN NaN NaN NaN NaN NaN l NaN NaN b NaN NaN NaN NaN NaN NaN b NaN NaN NaN NaN NaN NaN b NaN NaN NaN NaN NaN NaN z "},"ㄽ":{"ha":-11,"x_min":0,"x_max":0,"o":"l -15 -18 l -21 1 b -94 56 -33 46 -39 68 b -176 150 -131 47 -175 99 b -158 344 -176 183 -172 196 b -133 469 -150 401 -143 450 b -236 539 -168 500 -197 525 b NaN NaN -269 535 NaN NaN b NaN NaN NaN NaN NaN NaN b NaN NaN NaN NaN NaN NaN l NaN NaN l NaN NaN b NaN NaN NaN NaN NaN NaN b NaN NaN NaN NaN NaN NaN b NaN NaN NaN NaN NaN NaN "},"ㄾ":{"ha":-1,"x_min":0,"x_max":0,"o":"m 521 -78 b 428 -1 519 -26 458 1 l 269 -10 z "},"ㄿ":{"ha":129,"x_min":0,"x_max":0,"o":"m 1025 147 b 956 224 1015 185 983 211 b 938 231 949 226 943 229 b 939 568 942 308 943 493 b 1006 636 988 572 1010 597 b 976 707 1003 660 989 688 b 917 739 963 729 942 743 b 618 724 847 728 686 726 b 554 639 582 722 554 667 b 600 569 554 610 581 568 b 614 571 604 569 608 569 b 604 522 603 556 599 539 b 621 436 615 489 619 469 b 624 222 622 413 622 264 b 614 221 619 221 617 221 b 564 172 589 218 576 206 l 558 192 b 542 201 603 179 597 201 b 444 193 529 201 493 193 b 482 229 483 193 482 229 b 444 225 513 229 489 225 b 521 201 400 203 465 197 l 515 103 l 432 99 b 396 108 424 104 413 108 l 401 113 b 410 93 403 106 406 99 b 458 75 424 72 436 74 b NaN NaN 558 82 685 NaN z m NaN NaN b NaN NaN NaN NaN NaN NaN b NaN NaN NaN NaN NaN NaN b NaN NaN NaN NaN NaN NaN l NaN NaN z "},"ㅀ":{"ha":15,"x_min":0,"x_max":0,"o":"l 0 129 l 1054 129 l 1054 733 l 1083 733 l 1083 733 l 1115 733 l 1115 761 l 1099 761 b 1060 764 1097 738 1075 738 b 1032 888 1043 793 1033 828 b NaN NaN 1006 949 969 994 b NaN NaN NaN NaN NaN NaN m NaN NaN z "},"ㅁ":{"ha":-10,"x_min":0,"x_max":0,"o":"m 847 661 b 818 710 844 689 836 701 b 717 736 803 717 744 740 b 625 721 689 732 657 724 b 318 710 575 717 443 714 b 211 736 300 738 256 742 b 115 688 181 732 132 704 b 111 613 92 663 92 640 b 135 547 121 599 128 582 b 146 176 142 510 136 221 b 257 68 164 94 208 63 b 304 94 272 69 290 79 b 669 97 424 101 547 101 b 713 82 682 88 696 82 b 817 169 760 82 814 129 b 836 599 822 261 829 481 b 847 661 849 615 850 633 z m 339 269 l 332 535 b 632 540 433 540 561 543 b 629 274 631 471 629 351 b 339 269 550 276 425 274 z "},"ㅂ":{"ha":-10,"x_min":0,"x_max":0,"o":"m 825 536 b 750 731 822 632 811 664 b 696 746 733 749 717 753 b 603 703 681 740 615 717 b 594 647 589 688 583 671 b 631 539 611 613 631 581 b 632 279 631 517 632 381 b 339 274 544 276 418 275 b 335 382 339 306 338 343 b 486 382 390 382 460 383 b 563 410 532 381 538 392 b 606 485 581 422 606 456 b 500 561 606 521 533 565 b 329 544 463 556 392 550 b 328 561 328 553 328 558 b 260 717 324 639 294 675 b 194 726 239 742 218 738 b 101 664 175 717 114 681 b 99 625 93 653 92 636 b 136 506 121 589 135 560 b 142 201 138 469 142 242 b 240 71 142 122 189 65 b 294 101 261 74 279 85 b 668 107 406 106 561 107 b 742 76 685 85 708 74 b 822 144 776 79 815 108 b 825 536 828 171 828 457 z "},"ㅃ":{"ha":129,"x_min":0,"x_max":0,"o":"m 936 233 b 939 517 940 333 940 476 b 917 651 938 564 938 611 b 847 731 899 688 881 706 b 775 747 825 747 797 754 b 722 713 763 742 735 728 b 721 668 710 697 713 679 b 761 558 747 633 760 611 l 761 526 b 704 533 747 531 728 532 l 639 533 l 639 564 b 546 724 639 643 617 681 b 493 725 525 736 508 736 b 440 678 478 714 450 699 b 447 632 435 665 438 642 b 469 561 465 614 467 603 b 471 528 469 551 471 540 b 346 522 421 526 375 524 b 343 597 344 554 343 581 b 268 694 342 646 308 668 b 210 710 251 706 228 715 b 144 658 185 701 153 681 b 151 618 139 644 139 633 b 171 576 164 603 171 592 b 178 147 171 496 178 219 b 253 71 178 111 207 76 b 314 89 279 68 300 75 b 514 88 369 86 453 88 b 869 93 629 88 790 85 b 950 174 910 97 942 138 b 936 233 953 186 956 213 z m 636 258 b 638 371 638 296 638 333 b 728 372 682 371 717 372 b 763 376 740 372 753 374 b 764 261 763 336 764 296 b 636 258 733 261 688 260 z m 347 253 l 347 365 b 474 367 378 365 424 367 b 472 256 474 331 474 292 z "},"ㅄ":{"ha":-8,"x_min":0,"x_max":0,"o":"b -15 -19 -6 -7 -11 -12 b 7 375 -11 106 -15 376 b NaN NaN 26 382 38 397 m NaN NaN b NaN NaN NaN NaN NaN NaN b NaN NaN NaN NaN NaN NaN l NaN NaN "},"ㅅ":{"ha":-10,"x_min":0,"x_max":0,"o":"m 833 290 b 611 417 804 311 682 382 b 671 546 636 463 657 508 b 650 699 694 614 690 657 b 554 765 619 731 585 750 b 497 763 524 781 521 778 b 443 700 478 750 447 713 b 457 657 439 686 438 685 b 453 571 475 632 469 614 b 179 181 408 453 286 271 b 54 118 142 149 99 122 b 207 60 108 86 171 63 b 425 132 292 53 361 60 b 524 267 449 158 485 208 b 656 138 569 222 631 164 b 842 67 710 81 788 44 b 899 151 865 76 896 115 b 833 290 903 207 883 254 z "},"ㅆ":{"ha":129,"x_min":0,"x_max":0,"o":"m 1028 206 b 935 332 1021 264 981 306 b 838 375 906 349 871 364 b 900 514 864 422 885 469 b 860 657 921 575 906 619 b 760 690 829 682 782 696 b 722 661 744 686 726 667 b 721 614 711 647 711 635 b 700 517 732 590 717 554 b 642 413 686 486 667 450 b 546 465 617 438 583 453 b 608 589 569 506 590 547 b 618 682 619 614 626 653 b 564 742 611 708 583 729 b 467 771 532 763 489 779 b 435 740 453 765 439 747 b 432 694 426 726 424 715 b 410 610 443 668 429 647 b 222 364 364 521 288 421 b 74 268 176 324 124 288 b 179 225 125 268 149 243 b 342 232 235 193 290 200 b 438 314 375 253 407 281 b 524 253 467 294 494 276 l 489 217 b 347 111 444 174 396 136 b 454 75 392 103 422 90 b 617 94 513 47 567 58 b 744 229 657 124 701 172 b 867 113 788 193 819 160 b 990 101 901 78 960 76 b 1028 206 1017 124 1032 171 z "},"ㅇ":{"ha":-10,"x_min":0,"x_max":0,"o":"m 114 390 b 444 60 114 192 274 60 b 567 69 497 60 536 60 b 850 364 697 60 842 188 b 490 740 861 574 669 740 b 424 722 463 740 442 736 b 114 390 289 693 114 549 z m 317 399 b 503 561 317 504 401 557 b 646 389 583 542 643 488 b 547 250 647 349 606 260 b 471 243 525 254 494 242 b 317 399 397 247 317 318 z "},"ㅈ":{"ha":-10,"x_min":0,"x_max":0,"o":"m 835 292 b 679 376 814 306 743 344 b 824 606 740 460 794 544 b 808 700 839 638 836 667 b 735 738 788 725 768 738 b 671 721 704 738 685 732 b 367 711 569 714 407 707 b 289 736 338 714 306 724 b 246 736 275 747 257 743 b 192 685 233 728 206 703 b 189 643 181 671 183 653 b 254 569 201 622 236 583 b 361 529 276 553 322 531 b 550 539 392 528 474 533 b 194 183 454 403 307 240 b 61 156 150 161 110 151 b 219 71 89 129 178 82 b 436 104 297 50 367 60 b 560 225 465 122 510 168 b 663 132 600 190 642 151 b 851 68 719 78 799 43 b 906 156 875 79 904 119 b 835 292 908 211 886 258 z "},"ㅉ":{"ha":129,"x_min":0,"x_max":0,"o":"m 967 301 b 868 363 944 319 904 344 b 950 532 903 426 933 489 b 983 621 971 544 985 582 b 890 700 982 654 931 704 b 725 682 856 696 782 683 b 636 682 676 681 654 682 b 647 679 622 682 647 656 b 640 618 647 653 644 618 b 518 550 533 618 518 561 b NaN NaN 518 531 511 NaN b NaN NaN NaN NaN NaN NaN b NaN NaN NaN NaN NaN NaN b NaN NaN NaN NaN NaN NaN b NaN NaN NaN NaN NaN NaN b NaN NaN NaN NaN NaN NaN b NaN NaN NaN NaN NaN NaN b NaN NaN NaN NaN NaN NaN b NaN NaN NaN NaN NaN NaN b NaN NaN NaN NaN NaN NaN b NaN NaN NaN NaN NaN NaN b NaN NaN NaN NaN NaN NaN b NaN NaN NaN NaN NaN NaN b NaN NaN NaN NaN NaN NaN b NaN NaN NaN NaN NaN NaN b NaN NaN NaN NaN NaN NaN b NaN NaN NaN NaN NaN NaN z m NaN NaN b NaN NaN NaN NaN NaN NaN b NaN NaN NaN NaN NaN NaN b NaN NaN NaN NaN NaN NaN b NaN NaN NaN NaN NaN NaN b NaN NaN NaN NaN NaN NaN z "},"ㅊ":{"ha":-10,"x_min":0,"x_max":0,"o":"m 890 189 b 824 275 885 225 849 264 b 667 342 794 288 718 322 b 817 504 729 406 785 467 b 794 611 838 529 819 579 b 669 628 764 649 701 656 l 599 624 l 599 657 b 569 754 599 703 592 731 b 478 806 553 772 506 790 b 422 796 454 818 446 813 b 389 757 411 788 397 772 b 401 693 376 735 379 721 b 422 635 413 679 419 668 b 424 617 422 629 424 624 l 351 617 b 289 636 324 618 303 625 b 246 649 275 647 257 653 b 188 607 233 644 201 621 b 181 567 175 594 176 578 b 235 482 189 546 217 500 b 329 443 258 458 286 444 b 518 453 358 442 440 447 b 194 203 419 350 300 249 b 65 193 150 183 111 185 b 210 82 89 158 171 97 b 407 101 281 53 339 60 b 546 222 435 118 488 165 b 696 101 590 190 660 133 b 781 64 717 83 756 64 b 890 189 853 64 903 111 z "},"ㅋ":{"ha":-10,"x_min":0,"x_max":0,"o":"m 861 657 b 829 943 832 733 831 793 b NaN NaN 833 1039 835 NaN b NaN NaN NaN NaN NaN NaN b NaN NaN NaN NaN NaN NaN b NaN NaN NaN NaN NaN NaN b NaN NaN NaN NaN NaN NaN b NaN NaN NaN NaN NaN NaN b NaN NaN NaN NaN NaN NaN b NaN NaN NaN NaN NaN NaN b NaN NaN NaN NaN NaN NaN b NaN NaN NaN NaN NaN NaN b NaN NaN NaN NaN NaN NaN b NaN NaN NaN NaN NaN NaN l NaN NaN b NaN NaN NaN NaN NaN NaN z "},"ㅌ":{"ha":-10,"x_min":0,"x_max":0,"o":"m 178 590 b 299 569 201 574 229 568 b 571 574 367 571 533 574 b 726 583 610 574 693 576 b 804 644 761 590 800 619 b 765 713 808 661 793 681 b 710 761 738 743 722 757 b 617 751 688 767 658 754 b 210 746 579 749 317 735 b 125 728 171 750 154 765 b 114 653 99 693 96 683 b 178 590 126 632 151 608 z m 861 168 b 811 246 854 189 833 219 b 733 275 790 271 756 278 b 343 250 624 261 489 254 b 346 340 344 286 346 324 b 689 340 449 343 576 346 b 751 361 711 339 732 344 b 797 433 776 383 793 407 b 772 488 799 443 789 468 b 731 517 753 511 742 515 b 661 510 718 518 701 514 b 243 506 554 499 357 497 b 143 517 199 508 156 517 b 108 442 121 517 101 482 b 139 382 114 415 128 390 b 142 381 139 382 140 381 l 147 244 b 115 203 129 236 117 219 b 136 113 114 181 122 135 b 200 75 150 88 179 74 b 754 83 378 88 588 83 b 847 128 782 83 835 122 b 861 168 860 133 868 149 z "},"ㅍ":{"ha":-10,"x_min":0,"x_max":0,"o":"m 204 572 b 306 547 239 553 282 547 b 746 560 389 547 665 554 b 821 622 783 563 817 589 b 760 726 825 651 782 703 b 696 744 743 744 729 751 b 607 729 667 739 649 733 b 310 717 568 725 361 717 b 213 744 285 717 233 732 b 143 704 186 761 169 744 b 132 628 124 675 111 649 b 204 572 157 603 176 588 z m 854 197 b 731 271 815 239 783 265 b 715 272 728 271 722 271 b 736 422 725 335 735 400 b 703 485 738 450 725 474 b 578 514 671 501 617 510 b 542 503 567 515 557 518 b 522 474 533 494 525 481 b 535 443 517 460 529 449 b 550 392 546 432 550 415 b 544 272 550 364 549 321 l 433 269 b 435 419 435 313 438 389 b 438 368 440 400 439 379 b 389 346 438 357 407 350 b 357 376 368 357 363 367 b 332 389 350 382 342 388 b 196 NaN 307 390 290 396 l NaN NaN b NaN NaN NaN NaN NaN NaN b NaN NaN NaN NaN NaN NaN b NaN NaN NaN NaN NaN NaN b NaN NaN NaN NaN NaN NaN b NaN NaN NaN NaN NaN NaN b NaN NaN NaN NaN NaN NaN b NaN NaN NaN NaN NaN NaN z "},"ㅎ":{"ha":-10,"x_min":0,"x_max":0,"o":"m 888 538 l 779 529 b 783 551 807 542 794 549 b NaN NaN 753 NaN NaN NaN b NaN NaN NaN NaN NaN NaN b NaN NaN NaN NaN NaN NaN b NaN NaN NaN NaN NaN NaN b NaN NaN NaN NaN NaN NaN b NaN NaN NaN NaN NaN NaN z m NaN NaN b NaN NaN NaN NaN NaN NaN b NaN NaN NaN NaN NaN NaN b NaN NaN NaN NaN NaN NaN b NaN NaN NaN NaN NaN NaN b NaN NaN NaN NaN NaN NaN b NaN NaN NaN NaN NaN NaN b NaN NaN NaN NaN NaN NaN b NaN NaN NaN NaN NaN NaN z m NaN NaN b NaN NaN NaN NaN NaN NaN b NaN NaN NaN NaN NaN NaN b NaN NaN NaN NaN NaN NaN b NaN NaN NaN NaN NaN NaN b NaN NaN NaN NaN NaN NaN z "},"ㅏ":{"ha":33,"x_min":0,"x_max":0,"o":"b 500 653 -10 707 506 686 b NaN NaN 494 629 493 NaN b NaN NaN NaN NaN NaN NaN b NaN NaN NaN NaN NaN NaN "},"ㅐ":{"ha":33,"x_min":0,"x_max":0,"o":"b -10 457 -10 629 -7 560 b NaN NaN -14 346 NaN NaN b NaN NaN NaN NaN NaN NaN l NaN NaN b NaN NaN NaN NaN NaN NaN b NaN NaN NaN NaN NaN NaN b NaN NaN NaN NaN NaN NaN "},"ㅑ":{"ha":64,"x_min":0,"x_max":0,"o":"b 361 NaN -10 726 371 635 l NaN NaN b NaN NaN NaN NaN NaN NaN b NaN NaN NaN NaN NaN NaN b NaN NaN NaN NaN NaN NaN l NaN NaN b NaN NaN NaN NaN NaN NaN b NaN NaN NaN NaN NaN NaN "},"ㅒ":{"ha":31,"x_min":0,"x_max":0,"o":"b -8 543 -10 629 -8 592 b -93 493 -10 489 -47 492 b NaN NaN -128 490 NaN NaN b NaN NaN NaN NaN NaN NaN b NaN NaN NaN NaN NaN NaN b NaN NaN NaN NaN NaN NaN b NaN NaN NaN NaN NaN NaN b NaN NaN NaN NaN NaN NaN b NaN NaN NaN NaN NaN NaN l NaN NaN m NaN NaN l NaN NaN l NaN NaN l NaN NaN l NaN NaN l NaN NaN l NaN NaN l NaN NaN l NaN NaN l NaN NaN l NaN NaN l NaN NaN l NaN NaN l NaN NaN l NaN NaN l NaN NaN l NaN NaN l NaN NaN l NaN NaN l NaN NaN l NaN NaN l NaN NaN b NaN NaN NaN NaN NaN NaN l NaN NaN b NaN NaN NaN NaN NaN NaN z "},"ㅓ":{"ha":-3,"x_min":0,"x_max":0,"o":"b 839 694 -10 697 881 699 b NaN NaN 711 692 588 NaN b NaN NaN NaN NaN NaN NaN b NaN NaN NaN NaN NaN NaN b NaN NaN NaN NaN NaN NaN b NaN NaN NaN NaN NaN NaN b NaN NaN NaN NaN NaN NaN b NaN NaN NaN NaN NaN NaN b NaN NaN NaN NaN NaN NaN "},"ㅔ":{"ha":22,"x_min":0,"x_max":0,"o":"b -378 -171 -376 -51 -378 -110 b -431 -168 -399 -169 -418 -168 b -537 -190 -467 -168 -512 -178 b -582 -233 -554 -199 -574 -212 b -537 -318 -590 -254 -560 -299 b -435 -347 -512 -339 -465 -346 b -381 -346 -418 -349 -399 -347 b -383 -557 -382 -419 -383 -493 b -324 -819 -383 -639 -354 -746 "},"ㅕ":{"ha":0,"x_min":0,"x_max":0,"o":"b NaN NaN -10 697 881 NaN b NaN NaN NaN NaN NaN NaN b NaN NaN NaN NaN NaN NaN b NaN NaN NaN NaN NaN NaN b NaN NaN NaN NaN NaN NaN b NaN NaN NaN NaN NaN NaN b NaN NaN NaN NaN NaN NaN b NaN NaN NaN NaN NaN NaN l NaN NaN b NaN NaN NaN NaN NaN NaN b NaN NaN NaN NaN NaN NaN b NaN NaN NaN NaN NaN NaN b NaN NaN NaN NaN NaN NaN b NaN NaN NaN NaN NaN NaN b NaN NaN NaN NaN NaN NaN b NaN NaN NaN NaN NaN NaN "},"ㅖ":{"ha":22,"x_min":0,"x_max":0,"o":"l -371 -61 b -415 -60 -387 -61 -404 -60 b -553 -93 -444 -60 -532 -79 b -574 -137 -569 -104 -574 -131 b -521 -204 -574 -169 -547 -187 b -407 -235 -504 -215 -435 -233 b -374 -233 -397 -235 -386 -235 b -375 -315 -374 -261 -375 -287 b -454 -311 -407 -312 -439 -311 b -550 -335 -483 -311 -528 -324 b -575 -378 -568 -344 -575 -371 b -535 -436 -575 -408 -557 -419 b -446 -485 -514 -451 -474 -479 b -378 -483 -432 -487 -406 -486 l -378 -557 b -318 -819 -378 -639 -349 -746 "},"ㅗ":{"ha":0,"x_min":0,"x_max":0,"o":"b -162 -8 -32 -3 -93 -6 b -160 172 -160 51 -160 124 b -169 272 -160 197 -162 249 b -247 317 -179 307 -208 315 b -371 286 -283 318 -343 308 b -387 240 -389 272 -393 254 b -368 147 -376 211 -369 181 b -365 -12 -365 103 -364 38 b -526 -12 -432 -14 -490 -14 b -690 24 -594 -10 -628 -6 b -535 14 -654 22 -568 19 "},"ㅘ":{"ha":31,"x_min":0,"x_max":0,"o":"b 708 1099 225 1131 713 1117 b NaN NaN 706 1079 703 NaN b NaN NaN NaN NaN NaN NaN b NaN NaN NaN NaN NaN NaN b NaN NaN NaN NaN NaN NaN b NaN NaN NaN NaN NaN NaN b NaN NaN NaN NaN NaN NaN b NaN NaN NaN NaN NaN NaN b NaN NaN NaN NaN NaN NaN b NaN NaN NaN NaN NaN NaN b NaN NaN NaN NaN NaN NaN b NaN NaN NaN NaN NaN NaN b NaN NaN NaN NaN NaN NaN l NaN NaN l NaN NaN "},"ㅙ":{"ha":-1,"x_min":0,"x_max":0,"o":"l 0 231 l 1114 231 l 1114 -22 b 1015 -29 1078 -22 1042 -25 b 1017 146 1015 32 1015 93 b 658 94 915 142 783 138 b 643 -22 653 36 649 -24 b 807 NaN 710 -21 782 -19 b 776 NaN 808 NaN 803 NaN b 642 NaN 744 NaN 669 NaN l 606 NaN b 557 NaN 604 NaN 575 NaN b 611 NaN 560 NaN 586 NaN l 611 NaN b 613 NaN 613 NaN 613 NaN l 710 NaN "},"ㅚ":{"ha":0,"x_min":0,"x_max":0,"o":"b 174 763 174 1042 175 938 b -3 581 171 597 96 589 b -97 760 -101 574 -99 647 b -99 839 -94 793 -93 818 b NaN NaN -125 850 NaN NaN b NaN NaN NaN NaN NaN NaN "},"ㅛ":{"ha":0,"x_min":0,"x_max":0,"o":"b -22 -1 -6 0 -14 -1 b 1 179 -17 57 -6 136 b -71 269 13 240 -11 263 b -206 236 -142 278 -194 274 b -199 161 -212 214 -199 183 b -212 -10 -199 117 -206 54 l -319 -12 b -344 226 -324 74 -329 167 b -437 276 -356 268 -397 279 b -549 228 -474 274 -532 258 b -535 143 -562 203 -547 186 b -518 -12 -526 117 -521 51 l -526 -12 b -690 24 -594 -10 -628 -6 "},"ㅜ":{"ha":222,"x_min":0,"x_max":0,"o":"m 1153 501 b 1042 606 1135 536 1072 593 b 893 618 993 626 964 624 b 928 567 917 596 928 581 b 861 521 913 557 903 528 b 821 521 847 513 832 515 b NaN NaN 813 NaN NaN NaN b NaN NaN NaN NaN NaN NaN b NaN NaN NaN NaN NaN NaN b NaN NaN NaN NaN NaN NaN b NaN NaN NaN NaN NaN NaN l NaN NaN b NaN NaN NaN NaN NaN NaN b NaN NaN NaN NaN NaN NaN b NaN NaN NaN NaN NaN NaN z "},"ㅝ":{"ha":1,"x_min":0,"x_max":0,"o":"b 199 700 199 1063 206 935 b NaN NaN 196 508 NaN NaN b NaN NaN NaN NaN NaN NaN b NaN NaN NaN NaN NaN NaN b NaN NaN NaN NaN NaN NaN b NaN NaN NaN NaN NaN NaN m NaN NaN b NaN NaN NaN NaN NaN NaN b NaN NaN NaN NaN NaN NaN b NaN NaN NaN NaN NaN NaN b NaN NaN NaN NaN NaN NaN b NaN NaN NaN NaN NaN NaN b NaN NaN NaN NaN NaN NaN b NaN NaN NaN NaN NaN NaN b NaN NaN NaN NaN NaN NaN b NaN NaN NaN NaN NaN NaN z "},"ㅞ":{"ha":0,"x_min":0,"x_max":0,"o":"b -333 1085 204 1088 -206 1092 b NaN NaN -508 1082 -661 NaN b NaN NaN NaN NaN NaN NaN b NaN NaN NaN NaN NaN NaN b NaN NaN NaN NaN NaN NaN b NaN NaN NaN NaN NaN NaN b NaN NaN NaN NaN NaN NaN b NaN NaN NaN NaN NaN NaN b NaN NaN NaN NaN NaN NaN b NaN NaN NaN NaN NaN NaN b NaN NaN NaN NaN NaN NaN b NaN NaN NaN NaN NaN NaN b NaN NaN NaN NaN NaN NaN b NaN NaN NaN NaN NaN NaN b NaN NaN NaN NaN NaN NaN b NaN NaN NaN NaN NaN NaN b NaN NaN NaN NaN NaN NaN b NaN NaN NaN NaN NaN NaN b NaN NaN NaN NaN NaN NaN "},"ㅟ":{"ha":176,"x_min":0,"x_max":0,"o":"m -361 -347 b 535 -633 679 -360 547 -637 b 497 -671 524 -644 515 -653 b 481 -717 492 -681 482 -697 b 579 -833 489 -732 518 -786 b 763 -821 642 -831 703 -828 b 739 -1037 801 -815 776 -924 b 622 -1182 690 -1104 656 -1153 b NaN NaN 574 -1196 NaN NaN b NaN NaN NaN NaN NaN NaN b NaN NaN NaN NaN NaN NaN b NaN NaN NaN NaN NaN NaN b NaN NaN NaN NaN NaN NaN "},"ㅠ":{"ha":0,"x_min":0,"x_max":0,"o":"m 1153 501 b 1042 606 1135 536 1072 593 b 893 618 993 626 964 624 b 928 567 917 596 928 581 b 861 521 913 557 903 528 b 821 521 847 513 832 515 b NaN NaN 813 NaN NaN NaN b NaN NaN NaN NaN NaN NaN b NaN NaN NaN NaN NaN NaN l NaN NaN l NaN NaN l NaN NaN l NaN NaN l NaN NaN l NaN NaN l NaN NaN l NaN NaN l NaN NaN l NaN NaN l NaN NaN l NaN NaN l NaN NaN l NaN NaN l NaN NaN b NaN NaN NaN NaN NaN NaN b NaN NaN NaN NaN NaN NaN b NaN NaN NaN NaN NaN NaN l NaN NaN b NaN NaN NaN NaN NaN NaN b NaN NaN NaN NaN NaN NaN b NaN NaN NaN NaN NaN NaN z "},"ㅡ":{"ha":225,"x_min":0,"x_max":0,"o":"m 253 256 b 807 271 346 264 699 274 b 746 349 793 296 769 322 b 628 403 693 389 653 397 b NaN NaN 582 396 538 392 b NaN NaN NaN NaN NaN NaN b NaN NaN NaN NaN NaN NaN z "},"ㅢ":{"ha":-4,"x_min":0,"x_max":0,"o":"b 147 749 147 1015 149 915 b NaN NaN 146 589 NaN NaN b NaN NaN NaN NaN NaN NaN b NaN NaN NaN NaN NaN NaN b NaN NaN NaN NaN NaN NaN b NaN NaN NaN NaN NaN NaN b NaN NaN NaN NaN NaN NaN "},"ㅣ":{"ha":-10,"x_min":0,"x_max":0,"o":"m 475 -222 b 467 456 472 -94 467 260 z "},"ㅥ":{"ha":129,"x_min":0,"x_max":0,"o":"m 526 292 b 397 272 490 281 453 276 z m 839 272 b 785 276 838 251 821 288 b NaN NaN 747 272 692 268 z "},"ㅦ":{"ha":-19,"x_min":0,"x_max":0,"o":"b 100 944 129 985 111 967 b 106 878 99 921 97 900 b NaN NaN 119 863 NaN NaN b NaN NaN NaN NaN NaN NaN b NaN NaN NaN NaN NaN NaN b NaN NaN NaN NaN NaN NaN b NaN NaN NaN NaN NaN NaN b NaN NaN NaN NaN NaN NaN b NaN NaN NaN NaN NaN NaN b NaN NaN NaN NaN NaN NaN b NaN NaN NaN NaN NaN NaN b NaN NaN NaN NaN NaN NaN "},"ㅧ":{"ha":0,"x_min":0,"x_max":0,"o":"b -21 -25 -7 -10 -14 -18 b 3 61 -11 -1 -3 26 b 101 83 44 60 76 67 "},"ㅨ":{"ha":129,"x_min":0,"x_max":0,"o":"m 1046 174 b 911 378 1010 272 931 483 b 800 96 854 203 797 83 l NaN NaN b NaN NaN NaN NaN NaN NaN b NaN NaN NaN NaN NaN NaN b NaN NaN NaN NaN NaN NaN b NaN NaN NaN NaN NaN NaN z m NaN NaN b NaN NaN NaN NaN NaN NaN b NaN NaN NaN NaN NaN NaN b NaN NaN NaN NaN NaN NaN z "},"ㅩ":{"ha":-18,"x_min":0,"x_max":0,"o":"b NaN NaN -37 -10 -75 NaN b NaN NaN NaN NaN NaN NaN b NaN NaN NaN NaN NaN NaN b NaN NaN NaN NaN NaN NaN b NaN NaN NaN NaN NaN NaN b NaN NaN NaN NaN NaN NaN b NaN NaN NaN NaN NaN NaN b NaN NaN NaN NaN NaN NaN b NaN NaN NaN NaN NaN NaN b NaN NaN NaN NaN NaN NaN l NaN NaN b NaN NaN NaN NaN NaN NaN b NaN NaN NaN NaN NaN NaN b NaN NaN NaN NaN NaN NaN b NaN NaN NaN NaN NaN NaN b NaN NaN NaN NaN NaN NaN b NaN NaN NaN NaN NaN NaN b NaN NaN NaN NaN NaN NaN l NaN NaN b NaN NaN NaN NaN NaN NaN b NaN NaN NaN NaN NaN NaN b NaN NaN NaN NaN NaN NaN b NaN NaN NaN NaN NaN NaN b NaN NaN NaN NaN NaN NaN b NaN NaN NaN NaN NaN NaN l NaN NaN b NaN NaN NaN NaN NaN NaN b NaN NaN NaN NaN NaN NaN b NaN NaN NaN NaN NaN NaN b NaN NaN NaN NaN NaN NaN b NaN NaN NaN NaN NaN NaN b NaN NaN NaN NaN NaN NaN b NaN NaN NaN NaN NaN NaN b NaN NaN NaN NaN NaN NaN b NaN NaN NaN NaN NaN NaN "},"ㅪ":{"ha":129,"x_min":0,"x_max":0,"o":"m 514 17 b 982 -74 985 -1 989 -54 b NaN NaN 981 NaN NaN NaN b NaN NaN NaN NaN NaN NaN l NaN NaN b NaN NaN NaN NaN NaN NaN b NaN NaN NaN NaN NaN NaN b NaN NaN NaN NaN NaN NaN l NaN NaN b NaN NaN NaN NaN NaN NaN z "},"ㅫ":{"ha":-3,"x_min":0,"x_max":0,"o":"b NaN NaN -33 -10 -71 NaN l NaN NaN l NaN NaN l NaN NaN l NaN NaN l NaN NaN l NaN NaN l NaN NaN l NaN NaN l NaN NaN l NaN NaN l NaN NaN l NaN NaN l NaN NaN l NaN NaN l NaN NaN l NaN NaN l NaN NaN l NaN NaN l NaN NaN l NaN NaN l NaN NaN l NaN NaN b NaN NaN NaN NaN NaN NaN b NaN NaN NaN NaN NaN NaN b NaN NaN NaN NaN NaN NaN b NaN NaN NaN NaN NaN NaN b NaN NaN NaN NaN NaN NaN b NaN NaN NaN NaN NaN NaN l NaN NaN b NaN NaN NaN NaN NaN NaN l NaN NaN b NaN NaN NaN NaN NaN NaN b NaN NaN NaN NaN NaN NaN b NaN NaN NaN NaN NaN NaN l NaN NaN l NaN NaN b NaN NaN NaN NaN NaN NaN b NaN NaN NaN NaN NaN NaN b NaN NaN NaN NaN NaN NaN b NaN NaN NaN NaN NaN NaN b NaN NaN NaN NaN NaN NaN b NaN NaN NaN NaN NaN NaN b NaN NaN NaN NaN NaN NaN b NaN NaN NaN NaN NaN NaN b NaN NaN NaN NaN NaN NaN m NaN NaN b NaN NaN NaN NaN NaN NaN b NaN NaN NaN NaN NaN NaN l NaN NaN b NaN NaN NaN NaN NaN NaN b NaN NaN NaN NaN NaN NaN b NaN NaN NaN NaN NaN NaN z "},"ㅬ":{"ha":129,"x_min":0,"x_max":0,"o":"m 1049 168 b 914 371 1013 267 935 483 b 772 85 853 176 797 56 b 674 86 750 94 704 89 l NaN NaN b NaN NaN NaN NaN NaN NaN b NaN NaN NaN NaN NaN NaN b NaN NaN NaN NaN NaN NaN b NaN NaN NaN NaN NaN NaN l NaN NaN l NaN NaN b NaN NaN NaN NaN NaN NaN b NaN NaN NaN NaN NaN NaN b NaN NaN NaN NaN NaN NaN z m NaN NaN b NaN NaN NaN NaN NaN NaN b NaN NaN NaN NaN NaN NaN b NaN NaN NaN NaN NaN NaN b NaN NaN NaN NaN NaN NaN b NaN NaN NaN NaN NaN NaN b NaN NaN NaN NaN NaN NaN z "},"ㅭ":{"ha":129,"x_min":0,"x_max":0,"o":"m 99 346 b 349 854 344 826 326 854 b 615 910 342 854 381 910 b NaN NaN 624 910 653 NaN b NaN NaN NaN NaN NaN NaN b NaN NaN NaN NaN NaN NaN b NaN NaN NaN NaN NaN NaN b NaN NaN NaN NaN NaN NaN z m NaN NaN b NaN NaN NaN NaN NaN NaN b NaN NaN NaN NaN NaN NaN b NaN NaN NaN NaN NaN NaN b NaN NaN NaN NaN NaN NaN b NaN NaN NaN NaN NaN NaN b NaN NaN NaN NaN NaN NaN z m NaN NaN b NaN NaN NaN NaN NaN NaN b NaN NaN NaN NaN NaN NaN b NaN NaN NaN NaN NaN NaN b NaN NaN NaN NaN NaN NaN z "},"ㅮ":{"ha":129,"x_min":0,"x_max":0,"o":"m 960 614 l 960 611 l 1004 611 l 1004 606 l 968 606 l 968 556 b 935 560 956 560 943 561 l 881 553 b 875 657 879 603 878 642 b 850 726 871 689 865 707 b 796 NaN 832 750 814 763 b 847 NaN 813 NaN 833 NaN z m 410 NaN b 526 NaN 413 NaN 475 NaN b 925 NaN 644 NaN 878 NaN b 1025 NaN 969 NaN 994 NaN b 1039 NaN 1044 NaN 1044 NaN b 1026 NaN 1035 NaN 1028 NaN l 1021 NaN b 1008 NaN 1006 NaN 990 NaN b NaN NaN 1033 NaN 1046 NaN b NaN NaN NaN NaN NaN NaN b NaN NaN NaN NaN NaN NaN b NaN NaN NaN NaN NaN NaN z m NaN NaN b NaN NaN NaN NaN NaN NaN b NaN NaN NaN NaN NaN NaN b NaN NaN NaN NaN NaN NaN b NaN NaN NaN NaN NaN NaN z m NaN NaN b NaN NaN NaN NaN NaN NaN l NaN NaN l NaN NaN b NaN NaN NaN NaN NaN NaN b NaN NaN NaN NaN NaN NaN z "},"ㅯ":{"ha":129,"x_min":0,"x_max":0,"o":"m 1046 182 b 997 293 1043 222 1026 254 b 874 435 979 317 919 386 b 906 588 889 490 900 544 b 826 718 915 668 882 699 b 707 704 757 742 722 733 b 700 632 683 660 688 647 b 707 536 721 607 714 575 b 575 190 692 446 644 282 b 561 172 571 183 565 178 b 528 221 558 188 543 208 b 454 238 503 240 479 243 b 353 225 433 233 388 228 b 267 219 324 222 293 221 b NaN NaN 250 238 232 246 b NaN NaN NaN NaN NaN NaN b NaN NaN NaN NaN NaN NaN b NaN NaN NaN NaN NaN NaN b NaN NaN NaN NaN NaN NaN b NaN NaN NaN NaN NaN NaN b NaN NaN NaN NaN NaN NaN b NaN NaN NaN NaN NaN NaN b NaN NaN NaN NaN NaN NaN z m NaN NaN b NaN NaN NaN NaN NaN NaN b NaN NaN NaN NaN NaN NaN b NaN NaN NaN NaN NaN NaN b NaN NaN NaN NaN NaN NaN z "},"ㅰ":{"ha":129,"x_min":0,"x_max":0,"o":"m 1046 174 b 814 415 1010 272 931 483 b 500 342 611 354 492 349 b NaN NaN 507 335 513 NaN b NaN NaN NaN NaN NaN NaN b NaN NaN NaN NaN NaN NaN b NaN NaN NaN NaN NaN NaN b NaN NaN NaN NaN NaN NaN b NaN NaN NaN NaN NaN NaN b NaN NaN NaN NaN NaN NaN b NaN NaN NaN NaN NaN NaN b NaN NaN NaN NaN NaN NaN b NaN NaN NaN NaN NaN NaN b NaN NaN NaN NaN NaN NaN b NaN NaN NaN NaN NaN NaN z m NaN NaN b NaN NaN NaN NaN NaN NaN b NaN NaN NaN NaN NaN NaN b NaN NaN NaN NaN NaN NaN b NaN NaN NaN NaN NaN NaN b NaN NaN NaN NaN NaN NaN z m NaN NaN b NaN NaN NaN NaN NaN NaN b NaN NaN NaN NaN NaN NaN b NaN NaN NaN NaN NaN NaN z "},"ㅱ":{"ha":-10,"x_min":0,"x_max":0,"o":"m 821 815 b 793 865 821 842 810 856 b 701 883 767 881 729 892 b 611 871 675 875 642 872 b 329 864 556 868 440 864 b 231 888 313 889 272 893 b 140 842 201 883 156 858 b 136 771 118 817 118 797 b 158 710 144 758 151 743 b 168 436 165 675 160 478 b 274 335 183 360 228 329 b 318 358 289 336 304 344 b 654 363 431 365 540 365 b 696 347 665 353 679 347 b 803 431 740 347 801 392 b 813 778 806 519 807 678 b 821 815 819 789 821 801 z m 350 525 b 344 706 349 578 347 646 b 619 707 439 708 556 710 b 618 528 618 656 618 583 b 350 525 546 531 431 529 "},"ㅲ":{"ha":18,"x_min":0,"x_max":0,"o":"b 90 978 129 993 106 990 b 4 967 78 967 42 965 b -94 969 -32 971 -74 975 b -151 901 -131 932 -143 918 b -171 925 -156 881 -160 910 b NaN NaN -193 960 NaN NaN l NaN NaN l NaN NaN b NaN NaN NaN NaN NaN NaN b NaN NaN NaN NaN NaN NaN b NaN NaN NaN NaN NaN NaN b NaN NaN NaN NaN NaN NaN b NaN NaN NaN NaN NaN NaN b NaN NaN NaN NaN NaN NaN b NaN NaN NaN NaN NaN NaN b NaN NaN NaN NaN NaN NaN b NaN NaN NaN NaN NaN NaN m NaN NaN b NaN NaN NaN NaN NaN NaN b NaN NaN NaN NaN NaN NaN b NaN NaN NaN NaN NaN NaN b NaN NaN NaN NaN NaN NaN b NaN NaN NaN NaN NaN NaN b NaN NaN NaN NaN NaN NaN b NaN NaN NaN NaN NaN NaN b NaN NaN NaN NaN NaN NaN l NaN NaN l NaN NaN b NaN NaN NaN NaN NaN NaN b NaN NaN NaN NaN NaN NaN z "},"ㅳ":{"ha":129,"x_min":0,"x_max":0,"o":"m 504 714 l 504 682 l 453 682 b 431 814 440 686 426 757 b 390 914 428 858 418 872 z m 875 460 b 785 456 857 464 804 457 b 657 453 754 453 704 453 b 661 646 658 522 661 619 b 658 401 661 608 658 482 l 656 397 b 651 292 636 369 633 326 z m 35 413 b 21 428 51 413 21 432 b 26 499 21 446 22 499 b 74 510 68 499 74 506 b NaN NaN 74 515 82 NaN l NaN NaN "},"ㅴ":{"ha":407,"x_min":0,"x_max":0,"o":"m 935 293 b 808 440 917 317 854 392 b 844 589 824 494 836 547 b 764 718 860 669 818 699 b 625 726 697 742 660 735 b 332 599 588 707 497 661 b NaN NaN 242 NaN NaN NaN l NaN NaN l NaN NaN l NaN NaN l NaN NaN l NaN NaN l NaN NaN l NaN NaN l NaN NaN l NaN NaN l NaN NaN l NaN NaN l NaN NaN l NaN NaN l NaN NaN l NaN NaN l NaN NaN l NaN NaN l NaN NaN l NaN NaN l NaN NaN l NaN NaN l NaN NaN b NaN NaN NaN NaN NaN NaN b NaN NaN NaN NaN NaN NaN b NaN NaN NaN NaN NaN NaN b NaN NaN NaN NaN NaN NaN b NaN NaN NaN NaN NaN NaN b NaN NaN NaN NaN NaN NaN b NaN NaN NaN NaN NaN NaN b NaN NaN NaN NaN NaN NaN b NaN NaN NaN NaN NaN NaN b NaN NaN NaN NaN NaN NaN b NaN NaN NaN NaN NaN NaN b NaN NaN NaN NaN NaN NaN b NaN NaN NaN NaN NaN NaN z m NaN NaN b NaN NaN NaN NaN NaN NaN b NaN NaN NaN NaN NaN NaN b NaN NaN NaN NaN NaN NaN b NaN NaN NaN NaN NaN NaN b NaN NaN NaN NaN NaN NaN b NaN NaN NaN NaN NaN NaN b NaN NaN NaN NaN NaN NaN b NaN NaN NaN NaN NaN NaN b NaN NaN NaN NaN NaN NaN b NaN NaN NaN NaN NaN NaN b NaN NaN NaN NaN NaN NaN b NaN NaN NaN NaN NaN NaN z m NaN NaN b NaN NaN NaN NaN NaN NaN l NaN NaN "},"ㅵ":{"ha":407,"x_min":0,"x_max":0,"o":"m 1276 263 b 1197 258 1260 267 1214 260 b 1093 256 1171 256 1132 256 b 1097 446 1094 325 1097 419 b 1096 546 1097 478 1097 514 b 1207 553 1136 546 1176 549 b 1251 575 1225 556 1238 557 b 1253 632 1264 592 1265 608 b 1214 704 1242 654 1225 692 b 1156 728 1194 725 1185 729 b 1053 724 1108 725 1086 724 b 990 729 1032 724 1004 728 b 935 706 972 731 956 731 b 908 642 919 688 910 665 b 926 583 907 621 914 599 b 931 457 929 543 931 490 b 928 215 931 419 928 296 l 925 211 l 924 210 b 882 293 918 238 904 264 b 769 433 865 315 811 385 b 804 589 783 490 796 544 b 728 718 818 669 779 699 b 617 707 664 742 628 736 b 613 632 597 660 596 650 b 618 536 632 610 625 574 b 496 190 600 446 556 281 l 488 179 b 486 614 490 306 489 567 b 454 714 483 658 479 672 b 386 746 432 750 413 754 b 324 710 369 740 338 724 b 324 651 306 693 307 681 b 342 579 336 628 342 618 l 342 529 b 306 533 329 533 315 535 b 251 525 293 531 272 528 b 246 631 250 575 249 615 b 222 700 242 663 236 681 b 167 735 204 722 185 736 b 64 740 151 733 93 736 b -6 800 19 764 -3 786 b 4 NaN -8 818 -3 832 b 176 NaN 58 NaN 124 NaN b 229 NaN 192 NaN 218 NaN b 275 NaN 249 NaN 265 NaN b 325 NaN 292 NaN 308 NaN b 476 NaN 368 NaN 431 NaN b 513 NaN 489 NaN 501 NaN b 574 NaN 539 NaN 561 NaN b 672 NaN 588 NaN 642 NaN b 718 NaN 692 NaN 707 NaN b 725 NaN 719 NaN 722 NaN b 771 NaN 739 NaN 756 NaN b 910 NaN 818 NaN 857 NaN b 1040 NaN 969 NaN 1022 NaN b 1093 NaN 1060 NaN 1085 NaN b 1079 NaN 1097 NaN 1090 NaN z m 124 NaN b 144 NaN 129 NaN 136 NaN l 144 NaN "},"ㅶ":{"ha":0,"x_min":0,"x_max":0,"o":"b 210 1018 129 1015 171 1015 b -18 664 185 942 36 714 l -35 650 b -7 1043 -31 772 -35 1046 b 49 1068 15 1054 26 1081 b NaN NaN 72 1060 90 1057 m NaN NaN b NaN NaN NaN NaN NaN NaN l NaN NaN "},"ㅷ":{"ha":129,"x_min":0,"x_max":0,"o":"m 507 714 b 615 699 543 711 571 708 b NaN NaN 629 671 671 NaN z m NaN NaN b NaN NaN NaN NaN NaN NaN l NaN NaN z m NaN NaN b NaN NaN NaN NaN NaN NaN b NaN NaN NaN NaN NaN NaN b NaN NaN NaN NaN NaN NaN l NaN NaN "},"ㅸ":{"ha":-10,"x_min":0,"x_max":0,"o":"m 806 719 b 735 901 803 808 792 839 b 683 915 719 918 703 924 b 597 875 669 910 608 889 b 589 824 585 860 578 846 b 622 722 606 790 622 761 b 624 518 622 701 624 611 b 342 514 540 515 418 514 b 339 606 342 540 340 574 b 488 607 393 607 463 608 b 558 629 531 606 535 613 b 599 699 576 642 599 671 b 500 768 599 731 532 771 b 332 753 464 765 393 757 b 269 889 326 818 300 851 b 208 897 250 913 231 907 b 121 839 190 889 132 856 b 118 803 114 829 113 813 b 154 690 138 768 151 742 b 158 456 156 657 158 493 b 251 333 158 381 203 328 b 293 354 267 335 282 343 b 664 358 401 358 560 360 b 726 338 679 343 700 335 b 803 401 760 340 796 368 b 806 719 808 426 808 644 "},"ㅹ":{"ha":-10,"x_min":0,"x_max":0,"o":"m 829 479 b 832 729 832 568 832 694 b 811 849 832 771 831 814 b 750 919 793 881 779 897 b 685 935 729 935 706 940 b 635 904 674 932 646 918 b 635 864 624 890 626 874 b 669 767 660 835 668 814 l 669 742 b 622 747 657 744 642 746 l 557 747 l 557 771 b 474 914 557 842 538 875 b 426 915 456 925 440 925 b 375 872 413 906 385 892 b 382 832 369 861 374 840 b 401 768 399 815 399 806 b 403 742 401 761 403 751 b 288 736 357 740 315 739 b 286 801 288 764 286 788 b 217 888 285 844 253 864 b 164 901 201 897 181 906 b 106 856 142 896 114 875 b 113 819 100 843 101 833 b 129 782 124 806 129 796 b 136 400 129 711 136 464 b 203 332 136 367 161 336 b 260 349 226 329 246 336 b 444 347 311 346 390 347 b 769 353 547 347 699 344 b 842 425 806 357 833 392 b 829 479 844 436 847 458 z m 554 500 b 556 601 556 533 556 568 b 643 603 600 601 633 603 b 671 606 653 603 663 604 b 672 503 671 571 672 535 b 554 500 643 503 601 501 z m 289 494 b 290 597 290 526 290 563 b 406 599 317 597 360 599 b 404 497 406 565 406 531 "},"ㅺ":{"ha":129,"x_min":0,"x_max":0,"o":"m 596 294 b 460 440 576 318 508 393 b 497 588 475 494 489 546 b 417 718 513 668 474 699 b 292 707 346 742 307 736 b 288 632 268 663 272 650 b 294 536 308 607 304 574 b 149 190 271 446 219 282 b 63 125 121 154 96 135 b 178 75 89 96 136 75 b 349 164 226 75 299 75 b 394 260 364 192 379 224 b 476 122 429 208 460 156 b 588 86 493 88 554 72 b 649 185 625 101 653 149 b 596 294 644 225 628 256 z m 990 681 b 904 725 964 717 950 729 b 703 711 847 719 760 714 b 832 935 772 765 814 840 b 846 1247 840 978 843 1204 b 835 1344 849 1294 856 1317 z "},"ㅻ":{"ha":129,"x_min":0,"x_max":0,"o":"m 1006 290 b 876 271 969 279 932 275 b 804 268 850 268 828 268 b 810 579 806 364 807 542 b 771 681 813 625 800 654 b 707 726 743 706 733 714 b NaN NaN 688 736 663 NaN b NaN NaN NaN NaN NaN NaN b NaN NaN NaN NaN NaN NaN b NaN NaN NaN NaN NaN NaN b NaN NaN NaN NaN NaN NaN b NaN NaN NaN NaN NaN NaN b NaN NaN NaN NaN NaN NaN b NaN NaN NaN NaN NaN NaN b NaN NaN NaN NaN NaN NaN b NaN NaN NaN NaN NaN NaN b NaN NaN NaN NaN NaN NaN b NaN NaN NaN NaN NaN NaN b NaN NaN NaN NaN NaN NaN z "},"ㅼ":{"ha":129,"x_min":0,"x_max":0,"o":"m 1028 274 b 938 269 1010 278 957 271 b 799 267 906 267 851 267 b 803 446 800 336 803 421 b 800 215 803 410 800 296 l 797 211 l 789 197 b 743 282 782 225 767 251 b 618 425 725 306 665 375 b 654 576 633 479 646 533 b NaN NaN 608 414 539 322 b NaN NaN NaN NaN NaN NaN b NaN NaN NaN NaN NaN NaN b NaN NaN NaN NaN NaN NaN b NaN NaN NaN NaN NaN NaN b NaN NaN NaN NaN NaN NaN b NaN NaN NaN NaN NaN NaN b NaN NaN NaN NaN NaN NaN b NaN NaN NaN NaN NaN NaN b NaN NaN NaN NaN NaN NaN z "},"ㅽ":{"ha":129,"x_min":0,"x_max":0,"o":"m 1018 614 b 989 600 1015 658 1006 615 b 946 601 975 583 960 583 b NaN NaN 917 NaN NaN NaN b NaN NaN NaN NaN NaN NaN l NaN NaN b NaN NaN NaN NaN NaN NaN b NaN NaN NaN NaN NaN NaN b NaN NaN NaN NaN NaN NaN b NaN NaN NaN NaN NaN NaN b NaN NaN NaN NaN NaN NaN b NaN NaN NaN NaN NaN NaN b NaN NaN NaN NaN NaN NaN b NaN NaN NaN NaN NaN NaN b NaN NaN NaN NaN NaN NaN b NaN NaN NaN NaN NaN NaN b NaN NaN NaN NaN NaN NaN b NaN NaN NaN NaN NaN NaN b NaN NaN NaN NaN NaN NaN l NaN NaN b NaN NaN NaN NaN NaN NaN b NaN NaN NaN NaN NaN NaN b NaN NaN NaN NaN NaN NaN z m NaN NaN b NaN NaN NaN NaN NaN NaN l NaN NaN b NaN NaN NaN NaN NaN NaN b NaN NaN NaN NaN NaN NaN b NaN NaN NaN NaN NaN NaN z "},"ㅾ":{"ha":17,"x_min":0,"x_max":0,"o":"b 203 1017 129 1014 164 1014 b 15 694 182 951 79 774 b -29 771 7 719 -8 743 b -147 906 -47 793 -101 857 b -107 1065 -129 964 -115 1019 b -111 1103 -160 1078 -137 1090 b -171 1167 -83 1129 -128 1154 b -251 1274 -200 1182 -235 1242 b NaN NaN -239 1290 -231 NaN l NaN NaN "},"ㅿ":{"ha":-10,"x_min":0,"x_max":0,"o":"m 813 174 b 583 629 774 274 661 482 b 557 653 579 639 569 646 b 506 713 557 689 531 703 b 378 708 439 740 399 738 b 369 639 364 689 375 661 b 164 190 339 519 235 307 b 218 85 140 151 175 89 b 249 85 229 83 239 83 b 671 88 381 90 532 92 b 757 68 694 69 726 65 b 813 174 800 72 831 128 z m 385 242 b 494 467 419 308 461 390 b 599 242 532 393 571 311 b 385 242 528 243 456 243 z "},"ㆀ":{"ha":129,"x_min":0,"x_max":0,"o":"m 88 390 b 294 60 88 196 169 60 b 540 379 446 60 535 171 b 317 740 546 589 439 740 b 88 390 185 740 88 576 z m 574 390 b 781 60 574 196 656 60 b 1026 379 932 60 1021 171 b 803 740 1032 589 925 740 b 574 390 671 740 574 576 z m 246 399 b 317 576 246 513 275 578 b 388 389 351 575 389 494 b 311 226 386 293 356 222 b 246 399 269 231 246 311 z m 732 399 b 803 576 732 513 761 578 b 874 389 838 575 875 494 b 797 226 872 293 842 222 b 732 399 756 231 732 311 z "},"ㆁ":{"ha":-10,"x_min":0,"x_max":0,"o":"m 581 621 b 586 685 582 646 585 669 b 553 765 592 726 583 753 b 443 781 529 775 474 781 b 385 767 418 781 408 782 b 369 726 372 758 364 742 b 385 636 382 692 382 667 b 386 610 385 631 386 621 b 125 342 247 582 125 460 b 444 60 125 174 279 60 b 567 72 497 60 536 63 b 839 317 692 67 833 169 b 581 621 844 463 722 583 z m 547 240 b 471 233 525 236 494 232 b 324 339 403 238 324 274 b 503 465 324 404 407 460 b 639 338 576 451 639 404 b 547 240 639 292 599 247 z "},"ㆂ":{"ha":0,"x_min":0,"x_max":0,"o":"m 625 -399 b 575 -287 622 -358 606 -326 b 453 -147 557 -265 499 -196 b 489 7 468 -92 481 -37 b 410 138 504 88 467 118 b 264 NaN 340 161 301 153 b 301 NaN 276 NaN 289 NaN b 367 NaN 329 NaN 353 NaN b 474 NaN 382 NaN 442 NaN b 538 NaN 513 NaN 540 NaN z m -99 NaN b -182 NaN -100 NaN -137 NaN b -251 NaN -224 NaN -251 NaN b -174 NaN -251 NaN -215 NaN b -99 NaN -139 NaN -97 NaN z "},"ㆃ":{"ha":0,"x_min":0,"x_max":0,"o":"m 633 -407 b 397 -167 597 -308 518 -94 b 28 -219 183 -229 67 -250 b -40 -161 -35 -182 -39 -171 b -33 53 -40 -151 -37 -50 b NaN NaN -32 154 -36 NaN z m NaN NaN b NaN NaN NaN NaN NaN NaN b NaN NaN NaN NaN NaN NaN b NaN NaN NaN NaN NaN NaN b NaN NaN NaN NaN NaN NaN z m NaN NaN b NaN NaN NaN NaN NaN NaN b NaN NaN NaN NaN NaN NaN b NaN NaN NaN NaN NaN NaN z "},"ㆄ":{"ha":-10,"x_min":0,"x_max":0,"o":"m 219 718 b 315 704 251 707 293 704 b 732 717 394 704 656 711 b 803 768 767 719 799 736 b 744 868 807 796 765 846 b 685 885 729 885 715 892 b 600 871 657 878 640 875 b 319 864 564 867 368 864 b 226 875 296 864 247 864 b 161 838 200 889 186 875 b 150 765 143 810 131 785 b 219 718 174 742 193 728 z m 835 449 b 717 515 797 489 767 511 l 713 515 b 721 600 718 553 719 583 b 689 658 722 633 714 651 b 571 679 658 667 608 679 b 529 657 547 679 538 676 b 535 613 519 635 529 622 b 544 564 542 600 544 586 b 543 517 544 551 544 535 l 438 514 b 438 593 439 546 439 576 b 424 644 436 607 433 626 b 368 669 417 657 389 665 b 278 675 354 672 297 676 b 238 646 258 674 249 674 b 238 603 231 628 226 608 b 261 583 247 597 256 592 b 269 535 267 574 268 550 b 271 510 269 528 271 519 b 146 500 213 507 167 504 b 114 421 97 492 97 460 b 194 346 135 374 156 361 b 256 343 206 342 232 340 b 717 346 385 358 594 360 b 822 356 788 338 793 335 b 857 394 838 367 853 386 b 835 449 863 404 864 418 "},"ㆅ":{"ha":15,"x_min":0,"x_max":0,"o":"b NaN NaN 129 474 750 NaN l NaN NaN l NaN NaN l NaN NaN l NaN NaN l NaN NaN l NaN NaN b NaN NaN NaN NaN NaN NaN b NaN NaN NaN NaN NaN NaN b NaN NaN NaN NaN NaN NaN b NaN NaN NaN NaN NaN NaN b NaN NaN NaN NaN NaN NaN b NaN NaN NaN NaN NaN NaN b NaN NaN NaN NaN NaN NaN b NaN NaN NaN NaN NaN NaN l NaN NaN l NaN NaN l NaN NaN l NaN NaN l NaN NaN l NaN NaN l NaN NaN l NaN NaN b NaN NaN NaN NaN NaN NaN b NaN NaN NaN NaN NaN NaN b NaN NaN NaN NaN NaN NaN m NaN NaN z m NaN NaN b NaN NaN NaN NaN NaN NaN b NaN NaN NaN NaN NaN NaN z m NaN NaN z m NaN NaN b NaN NaN NaN NaN NaN NaN b NaN NaN NaN NaN NaN NaN b NaN NaN NaN NaN NaN NaN b NaN NaN NaN NaN NaN NaN z "},"ㆆ":{"ha":-10,"x_min":0,"x_max":0,"o":"m 313 557 b 457 668 319 646 474 646 b 390 690 436 681 418 692 b NaN NaN 374 689 NaN NaN b NaN NaN NaN NaN NaN NaN b NaN NaN NaN NaN NaN NaN b NaN NaN NaN NaN NaN NaN z m NaN NaN b NaN NaN NaN NaN NaN NaN b NaN NaN NaN NaN NaN NaN b NaN NaN NaN NaN NaN NaN b NaN NaN NaN NaN NaN NaN b NaN NaN NaN NaN NaN NaN b NaN NaN NaN NaN NaN NaN z m NaN NaN b NaN NaN NaN NaN NaN NaN b NaN NaN NaN NaN NaN NaN b NaN NaN NaN NaN NaN NaN b NaN NaN NaN NaN NaN NaN b NaN NaN NaN NaN NaN NaN z "},"ㆇ":{"ha":26,"x_min":0,"x_max":0,"o":"b 625 NaN 225 1136 631 1085 l NaN NaN b NaN NaN NaN NaN NaN NaN b NaN NaN NaN NaN NaN NaN l NaN NaN l NaN NaN b NaN NaN NaN NaN NaN NaN b NaN NaN NaN NaN NaN NaN b NaN NaN NaN NaN NaN NaN b NaN NaN NaN NaN NaN NaN b NaN NaN NaN NaN NaN NaN b NaN NaN NaN NaN NaN NaN b NaN NaN NaN NaN NaN NaN b NaN NaN NaN NaN NaN NaN b NaN NaN NaN NaN NaN NaN b NaN NaN NaN NaN NaN NaN b NaN NaN NaN NaN NaN NaN b NaN NaN NaN NaN NaN NaN b NaN NaN NaN NaN NaN NaN b NaN NaN NaN NaN NaN NaN b NaN NaN NaN NaN NaN NaN b NaN NaN NaN NaN NaN NaN l NaN NaN b NaN NaN NaN NaN NaN NaN "},"ㆈ":{"ha":-1,"x_min":0,"x_max":0,"o":"l 0 244 l 1128 244 l 1128 142 b 1044 140 1101 143 1072 143 l 1044 160 b 944 369 1047 261 1026 304 b 850 446 901 404 879 428 b 649 449 821 449 750 453 b 388 NaN 519 446 394 374 l NaN NaN b NaN NaN NaN NaN NaN NaN b NaN NaN NaN NaN NaN NaN b NaN NaN NaN NaN NaN NaN l NaN NaN l NaN NaN b NaN NaN NaN NaN NaN NaN b NaN NaN NaN NaN NaN NaN b NaN NaN NaN NaN NaN NaN b NaN NaN NaN NaN NaN NaN b NaN NaN NaN NaN NaN NaN l NaN NaN b NaN NaN NaN NaN NaN NaN b NaN NaN NaN NaN NaN NaN b NaN NaN NaN NaN NaN NaN b NaN NaN NaN NaN NaN NaN b NaN NaN NaN NaN NaN NaN b NaN NaN NaN NaN NaN NaN l NaN NaN b NaN NaN NaN NaN NaN NaN b NaN NaN NaN NaN NaN NaN m NaN NaN l NaN NaN l NaN NaN l NaN NaN l NaN NaN l NaN NaN l NaN NaN b NaN NaN NaN NaN NaN NaN b NaN NaN NaN NaN NaN NaN b NaN NaN NaN NaN NaN NaN z "},"ㆉ":{"ha":0,"x_min":0,"x_max":0,"o":"b 174 763 174 1042 175 938 b NaN NaN 171 597 46 585 l NaN NaN b NaN NaN NaN NaN NaN NaN b NaN NaN NaN NaN NaN NaN b NaN NaN NaN NaN NaN NaN b NaN NaN NaN NaN NaN NaN b NaN NaN NaN NaN NaN NaN b NaN NaN NaN NaN NaN NaN b NaN NaN NaN NaN NaN NaN b NaN NaN NaN NaN NaN NaN b NaN NaN NaN NaN NaN NaN b NaN NaN NaN NaN NaN NaN b NaN NaN NaN NaN NaN NaN "},"ㆊ":{"ha":8,"x_min":0,"x_max":0,"o":"b 215 804 213 1076 218 974 b NaN NaN 211 642 NaN NaN b NaN NaN NaN NaN NaN NaN b NaN NaN NaN NaN NaN NaN b NaN NaN NaN NaN NaN NaN l NaN NaN b NaN NaN NaN NaN NaN NaN b NaN NaN NaN NaN NaN NaN b NaN NaN NaN NaN NaN NaN m NaN NaN b NaN NaN NaN NaN NaN NaN b NaN NaN NaN NaN NaN NaN l NaN NaN b NaN NaN NaN NaN NaN NaN b NaN NaN NaN NaN NaN NaN b NaN NaN NaN NaN NaN NaN b NaN NaN NaN NaN NaN NaN b NaN NaN NaN NaN NaN NaN b NaN NaN NaN NaN NaN NaN l NaN NaN b NaN NaN NaN NaN NaN NaN b NaN NaN NaN NaN NaN NaN b NaN NaN NaN NaN NaN NaN b NaN NaN NaN NaN NaN NaN b NaN NaN NaN NaN NaN NaN z "},"ㆋ":{"ha":128,"x_min":0,"x_max":0,"o":"b 133 1199 218 1101 204 1132 b 31 1193 94 1235 76 1229 b 13 1100 -7 1164 -11 1138 b -50 1147 32 1069 50 1106 b -7 1224 -125 1151 -81 1197 b NaN NaN 56 NaN NaN NaN b NaN NaN NaN NaN NaN NaN m NaN NaN b NaN NaN NaN NaN NaN NaN b NaN NaN NaN NaN NaN NaN b NaN NaN NaN NaN NaN NaN b NaN NaN NaN NaN NaN NaN l NaN NaN b NaN NaN NaN NaN NaN NaN b NaN NaN NaN NaN NaN NaN b NaN NaN NaN NaN NaN NaN b NaN NaN NaN NaN NaN NaN b NaN NaN NaN NaN NaN NaN l NaN NaN l NaN NaN b NaN NaN NaN NaN NaN NaN b NaN NaN NaN NaN NaN NaN b NaN NaN NaN NaN NaN NaN b NaN NaN NaN NaN NaN NaN b NaN NaN NaN NaN NaN NaN b NaN NaN NaN NaN NaN NaN b NaN NaN NaN NaN NaN NaN b NaN NaN NaN NaN NaN NaN b NaN NaN NaN NaN NaN NaN b NaN NaN NaN NaN NaN NaN b NaN NaN NaN NaN NaN NaN b NaN NaN NaN NaN NaN NaN b NaN NaN NaN NaN NaN NaN b NaN NaN NaN NaN NaN NaN b NaN NaN NaN NaN NaN NaN b NaN NaN NaN NaN NaN NaN b NaN NaN NaN NaN NaN NaN b NaN NaN NaN NaN NaN NaN b NaN NaN NaN NaN NaN NaN b NaN NaN NaN NaN NaN NaN b NaN NaN NaN NaN NaN NaN b NaN NaN NaN NaN NaN NaN b NaN NaN NaN NaN NaN NaN b NaN NaN NaN NaN NaN NaN b NaN NaN NaN NaN NaN NaN b NaN NaN NaN NaN NaN NaN b NaN NaN NaN NaN NaN NaN z "},"ㆌ":{"ha":176,"x_min":0,"x_max":0,"o":"m -349 -347 b 547 -646 692 -360 560 -650 b 510 -683 536 -657 528 -665 b 493 -729 504 -693 494 -710 b 592 -846 501 -744 531 -799 b NaN NaN 654 -843 NaN NaN b NaN NaN NaN NaN NaN NaN b NaN NaN NaN NaN NaN NaN b NaN NaN NaN NaN NaN NaN b NaN NaN NaN NaN NaN NaN b NaN NaN NaN NaN NaN NaN b NaN NaN NaN NaN NaN NaN b NaN NaN NaN NaN NaN NaN b NaN NaN NaN NaN NaN NaN b NaN NaN NaN NaN NaN NaN b NaN NaN NaN NaN NaN NaN b NaN NaN NaN NaN NaN NaN b NaN NaN NaN NaN NaN NaN l NaN NaN "},"ㆍ":{"ha":0,"x_min":0,"x_max":0,"o":""},"ㆎ":{"ha":-10,"x_min":0,"x_max":0,"o":"m 568 -212 l 569 36 b 557 -508 571 -43 558 -425 b 560 -793 554 -656 556 -697 "},"ⅰ":{"ha":0,"x_min":0,"x_max":0,"o":""},"ⅱ":{"ha":407,"x_min":0,"x_max":0,"o":"m 389 0 z m 47 -885 z m 436 -885 z "},"ⅲ":{"ha":407,"x_min":0,"x_max":0,"o":"m 333 0 z m 667 0 z m 47 -885 z m 381 -885 z m 714 -885 z "},"ⅳ":{"ha":407,"x_min":0,"x_max":0,"o":"m -746 -112 z "},"ⅴ":{"ha":0,"x_min":0,"x_max":0,"o":""},"ⅵ":{"ha":0,"x_min":0,"x_max":0,"o":""},"ⅶ":{"ha":407,"x_min":0,"x_max":0,"o":"m 817 782 b 968 890 901 786 971 838 b 928 969 967 914 961 953 b 811 967 896 985 863 990 b 728 857 763 944 729 915 b 817 782 726 792 790 781 z m 1100 782 b 1251 890 1186 786 1254 838 b 1211 969 1250 914 1246 953 b 1094 967 1181 985 1146 990 b 1013 857 1046 944 1014 915 b 1100 782 1011 792 1075 781 z m 674 647 b 567 685 649 663 601 681 b 517 643 535 689 515 664 b 504 538 519 611 519 597 b 417 169 488 472 450 304 b 319 579 394 274 332 535 b 268 658 311 610 300 638 b 165 663 232 682 211 682 b 99 615 146 654 121 632 b 93 567 76 599 78 579 b 139 499 111 551 128 538 b 271 0 165 408 260 42 b 379 -85 290 -72 324 -97 l 394 -81 l 404 -85 b 533 -33 457 -104 515 -82 b 708 547 568 60 668 410 b 674 647 719 585 706 628 z m 969 535 b 924 657 969 583 953 617 b 860 675 910 676 885 681 b 772 639 833 669 783 646 b 747 588 750 625 738 611 b 669 NaN 761 650 700 667 b 756 NaN 706 NaN 740 NaN b 778 NaN 779 NaN 781 NaN z m 1063 NaN b 1017 NaN 1063 NaN 1046 NaN b 954 NaN 1003 NaN 979 NaN b 865 NaN 928 NaN 878 NaN b 842 NaN 844 NaN 832 NaN b 763 NaN 854 NaN 793 NaN b 850 NaN 800 NaN 833 NaN b 871 NaN 875 NaN 874 NaN z "},"ⅷ":{"ha":407,"x_min":0,"x_max":0,"o":"m 671 782 b 807 890 746 786 810 838 b 771 969 806 914 800 953 b 665 967 742 986 711 990 b 590 857 621 944 592 915 b 671 782 589 792 647 781 z m 925 782 b 1061 890 1003 786 1064 838 b 1025 969 1060 914 1056 953 b 921 967 997 985 967 990 b 847 857 876 944 849 915 b 925 782 846 792 903 781 z m 1179 782 b 1317 890 1257 786 1319 838 b 1281 969 1315 914 1311 953 b 1175 967 1253 985 1221 990 b 1101 857 1132 944 1103 915 b 1179 782 1100 792 1157 781 z m 539 647 b 439 685 515 663 472 681 b 393 643 410 689 392 664 b 382 538 396 611 392 597 b 333 225 372 481 354 347 b 276 579 314 346 283 542 b 228 658 271 610 258 638 b 133 663 194 682 175 682 b 71 615 115 654 92 632 b 65 567 50 599 51 579 b 108 499 82 551 100 538 b 203 0 128 408 193 42 b 304 -85 219 -72 253 -96 b 313 -83 307 -85 310 -83 b 317 -85 314 -83 315 -85 b 436 -33 365 -103 419 -82 b 571 547 468 60 540 411 b 539 647 579 585 569 628 z m 808 535 b 767 657 808 583 793 617 b 708 675 754 676 731 681 b 631 639 686 669 640 646 b 608 588 610 625 600 611 b 528 NaN 619 642 558 657 b 606 NaN 560 NaN 592 NaN b 626 NaN 628 NaN 629 NaN z m 1138 NaN b 1096 NaN 1138 NaN 1122 NaN b 1039 NaN 1083 NaN 1063 NaN b 958 NaN 1015 NaN 971 NaN b 939 NaN 940 NaN 929 NaN b 957 NaN 951 NaN 954 NaN b 958 NaN 960 NaN 958 NaN b 961 NaN 958 NaN 954 NaN b 1040 NaN 968 NaN 1028 NaN b 1119 NaN 1075 NaN 1104 NaN b 1139 NaN 1143 NaN 1142 NaN z m 882 NaN b 840 NaN 882 NaN 869 NaN b 785 NaN 828 NaN 807 NaN b 706 NaN 761 NaN 715 NaN b 683 NaN 688 NaN 674 NaN b 639 NaN 696 NaN 700 NaN b NaN NaN 608 NaN NaN NaN b NaN NaN NaN NaN NaN NaN b NaN NaN NaN NaN NaN NaN z "},"ⅸ":{"ha":407,"x_min":0,"x_max":0,"o":"m 944 -710 b 1267 -783 1222 -733 1243 -758 b 1406 -946 1292 -837 1346 -893 b 1647 -851 1467 -875 1563 -812 b 1576 -972 1593 -899 1528 -937 b 1496 -814 1624 -937 1576 -881 b NaN NaN 1410 NaN NaN NaN b NaN NaN NaN NaN NaN NaN l NaN NaN "},"ⅹ":{"ha":0,"x_min":0,"x_max":0,"o":""},"Ⅰ":{"ha":0,"x_min":0,"x_max":0,"o":""},"Ⅱ":{"ha":407,"x_min":0,"x_max":0,"o":"m 1047 114 b 1010 115 1035 114 1022 114 l 1013 183 l 1013 243 l 1081 246 b 1150 335 1124 249 1136 293 b 1042 326 1057 332 1051 329 b 1047 308 1032 322 1040 317 b 1090 231 1056 282 1079 276 b NaN NaN 1089 NaN NaN NaN b NaN NaN NaN NaN NaN NaN b NaN NaN NaN NaN NaN NaN b NaN NaN NaN NaN NaN NaN b NaN NaN NaN NaN NaN NaN l NaN NaN b NaN NaN NaN NaN NaN NaN b NaN NaN NaN NaN NaN NaN b NaN NaN NaN NaN NaN NaN l NaN NaN z m NaN NaN b NaN NaN NaN NaN NaN NaN b NaN NaN NaN NaN NaN NaN b NaN NaN NaN NaN NaN NaN b NaN NaN NaN NaN NaN NaN b NaN NaN NaN NaN NaN NaN b NaN NaN NaN NaN NaN NaN b NaN NaN NaN NaN NaN NaN b NaN NaN NaN NaN NaN NaN l NaN NaN b NaN NaN NaN NaN NaN NaN b NaN NaN NaN NaN NaN NaN b NaN NaN NaN NaN NaN NaN b NaN NaN NaN NaN NaN NaN z "},"Ⅲ":{"ha":407,"x_min":0,"x_max":0,"o":"m 1144 114 b 1204 106 1144 107 1174 106 b 1251 108 1228 106 1244 107 b 1300 169 1293 115 1304 156 b NaN NaN 1257 165 NaN NaN l NaN NaN l NaN NaN b NaN NaN NaN NaN NaN NaN b NaN NaN NaN NaN NaN NaN b NaN NaN NaN NaN NaN NaN b NaN NaN NaN NaN NaN NaN l NaN NaN l NaN NaN b NaN NaN NaN NaN NaN NaN b NaN NaN NaN NaN NaN NaN b NaN NaN NaN NaN NaN NaN l NaN NaN b NaN NaN NaN NaN NaN NaN b NaN NaN NaN NaN NaN NaN b NaN NaN NaN NaN NaN NaN l NaN NaN b NaN NaN NaN NaN NaN NaN b NaN NaN NaN NaN NaN NaN b NaN NaN NaN NaN NaN NaN b NaN NaN NaN NaN NaN NaN b NaN NaN NaN NaN NaN NaN l NaN NaN b NaN NaN NaN NaN NaN NaN b NaN NaN NaN NaN NaN NaN b NaN NaN NaN NaN NaN NaN l NaN NaN b NaN NaN NaN NaN NaN NaN b NaN NaN NaN NaN NaN NaN b NaN NaN NaN NaN NaN NaN b NaN NaN NaN NaN NaN NaN b NaN NaN NaN NaN NaN NaN z m NaN NaN b NaN NaN NaN NaN NaN NaN l NaN NaN b NaN NaN NaN NaN NaN NaN b NaN NaN NaN NaN NaN NaN b NaN NaN NaN NaN NaN NaN b NaN NaN NaN NaN NaN NaN l NaN NaN b NaN NaN NaN NaN NaN NaN b NaN NaN NaN NaN NaN NaN b NaN NaN NaN NaN NaN NaN l NaN NaN b NaN NaN NaN NaN NaN NaN z m NaN NaN b NaN NaN NaN NaN NaN NaN b NaN NaN NaN NaN NaN NaN b NaN NaN NaN NaN NaN NaN b NaN NaN NaN NaN NaN NaN b NaN NaN NaN NaN NaN NaN b NaN NaN NaN NaN NaN NaN b NaN NaN NaN NaN NaN NaN b NaN NaN NaN NaN NaN NaN z "},"Ⅳ":{"ha":407,"x_min":0,"x_max":0,"o":"m 1256 938 b 1231 876 1232 938 1231 890 b 1226 825 1231 839 1214 825 b 1219 781 1214 825 1219 793 b 1207 769 1219 768 1219 769 b 1207 914 1210 838 1210 897 b 1228 944 1208 926 1215 936 l 1206 NaN b 1297 NaN 1219 NaN 1243 NaN b 1325 NaN 1307 NaN 1317 NaN b 1481 NaN 1375 NaN 1411 NaN b 1715 NaN 1567 NaN 1685 NaN b 1689 NaN 1722 NaN 1721 NaN z "},"Ⅴ":{"ha":0,"x_min":0,"x_max":0,"o":""},"Ⅵ":{"ha":407,"x_min":0,"x_max":0,"o":"m 1188 114 l 1161 114 b 1161 232 1164 182 1164 243 l 1128 NaN b 1099 NaN 1128 NaN 1121 NaN b 958 NaN 1068 NaN 993 NaN b 950 NaN 940 NaN 942 NaN b 985 NaN 956 NaN 978 NaN b 1010 NaN 994 NaN 1003 NaN b 1101 NaN 1024 NaN 1047 NaN b 1129 NaN 1111 NaN 1121 NaN b 1285 NaN 1179 NaN 1215 NaN b 1510 NaN 1364 NaN 1469 NaN b 1514 NaN 1510 NaN 1517 NaN b 1508 NaN 1544 NaN 1508 NaN l 1408 NaN b 1360 NaN 1386 NaN 1367 NaN z "},"Ⅶ":{"ha":407,"x_min":0,"x_max":0,"o":"m 1239 114 l 1233 114 b 1363 117 1233 117 1301 117 b 1390 NaN 1392 117 1390 147 b 1435 NaN 1413 NaN 1428 NaN b 1483 NaN 1475 NaN 1486 NaN b NaN NaN 1442 NaN NaN NaN b NaN NaN NaN NaN NaN NaN b NaN NaN NaN NaN NaN NaN b NaN NaN NaN NaN NaN NaN l NaN NaN l NaN NaN b NaN NaN NaN NaN NaN NaN b NaN NaN NaN NaN NaN NaN b NaN NaN NaN NaN NaN NaN b NaN NaN NaN NaN NaN NaN b NaN NaN NaN NaN NaN NaN b NaN NaN NaN NaN NaN NaN b NaN NaN NaN NaN NaN NaN b NaN NaN NaN NaN NaN NaN b NaN NaN NaN NaN NaN NaN b NaN NaN NaN NaN NaN NaN b NaN NaN NaN NaN NaN NaN b NaN NaN NaN NaN NaN NaN b NaN NaN NaN NaN NaN NaN b NaN NaN NaN NaN NaN NaN b NaN NaN NaN NaN NaN NaN b NaN NaN NaN NaN NaN NaN b NaN NaN NaN NaN NaN NaN b NaN NaN NaN NaN NaN NaN b NaN NaN NaN NaN NaN NaN b NaN NaN NaN NaN NaN NaN b NaN NaN NaN NaN NaN NaN b NaN NaN NaN NaN NaN NaN b NaN NaN NaN NaN NaN NaN l NaN NaN b NaN NaN NaN NaN NaN NaN b NaN NaN NaN NaN NaN NaN b NaN NaN NaN NaN NaN NaN b NaN NaN NaN NaN NaN NaN b NaN NaN NaN NaN NaN NaN b NaN NaN NaN NaN NaN NaN b NaN NaN NaN NaN NaN NaN b NaN NaN NaN NaN NaN NaN b NaN NaN NaN NaN NaN NaN l NaN NaN b NaN NaN NaN NaN NaN NaN b NaN NaN NaN NaN NaN NaN b NaN NaN NaN NaN NaN NaN b NaN NaN NaN NaN NaN NaN b NaN NaN NaN NaN NaN NaN z m NaN NaN b NaN NaN NaN NaN NaN NaN l NaN NaN b NaN NaN NaN NaN NaN NaN b NaN NaN NaN NaN NaN NaN b NaN NaN NaN NaN NaN NaN b NaN NaN NaN NaN NaN NaN b NaN NaN NaN NaN NaN NaN b NaN NaN NaN NaN NaN NaN l NaN NaN b NaN NaN NaN NaN NaN NaN z "},"Ⅷ":{"ha":407,"x_min":0,"x_max":0,"o":"m 1290 114 b 1288 333 1294 182 1290 242 b 1322 336 1304 335 1317 335 b 1364 425 1354 343 1364 383 b 1344 485 1364 438 1356 464 b 1274 518 1329 513 1307 521 b 1128 513 1232 514 1169 510 b 1069 472 1104 514 1079 493 b 1060 485 1067 476 1064 481 b 1003 518 1039 508 1036 522 b 851 513 961 513 893 510 b 793 474 828 514 804 494 l 785 485 b 728 518 764 508 761 522 b 576 513 686 514 618 510 b 524 482 557 514 536 499 b 507 511 519 492 514 501 b 458 522 496 528 471 526 b 389 486 438 517 406 507 b 371 381 374 463 379 435 b 289 -128 351 253 318 40 b 228 360 269 24 242 243 b 200 460 224 394 215 426 b 140 518 186 489 169 519 b 28 471 115 517 56 496 b 22 408 14 458 15 425 b 49 376 28 396 42 388 b 68 325 58 361 65 346 b 175 -362 79 239 156 -243 b 246 -478 183 -414 203 -469 b 271 -476 256 -479 264 -479 b 388 -361 313 -493 356 -504 b 518 343 422 -210 481 115 b 567 329 529 331 550 329 l 572 329 b 569 160 569 275 571 211 b 569 -129 568 76 571 6 b 572 -297 568 -194 569 -250 b 540 -299 561 -297 551 -297 b 496 -339 517 -300 499 -318 b 513 -442 492 -372 504 -412 b 565 -481 519 -467 549 -481 b 736 -479 582 -481 679 -475 b 792 -439 765 -482 782 -464 l 792 -442 b 838 -481 799 -467 819 -482 b 1018 -479 857 -479 960 -475 b 1079 -424 1054 -482 1069 -454 l 1085 -442 b 1135 -481 1093 -467 1115 -482 b 1278 -479 1157 -479 1214 -475 b 1361 -368 1340 -483 1351 -412 b 1382 -282 1368 -336 1374 -308 b 1292 -297 1367 -293 1329 -299 z m 1075 -317 b 1017 -297 1064 -306 1044 -297 l 1013 -297 b NaN NaN 1014 -297 1017 NaN b NaN NaN NaN NaN NaN NaN b NaN NaN NaN NaN NaN NaN l NaN NaN b NaN NaN NaN NaN NaN NaN l NaN NaN b NaN NaN NaN NaN NaN NaN b NaN NaN NaN NaN NaN NaN b NaN NaN NaN NaN NaN NaN z m NaN NaN b NaN NaN NaN NaN NaN NaN b NaN NaN NaN NaN NaN NaN b NaN NaN NaN NaN NaN NaN b NaN NaN NaN NaN NaN NaN b NaN NaN NaN NaN NaN NaN b NaN NaN NaN NaN NaN NaN l NaN NaN b NaN NaN NaN NaN NaN NaN b NaN NaN NaN NaN NaN NaN b NaN NaN NaN NaN NaN NaN z "},"Ⅸ":{"ha":407,"x_min":0,"x_max":0,"o":"m 1299 139 l 1094 442 l 1200 631 b 1301 801 1229 682 1276 760 b 1239 915 1325 842 1283 890 b 1113 938 1193 940 1131 949 b 1081 881 1094 926 1078 908 b 1065 806 1083 857 1074 824 b 971 626 1042 756 1010 693 b 797 890 888 751 817 858 b 665 924 768 938 708 936 b 581 842 633 914 581 885 b 597 803 581 824 589 813 b 644 743 615 782 629 767 l 842 435 b 626 78 763 293 678 153 b 564 6 604 44 583 19 l 574 47 l 547 47 b 547 167 550 115 550 176 b 436 NaN 525 156 471 153 b 429 NaN 436 NaN 433 NaN b 426 NaN 464 NaN 426 NaN b 649 NaN 392 NaN 564 NaN b 733 NaN 694 NaN 718 NaN b 863 NaN 769 NaN 815 NaN b 994 NaN 917 NaN 961 NaN b 1143 NaN 1031 NaN 1086 NaN b 1288 NaN 1207 NaN 1261 NaN b 1508 NaN 1350 NaN 1431 NaN b 1481 NaN 1497 NaN 1528 NaN z "},"Ⅹ":{"ha":407,"x_min":0,"x_max":0,"o":"m 1039 153 b 829 443 1007 194 922 313 l 946 632 b 1047 789 978 683 1019 747 b 993 910 1074 829 1040 883 b 853 936 942 939 872 947 b 817 879 832 925 814 907 b 800 804 819 856 808 822 b 697 625 776 753 740 692 b 510 890 608 750 532 857 b 351 1065 478 938 411 979 b -39 971 231 1154 103 1067 b -306 843 -179 914 -254 875 b -378 913 -337 808 -339 850 b -412 1083 -410 974 -411 1035 b -283 1222 -399 1121 -343 1161 b NaN NaN -187 1285 -85 NaN b NaN NaN NaN NaN NaN NaN b NaN NaN NaN NaN NaN NaN b NaN NaN NaN NaN NaN NaN z "},"Α":{"ha":0,"x_min":0,"x_max":0,"o":""},"Β":{"ha":0,"x_min":0,"x_max":0,"o":""},"Γ":{"ha":-269,"x_min":0,"x_max":0,"o":"m 703 958 l 97 958 l 97 -39 l 325 -39 l 325 767 l 703 767 z "},"Δ":{"ha":-21,"x_min":0,"x_max":0,"o":"m 21 72 l 21 -39 l 931 -39 l 931 74 b 617 958 778 497 771 529 l 343 958 b 21 72 183 529 176 497 z m 667 144 l 269 144 b 408 572 350 375 331 343 b 465 774 428 640 450 725 l 468 774 b 528 560 478 736 500 657 b 667 144 607 340 590 368 z "},"Ε":{"ha":0,"x_min":0,"x_max":0,"o":""},"Ζ":{"ha":-126,"x_min":0,"x_max":0,"o":"m 33 82 l 33 -39 l 810 -39 l 810 151 l 340 151 l 340 156 l 801 826 l 801 958 l 76 958 l 76 771 l 507 771 l 507 763 z "},"Η":{"ha":0,"x_min":0,"x_max":0,"o":""},"Θ":{"ha":83,"x_min":0,"x_max":0,"o":"m 519 -56 l 521 -56 b 1013 468 814 -56 1013 142 b 539 975 1013 744 846 975 b 50 451 242 975 50 751 b 519 -56 50 168 224 -56 z m 533 125 l 532 125 b 290 458 381 125 290 269 b 535 790 290 643 378 790 b 771 461 688 790 771 640 b 533 125 771 268 685 125 z m 682 558 l 376 558 l 376 374 l 682 374 z "},"Ι":{"ha":-561,"x_min":0,"x_max":0,"o":"m 325 958 l 97 958 l 97 -39 l 325 -39 z "},"Κ":{"ha":-71,"x_min":0,"x_max":0,"o":"m 100 958 l 100 -39 l 324 -39 l 324 288 l 408 390 l 651 -39 l 918 -39 l 571 533 l 900 958 l 618 958 l 397 628 b 328 518 372 596 350 557 l 324 518 l 324 958 z "},"Λ":{"ha":-22,"x_min":0,"x_max":0,"o":"m 689 -39 l 943 -39 l 626 958 l 331 958 l 25 -39 l 268 -39 l 424 551 b 465 768 439 624 451 701 l 469 768 b 521 556 485 700 504 626 z "},"Μ":{"ha":0,"x_min":0,"x_max":0,"o":""},"Ν":{"ha":43,"x_min":0,"x_max":0,"o":"m 97 -39 l 307 -39 l 307 256 b 294 693 307 422 301 561 l 301 694 b 472 343 351 576 411 450 l 685 -39 l 925 -39 l 925 958 l 714 958 l 714 671 b 735 256 714 521 718 388 l 732 254 b 565 597 689 367 626 493 l 363 958 l 97 958 z "},"Ξ":{"ha":-131,"x_min":0,"x_max":0,"o":"m 774 958 l 85 958 l 85 774 l 774 774 z m 728 563 l 129 563 l 129 376 l 728 376 z m 797 144 l 64 144 l 64 -39 l 797 -39 z "},"Ο":{"ha":0,"x_min":0,"x_max":0,"o":""},"Π":{"ha":4,"x_min":0,"x_max":0,"o":"m 889 -39 l 889 958 l 100 958 l 100 -39 l 326 -39 l 326 767 l 663 767 l 663 -39 z "},"Ρ":{"ha":0,"x_min":0,"x_max":0,"o":""},"Σ":{"ha":-125,"x_min":0,"x_max":0,"o":"m 335 147 l 335 153 l 586 465 l 351 767 l 351 772 l 772 772 l 772 958 l 64 958 l 64 808 l 339 456 l 46 90 l 46 -39 l 808 -39 l 808 147 z "},"Τ":{"ha":0,"x_min":0,"x_max":0,"o":""},"Υ":{"ha":-58,"x_min":0,"x_max":0,"o":"m 46 967 l 11 779 b 329 374 190 749 292 582 b 346 178 339 301 346 251 l 346 -39 l 571 -39 l 571 172 b 596 376 571 244 581 313 b 917 772 643 574 772 735 l 882 967 b 615 822 807 964 692 911 b 475 513 550 750 494 646 l 467 513 b 339 833 454 647 410 756 b 46 967 254 926 133 968 z "},"Φ":{"ha":185,"x_min":0,"x_max":0,"o":"m 683 -78 l 683 0 b 1113 464 906 31 1113 178 b 686 922 1113 749 899 893 l 686 996 l 475 996 l 475 922 b 46 454 281 894 46 751 b 472 0 46 168 258 29 l 472 -78 z m 474 764 l 474 160 b 276 457 381 178 276 281 b 474 764 276 647 385 742 z m 685 160 l 685 764 b 883 458 779 746 883 656 b 685 160 883 261 778 178 z "},"Χ":{"ha":0,"x_min":0,"x_max":0,"o":""},"Ψ":{"ha":121,"x_min":0,"x_max":0,"o":"m 1042 669 l 1042 958 l 819 958 l 819 701 b 658 407 819 474 746 413 l 658 958 l 447 958 l 447 408 b 281 654 351 414 281 469 l 281 958 l 63 958 l 63 618 b 447 235 63 357 242 243 l 447 -39 l 658 -39 l 658 235 b 1042 669 867 246 1042 369 z "},"Ω":{"ha":121,"x_min":0,"x_max":0,"o":"m 857 135 l 857 139 b 1035 522 933 204 1035 331 b 563 975 1035 754 864 975 b 68 510 269 975 68 768 b 242 139 68 331 160 207 l 242 135 l 49 135 l 49 -39 l 493 -39 l 493 96 b 304 479 389 161 304 318 b 557 790 304 651 401 790 b 800 481 707 790 800 649 b 613 96 800 300 715 171 l 613 -39 l 1054 -39 l 1054 135 z "},"α":{"ha":-79,"x_min":0,"x_max":0,"o":"m 826 689 l 631 689 b 614 590 621 660 617 625 l 608 590 b 400 704 564 669 488 704 b 53 296 224 704 53 549 b 367 -89 53 61 192 -89 b 613 54 469 -89 560 -40 l 617 54 b 781 -89 638 -43 693 -89 b 861 -72 814 -89 847 -82 l 872 86 b 804 193 835 85 804 107 b 826 689 804 354 815 571 z m 288 303 l 288 304 b 442 531 288 429 346 531 b 575 381 507 531 560 468 b 579 314 579 360 579 340 b 572 239 579 288 578 264 b 432 96 558 165 501 96 b 288 303 347 96 288 188 z "},"β":{"ha":-71,"x_min":0,"x_max":0,"o":"m 318 -17 l 321 -17 b 531 -89 374 -69 444 -89 b 857 242 711 -89 857 42 b 650 524 857 392 754 499 l 650 531 b 774 764 731 574 774 679 b 464 1050 774 924 661 1050 b 213 958 351 1050 272 1008 b 90 574 147 896 90 799 l 90 -71 b 114 -278 90 -174 96 -236 l 333 -278 b 318 -65 319 -214 318 -158 z m 315 167 l 315 614 b 453 868 315 800 371 868 b 565 726 521 868 565 813 b 443 569 565 647 521 583 b 418 567 435 565 426 567 l 418 424 l 449 424 b 622 249 546 417 622 354 b 468 85 622 165 571 85 b 315 167 406 85 353 119 z "},"γ":{"ha":-183,"x_min":0,"x_max":0,"o":"m 268 -278 l 496 -278 b 492 -42 493 -182 489 -106 b 500 -7 492 -28 492 -18 b 768 639 657 215 768 453 b 765 694 768 660 768 683 l 543 694 b 544 631 543 683 544 667 b 431 194 544 481 481 306 l 422 194 b 239 694 383 403 293 615 l -21 694 b 242 85 65 564 190 331 b 268 -278 275 -56 272 -137 z "},"δ":{"ha":-92,"x_min":0,"x_max":0,"o":"m 714 828 l 776 972 b 500 1050 729 1007 626 1050 b 196 843 301 1050 196 946 b 276 686 196 771 250 714 l 308 658 l 308 651 b 53 288 183 593 53 476 b 440 -89 53 60 222 -89 b 840 301 661 -89 840 63 b 651 644 840 443 768 553 l 525 749 b 435 842 465 794 435 817 b 522 883 435 867 460 883 b 714 828 601 883 688 849 z m 435 544 l 504 485 b 606 281 569 429 606 357 b 454 78 606 160 540 78 b 292 292 363 78 292 174 b 435 544 292 414 356 496 z "},"ε":{"ha":-257,"x_min":0,"x_max":0,"o":"m 219 336 l 219 328 b 54 147 132 308 54 239 b 394 -89 54 -26 232 -89 b 696 -21 489 -89 613 -69 l 663 131 b 457 83 611 106 525 83 b 304 174 378 83 304 111 b 497 249 304 233 386 249 l 574 249 l 574 401 l 499 401 b 321 471 386 401 321 424 b 451 544 321 513 369 544 b 631 501 521 544 590 524 l 668 650 b 417 704 608 690 525 704 b 90 496 189 704 90 601 b 219 336 90 421 136 364 z "},"ζ":{"ha":-300,"x_min":0,"x_max":0,"o":"m 419 -229 l 567 -276 b 671 32 622 -200 671 -74 b 656 51 671 40 665 50 b 426 108 579 64 493 79 b 294 328 346 147 294 206 b 679 875 294 544 476 779 l 646 1025 l 361 1025 b 144 1029 275 1026 196 1026 l 122 883 b 296 867 165 869 224 867 l 371 867 l 371 857 b 54 283 172 700 54 485 b 282 -50 54 85 164 -7 b 457 -96 346 -75 408 -89 b 419 -229 456 -135 435 -196 z "},"η":{"ha":-74,"x_min":0,"x_max":0,"o":"m 306 585 l 300 585 b 275 689 300 624 289 663 l 69 689 b 93 446 89 631 93 546 l 93 -69 l 328 -69 l 328 369 b 336 426 328 390 331 413 b 460 515 351 471 393 515 b 581 351 543 515 581 453 l 581 -10 b 608 -278 581 -111 585 -239 l 828 -278 b 815 -8 814 -219 815 -100 l 815 381 b 542 704 815 606 699 704 b 306 585 414 704 338 633 z "},"θ":{"ha":-96,"x_min":0,"x_max":0,"o":"m 440 -89 l 442 -89 b 831 486 707 -89 831 142 b 450 1050 831 819 713 1050 b 47 486 185 1050 47 808 b 440 -89 47 106 193 -89 z m 599 572 l 281 572 b 443 885 281 747 338 885 b 599 572 546 885 599 749 z m 282 407 l 601 407 b 446 74 601 207 551 74 b 282 407 340 74 282 200 z "},"ι":{"ha":-547,"x_min":0,"x_max":0,"o":"m 328 165 l 328 689 l 93 689 l 93 143 b 286 -89 93 -37 167 -89 b 386 -74 321 -89 368 -82 l 399 88 b 328 165 349 85 328 104 z "},"κ":{"ha":-135,"x_min":0,"x_max":0,"o":"m 532 339 l 532 344 b 831 682 636 458 738 574 l 831 689 l 567 689 b 335 372 503 600 419 478 l 329 372 l 329 553 b 307 689 329 622 321 674 l 76 689 b 93 497 89 663 93 572 l 93 -69 l 329 -69 l 329 242 l 340 242 b 486 85 390 236 435 176 l 575 -69 l 839 -69 l 719 138 b 532 339 663 235 603 318 z "},"λ":{"ha":-182,"x_min":0,"x_max":0,"o":"m 440 281 l 546 -69 l 794 -69 l 507 700 b 174 1044 435 896 349 1044 b 100 1033 146 1044 113 1042 l 78 858 b 110 860 86 860 100 860 b 271 707 176 860 240 799 b 281 671 278 694 281 678 b 274 629 281 657 279 647 l 3 -69 l 246 -69 l 350 285 b 386 439 363 332 376 385 l 397 439 b 440 281 411 374 426 324 z "},"μ":{"ha":-76,"x_min":0,"x_max":0,"o":"m 604 35 l 608 35 b 776 -89 632 -43 689 -89 b 863 -72 815 -89 843 -82 l 875 89 b 810 175 829 88 810 110 l 810 689 l 579 689 l 579 236 b 571 186 579 217 575 199 b 444 99 557 146 506 99 b 328 265 367 99 328 164 l 328 689 l 96 689 l 96 -74 b 115 -278 96 -172 101 -239 l 321 -278 b 304 -74 306 -219 304 -144 l 304 -36 b 413 -82 329 -67 374 -82 b 604 35 513 -82 581 -22 z "},"ν":{"ha":-189,"x_min":0,"x_max":0,"o":"m 249 689 l -1 689 l 264 -69 l 490 -69 b 758 631 626 164 758 415 b 754 689 758 653 757 674 l 538 689 b 539 629 539 668 539 649 b 407 144 539 469 469 276 l 401 144 b 350 333 382 211 369 269 z "},"ξ":{"ha":-253,"x_min":0,"x_max":0,"o":"m 613 454 l 613 610 b 563 614 593 610 572 610 b 358 751 440 622 358 660 b 518 885 358 825 411 885 b 663 856 571 885 621 872 l 697 1007 b 481 1050 644 1031 579 1050 b 124 775 244 1050 124 919 b 285 557 124 676 181 597 l 285 550 b 50 249 154 513 50 396 b 500 -81 50 -12 315 -53 b 464 -235 499 -121 481 -201 l 608 -278 b 721 47 668 -206 721 -46 b 700 67 721 56 715 64 b 507 104 626 78 568 88 b 297 269 357 143 297 183 b 574 454 297 381 392 454 z "},"ο":{"ha":-87,"x_min":0,"x_max":0,"o":"m 444 -89 l 446 -89 b 842 317 644 -89 842 39 b 457 704 842 550 689 704 b 53 306 213 704 53 550 b 444 -89 53 54 225 -89 z m 450 78 l 449 78 b 294 310 347 78 294 176 b 450 542 294 424 336 542 b 600 313 557 542 600 422 b 450 78 600 169 542 78 z "},"π":{"ha":-54,"x_min":0,"x_max":0,"o":"m 789 513 l 881 513 l 901 689 l 276 689 b 6 638 125 689 39 674 l 29 503 b 165 513 71 513 121 513 b 85 -69 167 349 131 82 l 306 -69 b 390 513 354 47 389 335 l 560 513 l 560 150 b 583 -69 560 51 565 -40 l 807 -69 b 789 168 797 -25 789 63 z "},"ρ":{"ha":-67,"x_min":0,"x_max":0,"o":"m 324 -25 l 324 -14 b 517 -89 363 -58 431 -89 b 867 313 683 -89 867 43 b 490 704 867 547 717 704 b 233 617 389 704 303 676 b 89 235 163 554 89 457 l 89 -29 b 107 -278 89 -135 93 -239 l 331 -278 b 324 -25 325 -219 324 -117 z m 324 231 l 324 292 b 481 514 324 440 390 514 b 629 310 574 514 629 431 b 467 90 629 186 569 90 b 329 186 397 90 343 142 b 324 231 325 203 324 214 z "},"σ":{"ha":-61,"x_min":0,"x_max":0,"o":"m 726 542 l 731 547 b 896 542 806 542 860 542 l 904 704 b 731 704 871 707 782 704 l 472 704 b 53 299 213 704 53 546 b 444 -89 53 51 222 -89 b 829 307 644 -89 829 33 b 726 542 829 385 796 479 z m 449 78 l 447 78 b 294 310 349 78 294 176 b 453 542 294 424 336 542 b 599 310 558 542 599 424 b 449 78 599 169 540 78 z "},"τ":{"ha":-281,"x_min":0,"x_max":0,"o":"m 554 -71 l 563 93 b 533 92 560 92 546 92 b 454 193 490 92 454 117 l 454 513 l 664 513 l 683 689 l 251 689 b -12 639 81 689 19 664 l 17 501 b 160 513 50 511 89 513 l 224 513 l 224 182 b 447 -89 224 6 279 -89 b 554 -71 489 -89 536 -79 z "},"υ":{"ha":-115,"x_min":0,"x_max":0,"o":"m 747 689 l 531 689 b 578 382 547 646 578 521 b 440 99 578 228 540 99 b 314 253 368 99 314 151 l 314 544 b 290 689 314 628 310 671 l 65 689 b 83 435 81 642 83 550 l 83 236 b 418 -89 83 19 229 -89 b 806 397 714 -89 806 163 b 747 689 806 532 775 638 z "},"φ":{"ha":119,"x_min":0,"x_max":0,"o":"m 415 586 l 325 708 b 53 315 215 674 53 533 b 454 -87 53 50 249 -69 l 454 -278 l 660 -278 l 660 -87 b 1049 328 849 -67 1049 71 b 704 706 1049 557 885 701 b 454 439 576 708 454 632 l 454 74 b 283 321 344 96 283 192 b 415 586 283 450 350 539 z m 660 72 l 660 485 b 699 546 660 526 671 546 b 826 321 760 546 826 451 b 660 72 826 178 757 86 z "},"χ":{"ha":-203,"x_min":0,"x_max":0,"o":"m 258 688 l 11 688 l 269 240 l 0 -229 l 201 -275 l 313 -60 b 371 68 339 -8 357 40 l 376 69 l 558 -275 l 779 -231 l 515 240 l 781 688 l 554 688 l 465 506 b 413 385 447 461 428 425 l 407 385 z "},"ψ":{"ha":142,"x_min":0,"x_max":0,"o":"m 467 -61 l 467 -278 l 674 -278 l 674 -61 b 1065 418 967 -40 1065 190 b 1003 689 1065 564 1038 629 l 794 689 b 847 408 813 653 847 558 b 674 103 847 249 788 107 l 674 886 l 467 886 l 467 103 b 308 374 381 110 308 171 l 308 544 b 285 689 308 617 304 672 l 76 689 b 88 496 86 639 88 572 l 88 354 b 467 -61 88 47 268 -46 z "},"ω":{"ha":154,"x_min":0,"x_max":0,"o":"m 669 231 l 675 510 l 461 510 l 461 233 b 383 107 463 161 433 107 b 279 328 335 107 279 175 b 389 688 279 471 325 603 l 389 694 l 181 694 b 53 317 118 624 53 490 b 354 -89 53 42 200 -89 b 561 36 449 -89 519 -37 l 567 36 b 767 -89 601 -44 681 -89 b 1086 336 944 -89 1086 63 b 961 694 1086 506 1021 639 l 751 694 l 751 688 b 858 344 822 611 858 472 b 747 107 858 190 811 107 b 669 231 697 107 667 163 z "},"─":{"ha":0,"x_min":0,"x_max":0,"o":"l 0 -1278 l -40 -1278 "},"│":{"ha":296,"x_min":0,"x_max":0,"o":"m 660 -278 l 660 1111 l 619 1111 l 619 -278 z "},"┌":{"ha":0,"x_min":0,"x_max":0,"o":"l 0 -658 l -715 -658 l -715 -618 l -40 -618 "},"┐":{"ha":296,"x_min":0,"x_max":0,"o":"m 660 -278 l 660 438 l 0 438 l 0 397 l 619 397 l 619 -278 z "},"┘":{"ha":296,"x_min":0,"x_max":0,"o":"m 660 397 l 660 1111 l 619 1111 l 619 438 l 0 438 l 0 397 z "},"└":{"ha":0,"x_min":0,"x_max":0,"o":"l 0 -714 "},"├":{"ha":0,"x_min":0,"x_max":0,"o":"l 0 -1389 l 40 -1389 l 40 -714 "},"┬":{"ha":0,"x_min":0,"x_max":0,"o":"l 0 -1278 l -40 -1278 l -40 -658 l -715 -658 l -715 -618 l -40 -618 "},"┤":{"ha":296,"x_min":0,"x_max":0,"o":"m 660 -278 l 660 1111 l 619 1111 l 619 438 l 0 438 l 0 397 l 619 397 l 619 -278 z "},"┴":{"ha":0,"x_min":0,"x_max":0,"o":"l 0 -674 l -619 -674 l -619 -714 "},"┼":{"ha":296,"x_min":0,"x_max":0,"o":"m 1278 396 l 1278 436 l 660 436 l 660 1111 l 619 1111 l 619 436 l 0 436 l 0 396 l 619 396 l 619 -278 l 660 -278 l 660 396 z "},"━":{"ha":296,"x_min":0,"x_max":0,"o":"m 1278 376 l 1278 451 l 0 451 l 0 376 z "},"┃":{"ha":296,"x_min":0,"x_max":0,"o":"m 676 -278 l 676 1111 l 601 1111 l 601 -278 z "},"┏":{"ha":296,"x_min":0,"x_max":0,"o":"m 1278 376 l 1278 451 l 601 451 l 601 -278 l 676 -278 l 676 376 z "},"┓":{"ha":296,"x_min":0,"x_max":0,"o":"m 676 -278 l 676 451 l 0 451 l 0 376 l 601 376 l 601 -278 z "},"┛":{"ha":296,"x_min":0,"x_max":0,"o":"m 676 376 l 676 1111 l 601 1111 l 601 451 l 0 451 l 0 376 z "},"┗":{"ha":0,"x_min":0,"x_max":0,"o":"l 0 -735 "},"┣":{"ha":0,"x_min":0,"x_max":0,"o":"l 0 -1389 l 75 -1389 l 75 -735 "},"┳":{"ha":296,"x_min":0,"x_max":0,"o":"m 1278 376 l 1278 451 l 0 451 l 0 376 l 601 376 l 601 -278 l 676 -278 l 676 376 z "},"┫":{"ha":296,"x_min":0,"x_max":0,"o":"m 676 -278 l 676 1111 l 601 1111 l 601 451 l 0 451 l 0 376 l 601 376 l 601 -278 z "},"┻":{"ha":0,"x_min":0,"x_max":0,"o":"l 0 -660 l -601 -660 l -601 -735 "},"╋":{"ha":0,"x_min":0,"x_max":0,"o":"l 0 -660 l -601 -660 l -601 -735 l 0 -735 l 0 -1389 l 75 -1389 l 75 -735 "},"┠":{"ha":0,"x_min":0,"x_max":0,"o":"l 0 -587 l 669 -587 l 669 -693 l -719 -693 l -719 -587 l -50 -587 "},"┯":{"ha":0,"x_min":0,"x_max":0,"o":"l 0 -1278 l -100 -1278 l -100 -665 l -744 -665 l -744 -612 l -100 -612 "},"┨":{"ha":296,"x_min":0,"x_max":0,"o":"m 692 -278 l 692 1111 l 586 1111 l 586 442 l 0 442 l 0 392 l 586 392 l 586 -278 z "},"┷":{"ha":0,"x_min":0,"x_max":0,"o":"l 0 -644 l -612 -644 l -612 -744 "},"┿":{"ha":0,"x_min":0,"x_max":0,"o":"l 0 -644 l -612 -644 l -612 -744 l 0 -744 l 0 -1389 l 53 -1389 l 53 -744 "},"┝":{"ha":0,"x_min":0,"x_max":0,"o":"l 0 -1389 l 53 -1389 l 53 -744 "},"┰":{"ha":0,"x_min":0,"x_max":0,"o":"l 0 -1278 l -50 -1278 l -50 -692 l -719 -692 l -719 -586 l -50 -586 "},"┥":{"ha":296,"x_min":0,"x_max":0,"o":"m 665 -278 l 665 1111 l 613 1111 l 613 467 l 0 467 l 0 367 l 613 367 l 613 -278 z "},"┸":{"ha":0,"x_min":0,"x_max":0,"o":"l 0 -669 l -586 -669 l -586 -719 "},"╂":{"ha":0,"x_min":0,"x_max":0,"o":"l 0 -669 l -586 -669 l -586 -719 l 0 -719 l 0 -1389 l 106 -1389 l 106 -719 "},"┒":{"ha":296,"x_min":0,"x_max":0,"o":"m 692 -278 l 692 442 l 0 442 l 0 392 l 586 392 l 586 -278 z "},"┑":{"ha":296,"x_min":0,"x_max":0,"o":"m 665 -278 l 665 467 l 0 467 l 0 367 l 613 367 l 613 -278 z "},"┚":{"ha":296,"x_min":0,"x_max":0,"o":"m 692 392 l 692 1111 l 586 1111 l 586 442 l 0 442 l 0 392 z "},"┙":{"ha":296,"x_min":0,"x_max":0,"o":"m 665 367 l 665 1111 l 613 1111 l 613 467 l 0 467 l 0 367 z "},"┖":{"ha":0,"x_min":0,"x_max":0,"o":"l 0 -719 "},"┕":{"ha":0,"x_min":0,"x_max":0,"o":"l 0 -744 "},"┎":{"ha":0,"x_min":0,"x_max":0,"o":"l 0 -692 l -719 -692 l -719 -586 l -50 -586 "},"┍":{"ha":0,"x_min":0,"x_max":0,"o":"l 0 -665 l -744 -665 l -744 -612 l -100 -612 "},"┞":{"ha":0,"x_min":0,"x_max":0,"o":"l 0 -694 l 26 -694 l 26 -1389 l 79 -1389 l 78 -719 "},"┟":{"ha":0,"x_min":0,"x_max":0,"o":"l 0 -694 l -26 -694 l -26 -1389 l 79 -1389 l 79 -719 "},"┡":{"ha":0,"x_min":0,"x_max":0,"o":"l 0 -586 l 644 -586 l 644 -692 l -50 -692 l -50 -665 l -744 -665 l -744 -612 l -100 -612 "},"┢":{"ha":0,"x_min":0,"x_max":0,"o":"l 0 -694 l -26 -694 l -26 -1389 l 79 -1389 l 79 -744 "},"┦":{"ha":296,"x_min":0,"x_max":0,"o":"m 692 417 l 692 1111 l 586 1111 l 586 442 l 0 442 l 0 392 l 613 392 l 613 -278 l 665 -278 l 665 417 z "},"┧":{"ha":0,"x_min":0,"x_max":0,"o":"l 0 -669 l -612 -669 l -612 -719 l -26 -719 l -26 -1389 "},"┩":{"ha":296,"x_min":0,"x_max":0,"o":"m 692 417 l 692 1111 l 586 1111 l 586 467 l 0 467 l 0 367 l 613 367 l 613 -278 l 665 -278 l 665 417 z "},"┪":{"ha":0,"x_min":0,"x_max":0,"o":"l 0 -644 l -612 -644 l -612 -744 l -26 -744 l -26 -1389 "},"┭":{"ha":0,"x_min":0,"x_max":0,"o":""},"┮":{"ha":0,"x_min":0,"x_max":0,"o":"l 0 -639 l -25 -639 l -25 -1278 l -75 -1278 l -75 -665 l -744 -665 l -744 -612 l -100 -612 "},"┱":{"ha":0,"x_min":0,"x_max":0,"o":"l 0 -639 l 25 -639 l 25 -1278 l -75 -1278 l -75 -692 l -719 -692 l -719 -586 l -50 -586 "},"┲":{"ha":0,"x_min":0,"x_max":0,"o":"l 0 -639 l -25 -639 l -25 -1278 l -75 -1278 l -75 -692 l -744 -692 l -744 -586 l -100 -586 "},"┵":{"ha":0,"x_min":0,"x_max":0,"o":"l 0 -644 l -612 -644 l -612 -744 l 26 -744 l 26 -719 "}}}
